<svg version="1.1" id="Layer_1" xmlns="http://www.w3.org/2000/svg" xmlns:xlink="http://www.w3.org/1999/xlink" x="0px" y="0px"
	 width="100%" viewBox="0 0 784 704" enable-background="new 0 0 784 704" xml:space="preserve">
<path fill="#000000" opacity="1.000000" stroke="none" 
	d="
M353.444153,705.000000 
	C352.401459,701.813660 349.926880,699.924744 347.897278,697.766235 
	C339.989960,689.356628 330.705048,682.514343 321.875549,675.164001 
	C310.852051,665.987244 302.491333,655.057373 298.322815,641.168762 
	C297.989563,640.058472 297.390289,639.030212 297.022827,637.927734 
	C295.614502,633.702576 293.571014,634.475037 289.850952,635.785583 
	C278.230377,639.879211 271.701996,649.894043 263.020416,657.373047 
	C256.804810,662.727661 249.644989,666.140747 241.803070,668.066345 
	C228.323990,671.376099 216.210236,676.651489 208.628464,689.175232 
	C207.820816,690.509399 206.607483,691.524841 204.876556,690.844788 
	C203.275970,690.216064 202.583176,688.929260 202.998611,687.230713 
	C206.239166,673.981018 205.362045,660.085449 209.623505,646.958801 
	C213.983185,633.529541 220.351044,621.538513 231.359558,612.335266 
	C238.142456,606.664734 246.073380,603.471924 254.641342,601.413452 
	C247.344193,591.439026 239.109299,591.900879 229.826370,596.068970 
	C221.281494,599.905762 214.820892,606.422180 208.425125,613.039734 
	C197.913986,623.915405 186.599625,633.569153 171.453430,637.584778 
	C157.682922,641.235718 145.361969,639.229797 134.961502,629.020447 
	C129.099670,623.266357 122.338669,619.713684 114.216568,617.848755 
	C101.842392,615.007568 97.352119,606.116455 101.410629,593.981018 
	C104.925743,583.470398 112.361763,576.299011 121.760170,570.923401 
	C122.626083,570.428162 123.610321,570.122070 124.429077,569.565491 
	C126.734093,567.998596 131.375031,567.596863 130.090271,563.884338 
	C128.841507,560.275818 124.496941,559.995850 120.941765,560.553040 
	C114.007553,561.639954 107.564186,564.518799 100.884888,566.544617 
	C92.233376,569.168579 83.658180,571.293640 74.426994,569.476807 
	C64.556908,567.534241 57.086365,562.665955 52.996075,553.419739 
	C49.992039,546.628967 46.143959,540.518555 41.135334,535.050171 
	C37.776295,531.382812 35.912495,526.911011 35.695236,521.919373 
	C35.373272,514.522034 32.704464,508.370911 26.778912,503.744720 
	C25.337946,502.619720 23.982437,501.366364 22.696827,500.064240 
	C12.944304,490.186401 12.233920,479.804810 20.565666,468.713776 
	C22.866827,465.650543 25.403135,462.759674 27.628992,459.644958 
	C33.456417,451.490356 33.415489,444.338318 27.593336,436.127747 
	C24.292385,431.472595 19.976387,427.747375 15.915153,423.815857 
	C-0.058889,408.351898 4.725119,389.078461 16.670383,376.147552 
	C28.588757,363.245789 44.341824,358.838531 61.223862,357.710571 
	C76.098465,356.716736 90.683533,359.042297 105.237869,362.208923 
	C95.851471,357.944946 86.431396,353.825409 78.629776,346.951111 
	C63.250759,333.400116 47.898262,319.775116 34.018627,304.688965 
	C23.784689,293.565399 19.364637,280.417664 23.506142,265.079559 
	C26.422888,254.277374 28.223444,243.295578 25.663342,232.066910 
	C23.859747,224.156296 20.048277,217.165649 16.104883,210.186798 
	C11.607375,202.227295 6.774472,194.381668 7.571074,184.555878 
	C7.845618,181.169449 8.603777,178.004013 9.692543,174.858765 
	C13.481647,163.912781 18.638388,153.705963 25.985739,144.674866 
	C31.616953,137.753189 38.567390,132.847198 47.249638,130.511383 
	C49.337963,129.949554 51.404762,129.305435 53.472904,128.671249 
	C62.420532,125.927513 65.396149,122.033852 65.640633,112.753540 
	C65.671349,111.587639 65.648949,110.420357 65.653717,109.253731 
	C65.700157,97.906197 72.774841,91.466118 84.234116,92.439163 
	C87.872673,92.748123 91.501076,93.221817 95.117615,93.736176 
	C105.109344,95.157242 114.587868,92.008408 124.258499,90.556534 
	C140.530334,88.113594 151.463211,93.398964 159.690536,107.645058 
	C160.266983,108.643211 160.898453,109.609604 161.956497,111.322990 
	C164.392319,102.230568 166.437180,93.758049 169.663116,85.659958 
	C171.884338,80.084045 174.280212,74.621887 177.360901,69.434959 
	C183.649094,58.847542 193.054779,53.519302 205.106445,53.912594 
	C216.139282,54.272629 225.218155,50.405762 233.600052,43.821918 
	C238.573898,39.915043 243.368393,35.771221 248.811066,32.469646 
	C263.368317,23.639069 279.218384,22.469751 295.134613,26.330984 
	C309.214081,29.746635 322.980072,29.411287 337.170929,28.050667 
	C360.535492,25.810467 382.610718,29.102591 401.261902,45.446083 
	C414.943512,57.434860 431.850983,61.774094 449.521454,63.722214 
	C466.516357,65.595863 483.811768,64.833969 500.478027,69.615555 
	C508.203430,71.831993 515.654297,74.663940 522.415894,79.057640 
	C539.212036,89.971863 545.713928,105.313484 541.954773,124.937141 
	C538.725891,141.792847 540.546875,156.271957 548.273560,173.260483 
	C549.998047,170.710281 551.427246,168.409271 553.039185,166.244370 
	C561.226440,155.248749 571.951843,148.669495 585.809692,147.695236 
	C591.505554,147.294800 596.624817,149.243057 600.104248,153.531937 
	C608.073486,163.355011 618.227600,170.028900 629.275330,175.743729 
	C645.512451,184.142914 656.849060,197.992874 668.735352,211.327606 
	C681.240723,225.356857 691.929626,240.334351 699.679993,257.615509 
	C706.887329,273.685608 720.213684,284.853546 733.743347,295.570099 
	C744.302490,303.933746 755.714722,311.371552 763.839783,322.435974 
	C775.204834,337.912659 776.822632,352.843597 765.361450,367.876648 
	C759.471680,375.602081 757.171143,383.572327 759.833191,393.510254 
	C763.013245,405.381897 758.044922,414.889648 748.267883,422.136292 
	C739.866760,428.363068 730.620667,432.843231 720.784485,436.149628 
	C705.323425,441.346863 689.805786,446.375763 674.318787,451.495911 
	C672.762390,452.010437 671.251343,452.662384 669.693420,453.721252 
	C676.407837,455.107452 683.175903,455.927521 689.740967,457.694916 
	C713.864258,464.189178 733.879089,476.389496 745.882263,499.155640 
	C750.453491,507.825806 752.808899,517.184326 750.658203,527.127625 
	C749.424072,532.833069 746.378052,537.524658 742.293640,541.638672 
	C736.901855,547.069458 734.103088,553.305054 734.486694,561.332520 
	C735.151733,575.250977 731.141357,587.239746 718.402527,595.105286 
	C713.632141,598.050720 710.513794,602.877869 708.408508,607.986938 
	C693.620789,643.873413 653.653564,655.285278 627.376343,653.172791 
	C614.974548,652.175781 604.702881,645.903503 595.266602,638.198669 
	C588.667542,632.810547 582.976807,626.500793 577.450195,620.152405 
	C576.915344,620.372742 576.418457,620.435059 576.368896,620.618164 
	C573.474487,631.331116 566.468750,638.316772 556.741943,643.222290 
	C550.244324,646.499146 546.346924,652.396057 543.268372,658.847961 
	C540.463806,664.725708 537.429749,670.442505 532.332336,674.790161 
	C523.091614,682.671692 512.477905,683.263306 501.760651,679.527893 
	C481.235077,672.373901 461.995636,662.428223 443.872009,650.427795 
	C432.608612,642.969849 420.423218,638.040649 407.241821,635.161255 
	C394.464050,632.369995 381.975006,628.697449 373.096710,618.000854 
	C372.186279,616.903931 371.202393,616.251343 369.645569,617.008179 
	C358.439178,622.456543 346.210419,620.999512 334.368042,622.156555 
	C333.548767,622.236572 332.722137,622.241638 330.561554,622.346375 
	C332.981995,624.075867 334.487946,625.211853 336.052399,626.260559 
	C352.539093,637.312622 360.571259,653.050781 361.239197,672.600159 
	C361.597351,683.083862 361.261841,693.591187 361.119690,704.543945 
	C358.629425,705.000000 356.258881,705.000000 353.444153,705.000000 
M390.412842,426.327942 
	C389.468933,426.633667 388.545410,427.090393 387.577881,427.220978 
	C380.583374,428.165100 380.600098,428.142426 381.261871,435.481415 
	C381.592438,439.147430 380.213562,441.858917 376.331085,442.250732 
	C373.777679,442.508392 372.645569,444.014557 371.327393,445.810303 
	C369.106323,448.836060 369.348236,452.291321 368.904938,455.718414 
	C371.979675,456.162872 374.297913,454.724945 376.660217,453.583649 
	C409.575317,437.681061 436.397675,414.383759 458.674408,385.659637 
	C472.946289,367.257172 478.951630,346.729370 474.898071,323.369995 
	C471.244720,302.316925 477.096741,285.456329 497.867218,275.986786 
	C500.272827,274.890045 502.402679,273.195068 504.680847,271.811127 
	C515.757751,265.082306 525.473145,256.786957 533.391907,246.502686 
	C542.463745,234.720932 548.583801,221.776932 547.582275,206.469025 
	C546.913757,196.250748 544.008728,186.483307 540.033142,177.104004 
	C532.223755,158.679642 529.467834,140.040512 534.210388,120.132973 
	C537.086060,108.061913 532.788330,96.998367 523.721436,88.334518 
	C510.323151,75.531723 493.329559,73.139099 475.292938,71.791992 
	C476.295929,78.860374 475.848053,85.319702 476.000763,91.773338 
	C476.150482,98.100189 475.980072,104.465950 476.630371,110.744179 
	C479.378723,137.278137 474.407684,162.415710 463.492126,186.544846 
	C462.923737,187.801285 462.647156,189.533279 460.637360,189.479248 
	C460.052765,186.572723 460.024323,186.561752 461.041901,183.922684 
	C469.799927,161.209076 471.328278,137.768051 469.033691,113.712334 
	C467.777161,100.538940 464.326813,87.447235 466.470886,74.034630 
	C466.727722,72.427986 465.978790,71.473572 464.315277,71.355843 
	C462.812469,71.249481 461.729065,71.725258 461.412201,73.388763 
	C460.757996,76.823021 460.370880,80.272598 460.107239,83.767113 
	C459.870483,86.905594 461.032684,90.228516 459.628326,93.238922 
	C457.709106,93.123032 457.778809,91.964737 457.633209,91.034050 
	C456.940216,86.605194 456.078674,82.189133 455.674103,77.732475 
	C455.252167,73.084435 453.825043,70.698242 448.356964,70.819237 
	C441.085297,70.980148 433.771790,70.164246 426.545502,68.836639 
	C413.913422,66.515884 403.839874,59.620426 394.547974,51.311291 
	C384.826843,42.618317 373.672729,37.166691 360.639404,35.710064 
	C358.278503,35.446205 355.912811,34.723576 355.301788,38.244118 
	C353.399567,49.204002 350.929779,60.058296 350.277893,71.228096 
	C348.943268,94.096642 352.554962,116.308731 358.679321,138.220032 
	C365.331299,162.018921 368.358185,186.097031 364.367249,210.728638 
	C364.117462,212.270218 364.512177,214.247253 361.939545,214.271637 
	C360.086975,212.820389 360.903839,210.940872 361.106415,209.216873 
	C362.179657,200.082932 361.987976,190.929977 361.300507,181.798782 
	C360.020630,164.798431 355.698486,148.378860 351.193420,132.033661 
	C343.899292,105.569435 341.836639,78.714279 344.702545,51.468197 
	C345.248352,46.278988 346.464966,41.160324 347.366577,36.040234 
	C339.284637,34.181717 337.063049,35.039104 336.450836,40.410446 
	C335.302307,50.487118 334.096161,60.544041 333.944550,70.730110 
	C333.491394,101.184868 339.271362,130.919312 343.869690,160.799667 
	C346.955566,180.851929 349.731049,200.942902 350.231873,221.265778 
	C350.716949,240.951553 348.953369,260.496857 346.292908,279.971527 
	C343.139832,303.052643 338.374512,325.832916 333.280060,348.547791 
	C332.970001,349.930237 332.880493,351.631104 330.790863,351.520844 
	C329.404907,350.404083 329.931030,349.095917 330.201935,347.807465 
	C336.529663,317.712799 342.163879,287.528198 344.069214,256.742035 
	C345.399811,235.242340 345.180176,213.809662 342.360901,192.465027 
	C339.204956,168.571228 333.377441,145.157974 329.094086,121.466080 
	C325.449188,101.305527 323.185150,81.029488 324.513916,60.433750 
	C325.027344,52.476276 326.734802,44.752819 328.153351,36.233715 
	C320.853058,36.698097 314.056305,37.897717 307.349426,36.282700 
	C300.566315,34.649319 293.870422,32.426048 286.995911,31.445211 
	C270.362213,29.071970 255.792404,34.253513 242.932159,44.789719 
	C235.205139,51.120361 227.672974,57.789486 217.683777,60.503643 
	C215.693512,61.044418 215.057770,62.487232 215.510498,64.359596 
	C217.937546,74.397247 216.865158,84.482857 216.468430,94.641785 
	C215.498642,119.475418 216.407257,144.211792 223.098450,168.400909 
	C223.486145,169.802490 224.364182,171.610367 222.456039,173.057770 
	C220.123260,172.336700 220.013947,170.196671 219.479675,168.380585 
	C212.959457,146.216751 210.058731,123.558952 209.541656,100.480431 
	C209.292953,89.380623 209.664520,78.160622 206.948013,67.223679 
	C206.448166,65.211235 206.771790,62.489929 203.776535,62.287716 
	C199.481659,61.997768 195.371124,63.022591 192.227173,66.036781 
	C190.096771,68.079247 192.664261,69.968697 193.303986,71.870026 
	C193.885544,73.598412 194.735291,75.234520 195.380020,76.944031 
	C199.005890,86.558029 200.485992,96.524658 200.348526,106.777390 
	C200.078354,126.927017 200.323639,147.046204 203.789185,166.989929 
	C208.549576,194.385223 218.018707,220.308090 228.586182,245.856644 
	C239.468033,272.165344 250.890503,298.255859 259.884735,325.302551 
	C260.645233,327.589478 262.217590,329.936127 261.118225,332.717926 
	C259.187378,332.125732 258.970001,330.706482 258.536133,329.519623 
	C248.513733,302.104950 235.573532,275.965302 223.582092,249.410355 
	C213.294708,226.629044 204.545425,203.311157 197.920776,179.155350 
	C191.585449,156.054413 191.740799,132.435364 191.024734,108.860039 
	C190.675110,97.349136 188.885239,86.172012 184.892990,74.168129 
	C183.167770,77.346191 181.794479,79.553131 180.726227,81.898987 
	C175.749695,92.827217 172.628403,104.463120 168.171097,115.559914 
	C164.071640,125.765778 167.085831,135.957001 166.350433,146.114502 
	C166.131332,149.140823 166.891663,151.986862 167.681549,154.917923 
	C173.991699,178.332977 184.399048,200.157715 193.543579,222.480011 
	C200.169281,238.653671 206.660080,254.972610 207.483658,272.719788 
	C208.176376,287.646973 214.011795,299.948029 224.561371,310.329071 
	C230.375778,316.050598 235.655426,322.322357 241.552551,327.951752 
	C258.285797,343.925323 265.083679,363.254730 262.558868,386.211548 
	C261.826477,392.870972 262.446411,399.679138 262.446411,406.769928 
	C263.525360,406.286133 264.012238,406.161896 264.386749,405.885468 
	C268.542755,402.817810 272.984100,402.051239 277.382294,405.021210 
	C281.649567,407.902802 281.939178,412.230804 281.307007,417.031525 
	C280.821198,420.721130 281.727142,423.862152 286.791565,423.823029 
	C290.750824,423.792419 293.892670,425.857056 294.965393,429.929871 
	C296.030579,433.974213 294.962433,437.482422 291.566986,440.168701 
	C290.420349,441.075867 288.636658,441.046783 287.932800,442.687317 
	C289.498352,452.487823 291.068085,462.314362 292.800934,473.161926 
	C297.475494,464.851959 298.932220,456.845581 299.599579,448.719116 
	C300.043579,443.312836 301.626709,437.749603 296.856812,432.853607 
	C294.576141,430.512634 295.518402,426.927002 297.429596,424.003754 
	C301.112915,418.370148 300.903595,417.793701 294.856934,415.097076 
	C290.156799,413.001007 287.194336,408.085205 287.880554,403.520966 
	C288.613068,398.648682 292.293762,394.598969 296.723877,393.790924 
	C302.078674,392.814209 306.891663,395.202179 309.166351,399.964294 
	C311.331909,404.497986 310.282166,409.557404 306.425446,413.174347 
	C302.478729,416.875793 302.624054,418.580444 307.472961,420.357239 
	C311.362549,421.782562 313.712006,424.319031 314.025299,428.315186 
	C314.337006,432.291168 312.535004,435.472809 308.886841,437.278809 
	C306.948761,438.238281 306.270691,439.627899 306.346558,441.667572 
	C306.617676,448.954803 306.017273,456.193970 305.041718,463.483429 
	C308.778046,458.799164 311.920471,453.884613 313.434692,448.058044 
	C310.354553,446.298401 307.782288,444.535614 308.853607,440.854645 
	C309.761353,437.735718 312.208466,436.966309 315.181763,437.403229 
	C316.057678,437.531921 316.800415,437.359650 317.443390,436.698639 
	C320.532013,433.523376 319.641083,425.144043 315.915161,422.456451 
	C311.824646,419.505859 310.861145,414.712097 313.531128,410.594543 
	C316.073181,406.674316 321.459778,405.593567 325.446747,408.203766 
	C329.404907,410.795105 330.366150,415.765350 327.667389,420.085205 
	C326.711365,421.615479 325.197632,422.822540 325.270996,424.881836 
	C325.585602,433.711456 323.552643,442.204559 321.444366,450.727783 
	C323.731354,447.797058 325.772980,444.784576 327.823151,441.777863 
	C328.570892,440.681244 329.241852,439.766266 328.596985,438.174683 
	C324.722290,428.611664 325.761108,426.914948 335.958557,425.529877 
	C336.395386,425.470581 336.789368,425.095917 337.206299,424.866516 
	C331.074646,414.359894 330.823792,410.196503 336.033600,406.302887 
	C340.941071,402.635284 346.011780,403.697906 352.165863,409.683655 
	C352.327972,409.663910 352.508240,409.683746 352.649567,409.618774 
	C359.953186,406.260590 365.524811,407.523468 368.039642,413.114166 
	C370.784454,419.216156 368.170135,424.213257 360.562347,427.139404 
	C359.024384,427.730957 357.745270,428.182007 358.416901,430.343506 
	C363.387177,431.032837 367.817780,432.562103 369.062134,438.690613 
	C368.325867,434.077728 370.681580,431.963165 374.308807,430.146759 
	C377.392578,428.602570 379.617249,426.115112 376.957886,422.108337 
	C375.441803,419.824158 375.274231,417.105713 376.351624,414.423859 
	C378.009491,410.297028 381.052338,407.869873 385.453979,407.795624 
	C389.819458,407.721954 393.374237,409.775787 394.772125,414.022491 
	C396.292358,418.641052 395.497253,422.942688 390.412842,426.327942 
M646.386780,564.032715 
	C666.257324,574.732117 684.832642,587.193359 700.630371,604.168396 
	C705.089600,595.582703 712.199890,589.893494 719.717041,584.556702 
	C725.890259,580.174011 727.360779,573.577026 727.648010,566.514282 
	C727.722534,564.683960 726.969849,563.450439 725.620667,562.231934 
	C705.876526,544.400574 683.637695,530.481934 659.027710,520.517212 
	C617.654053,503.764740 574.605591,496.938782 530.043457,499.736206 
	C528.924744,499.806458 527.634216,500.166046 527.090698,497.585175 
	C562.807495,492.731415 597.962952,494.411591 632.791687,503.442535 
	C667.914124,512.549683 699.471436,528.751709 728.072510,551.786560 
	C730.036072,545.071838 733.588745,540.072266 737.834839,535.577209 
	C745.229126,527.749451 746.037842,518.853821 742.386780,509.192230 
	C735.420349,490.757233 722.056213,478.679688 704.201843,471.223389 
	C687.779358,464.365082 670.338806,462.538147 652.852417,462.538666 
	C628.891602,462.539398 605.034180,464.779541 581.283447,468.157593 
	C538.552612,474.235199 496.669373,483.984192 455.417175,496.570435 
	C454.222504,496.934937 452.965210,497.858856 451.846222,496.162262 
	C452.018188,494.799744 453.196075,494.392212 454.224152,493.978912 
	C475.396240,485.467712 496.727661,477.384003 518.869019,471.720917 
	C540.951172,466.073029 563.368225,462.202362 586.002258,459.486877 
	C608.957092,456.732880 631.854431,453.392761 655.059204,453.694214 
	C657.478882,453.725616 659.605286,452.971252 661.770386,452.040405 
	C673.858582,446.843170 686.033936,441.844147 698.061829,436.512146 
	C711.908630,430.373749 726.244995,425.336395 739.451477,417.745026 
	C752.632019,410.168610 755.360291,404.975189 752.814636,390.129059 
	C751.593201,383.005615 751.913574,376.206635 755.773804,369.876923 
	C757.334839,367.317230 758.794739,364.684998 760.509399,362.231689 
	C771.891479,345.946136 761.820801,328.091614 750.024170,319.856415 
	C742.323853,327.815857 734.210754,335.425293 724.940857,341.718994 
	C711.454651,350.875305 699.611938,356.880798 695.851196,356.141724 
	C696.605103,353.929108 698.793579,353.564484 700.432068,352.636963 
	C716.279419,343.666290 729.717407,331.818115 741.714050,318.240967 
	C743.149292,316.616669 744.807678,314.902130 742.282776,312.753784 
	C739.956482,310.774506 738.480469,312.065948 736.867920,313.844452 
	C734.631470,316.311005 732.274597,318.676880 729.864380,320.975891 
	C715.312866,334.855560 698.303772,345.460236 681.857239,356.796997 
	C645.403809,381.924683 605.821045,400.785309 564.023743,415.134521 
	C562.604248,415.621857 561.035400,416.873444 558.352661,414.600128 
	C623.859863,390.103302 681.663269,354.333801 731.305664,305.642120 
	C730.676697,303.899994 728.913940,303.148438 727.456787,302.096558 
	C711.565979,290.626038 699.099670,276.563416 692.443970,257.702332 
	C686.192322,239.986053 674.451111,225.959564 661.110779,213.120667 
	C659.161255,211.244415 657.737549,211.051208 655.668945,213.003128 
	C650.327454,218.043121 644.285950,222.220139 638.355225,226.531906 
	C615.466919,243.172104 593.735718,260.968719 579.396545,286.082855 
	C578.926514,286.906097 578.431824,287.888702 575.707947,287.495361 
	C594.653625,253.608017 625.152405,231.055359 650.777344,204.132553 
	C645.564392,197.877304 645.230835,197.838120 638.648254,202.514648 
	C629.792664,208.805954 621.545654,215.785995 614.220032,223.834198 
	C613.215576,224.937683 612.353088,226.866913 609.632507,225.002335 
	C617.919128,213.278732 628.450134,203.693665 638.352844,193.868149 
	C637.332275,191.502884 635.605530,190.666748 634.213806,189.533264 
	C621.453064,179.140518 606.866272,171.050873 595.750366,158.547531 
	C592.863464,155.300323 588.593567,154.642014 584.168945,155.930603 
	C571.234131,159.697662 561.583984,167.627075 554.350403,178.831299 
	C552.043579,182.404373 551.403198,185.816101 552.566956,190.066315 
	C556.519043,204.500412 555.493286,218.715271 549.604065,232.518143 
	C542.393616,249.417618 530.324219,262.298859 515.883240,273.215210 
	C514.047791,274.602692 512.055786,275.734314 511.091949,278.125031 
	C508.373840,284.867157 506.500732,291.808105 507.502716,299.061920 
	C509.130432,310.845398 506.246521,321.482697 500.389771,331.561737 
	C495.522400,339.937988 489.565033,347.562347 484.006165,355.460449 
	C476.614471,365.962646 471.319550,377.760071 463.719513,388.130737 
	C449.657440,407.319214 432.508209,423.634399 415.456451,440.041626 
	C413.573914,441.853058 411.039948,443.025360 409.776184,445.822845 
	C412.434967,447.484070 415.513153,448.743774 416.389221,452.144806 
	C416.860931,453.975983 418.363678,454.643219 419.796234,455.534546 
	C425.875916,459.317322 425.795563,466.747467 419.658264,470.554840 
	C418.197662,471.460938 416.611694,472.164917 414.747070,473.137207 
	C416.889404,474.546326 418.829773,475.564545 419.167633,477.709961 
	C419.475891,479.667419 420.497498,480.429688 422.265625,481.053894 
	C426.607574,482.586761 428.706055,485.886017 427.872742,490.401581 
	C427.040710,494.910248 423.899841,497.321930 419.312286,497.201965 
	C416.549744,497.129730 414.829529,498.512665 412.692413,499.919495 
	C407.744720,503.176605 411.693146,507.933411 409.949951,511.609741 
	C413.609131,504.181305 416.732574,501.755035 421.895355,502.814026 
	C426.427948,503.743774 428.552643,506.939850 429.091095,511.300812 
	C429.326233,513.205566 428.438995,514.867310 427.409058,516.416016 
	C425.302582,519.583618 421.852905,520.194641 418.143280,520.736755 
	C419.276520,522.859497 420.189728,524.570129 421.228821,526.516602 
	C424.588776,525.101990 428.755615,526.576416 430.771149,522.173828 
	C433.168762,516.936646 437.159668,515.922424 442.111176,518.906982 
	C446.662079,521.650085 454.325165,517.976868 454.657043,512.790588 
	C454.946411,508.268494 457.032349,505.044708 461.393311,503.958466 
	C465.561676,502.920197 469.394562,503.898743 471.813965,507.906311 
	C474.172241,511.812622 473.799866,515.622131 470.780884,518.957703 
	C467.592072,522.480957 463.710571,522.926941 459.416962,520.956299 
	C454.372437,518.640930 446.331268,522.358582 444.039490,527.263977 
	C442.626740,530.287842 442.298584,532.777283 443.218231,535.979126 
	C444.122498,539.127380 443.309906,542.335999 440.227051,544.340393 
	C438.062561,545.747620 435.826050,545.678345 433.665466,544.244263 
	C429.133331,541.235962 425.382660,541.391846 421.144958,545.109619 
	C419.226379,546.792786 417.296082,547.509155 414.778748,547.016541 
	C406.456696,545.388000 398.835846,549.227051 390.778687,549.809143 
	C399.406860,551.429871 408.041443,551.653198 416.666687,552.113464 
	C420.078949,552.295593 422.897583,552.572693 425.574860,549.552246 
	C427.633148,547.230103 430.841003,547.709167 433.255005,549.858826 
	C435.694946,552.031555 435.957245,554.724365 434.408569,557.550110 
	C432.736267,560.601440 429.195068,561.571045 427.150421,559.956238 
	C422.354706,556.168762 417.418213,557.874207 412.360626,558.297729 
	C415.748322,558.362122 418.628418,560.087158 421.820526,560.851013 
	C436.879211,564.454773 451.553986,562.178589 466.171295,558.329590 
	C492.149200,551.489014 517.389038,553.417419 541.424072,565.628357 
	C556.690308,573.384399 569.326782,584.266418 574.572266,601.223083 
	C576.490234,607.423279 579.523132,612.323792 583.780212,616.815857 
	C588.368835,621.657776 593.119629,626.341736 598.362610,630.472900 
	C605.963257,636.461731 613.609375,642.440674 623.360352,644.627441 
	C643.075073,649.048584 679.066895,639.576050 694.088379,615.789429 
	C694.776917,614.699158 695.838867,613.700928 695.137939,612.533691 
	C664.160400,572.380798 618.704651,556.432800 573.808289,539.365051 
	C598.475464,545.580994 622.800537,552.555115 646.386780,564.032715 
M196.287506,284.123627 
	C193.007034,277.947662 189.539124,271.863068 186.477356,265.580536 
	C170.021454,231.814056 160.905258,196.161865 158.491119,158.654968 
	C157.775223,147.532486 158.586060,136.334167 156.663223,125.280220 
	C152.518463,101.452934 137.093933,92.518806 112.813728,101.194679 
	C117.768890,111.699081 119.542526,123.065132 121.156464,134.362732 
	C124.865166,160.323593 131.084503,185.584290 140.516937,210.058121 
	C141.191589,211.808609 142.664352,213.515289 141.631775,215.680405 
	C139.368332,215.580978 139.111481,213.647049 138.446564,212.251984 
	C131.125671,196.891739 125.139893,181.033203 120.643227,164.609650 
	C115.294975,145.075821 112.844620,124.779655 104.872604,105.915680 
	C103.146111,101.830330 101.268303,100.337341 96.981239,102.006554 
	C97.113594,107.517509 100.950600,112.185402 100.675438,117.905479 
	C96.684509,113.122704 93.141342,108.166664 90.025536,102.955116 
	C88.456009,100.329903 86.689133,99.226067 83.635918,99.310516 
	C76.161880,99.517250 72.413872,103.257149 72.396973,111.487099 
	C72.384148,117.730003 72.537773,123.903313 67.610428,128.715744 
	C64.177979,132.068130 59.840328,133.754639 55.425594,135.340500 
	C51.584969,136.720123 47.387383,137.311569 44.056690,139.999023 
	C49.578270,151.088028 45.740089,164.388397 54.573154,174.628357 
	C51.040249,175.040665 50.586266,173.145370 49.665012,171.895767 
	C45.199501,165.838699 43.350090,158.762329 41.819118,151.568298 
	C41.200073,148.659393 40.431175,145.842636 37.921356,144.037674 
	C34.632710,145.460068 34.567020,147.468674 35.655495,150.255020 
	C37.711708,155.518661 39.712673,160.834641 41.242504,166.267990 
	C49.239223,194.669113 59.923992,221.809799 77.624237,245.766098 
	C78.506683,246.960434 80.108238,248.140503 79.094200,250.114304 
	C76.574692,250.508026 76.064407,248.322159 75.020477,247.016037 
	C57.840618,225.520874 46.171646,201.172150 37.732830,175.125443 
	C35.407509,167.948257 32.956604,160.782928 29.242161,153.214630 
	C23.993311,160.257935 21.073246,167.507202 17.809851,174.546829 
	C13.581543,183.667908 13.734234,192.574982 19.499565,201.117645 
	C21.269146,203.739685 22.953094,206.426834 24.542843,209.161728 
	C34.224903,225.818115 39.468201,243.760773 34.959667,262.744019 
	C30.988060,279.466492 36.658836,291.971832 47.669849,303.425354 
	C54.841778,310.885498 63.069950,317.208496 70.402466,324.467926 
	C87.981163,341.871399 108.127083,354.737915 131.769562,362.571014 
	C151.909760,369.243774 168.016495,382.002533 180.543152,399.210510 
	C186.216400,407.003906 190.079681,415.743896 194.013000,425.202393 
	C195.885864,419.557892 197.107620,414.506439 199.226929,409.864807 
	C201.447205,405.002075 200.352814,401.871887 196.642914,398.176361 
	C184.553558,386.133850 170.667053,376.273468 157.742813,365.255280 
	C128.520630,340.342804 103.836380,311.817719 87.169403,276.894287 
	C86.232666,274.931519 84.505135,273.054718 85.331863,270.479462 
	C87.790497,270.424652 88.116470,272.416382 88.779961,273.734589 
	C107.454628,310.836304 135.483856,339.465027 169.247665,362.966370 
	C182.309769,372.058289 196.497253,379.947174 204.447052,395.420349 
	C208.097672,390.026093 211.129654,385.074677 214.659729,380.508301 
	C216.744781,377.811127 216.759262,375.630371 215.188126,372.817963 
	C212.367859,367.769623 208.357010,363.794220 204.138901,360.010437 
	C185.796509,343.556732 169.923386,325.004700 156.626785,304.262787 
	C155.691940,302.804474 153.850220,301.451843 154.793350,299.043396 
	C157.396927,299.844330 158.258026,301.956390 159.435455,303.671509 
	C164.729889,311.383606 170.978897,318.305634 177.030609,325.406372 
	C190.991333,341.787170 211.706528,350.937500 223.560104,369.691254 
	C227.912476,367.155945 231.415512,363.859863 236.069199,362.835175 
	C237.613266,362.495209 239.446442,361.715973 240.684280,363.443939 
	C241.731628,364.906006 240.827637,366.321533 240.119278,367.639587 
	C238.700577,370.279388 237.470352,373.059265 235.755051,375.494415 
	C226.921967,388.034546 221.555984,401.777161 220.741821,417.190918 
	C220.341507,424.769623 219.868210,432.344482 219.409012,440.246704 
	C220.648651,440.050354 221.326645,440.071533 221.895416,439.832642 
	C226.662766,437.830322 231.146057,438.107635 234.707504,442.077942 
	C238.035004,445.787415 237.732071,449.968506 235.239594,454.093811 
	C234.501068,455.316223 234.247833,456.548157 235.084946,457.840729 
	C240.235764,465.794098 246.085434,473.115570 253.796188,478.801178 
	C246.322449,465.181580 239.582413,451.344330 236.267838,436.095612 
	C235.744583,433.688324 234.227768,432.752106 231.970200,431.902496 
	C225.847931,429.598389 223.587967,423.170868 226.555252,417.530060 
	C229.119186,412.656036 235.869949,410.900299 240.847427,414.124542 
	C242.966125,415.496979 244.717056,415.954163 247.271027,415.377075 
	C250.739639,414.593231 253.496994,416.422516 254.783035,419.721802 
	C256.000458,422.845032 255.133911,425.590027 252.313614,427.624329 
	C251.427307,428.263611 249.941788,428.212158 249.770569,429.784363 
	C250.306351,432.076874 251.061020,433.963501 253.889343,434.716309 
	C259.997894,436.342163 261.607513,439.340759 259.959320,445.442932 
	C259.556854,446.932983 258.953247,448.335449 259.847107,449.742096 
	C262.883453,454.520447 265.616333,459.525208 269.805115,464.062683 
	C269.817139,458.888000 268.579651,454.677368 266.622620,450.526703 
	C264.001068,444.966583 261.446960,439.373932 259.599060,433.456879 
	C254.928848,418.502930 253.352188,403.214935 253.743301,387.619568 
	C253.901642,381.306152 253.998215,374.977478 253.272598,368.660187 
	C251.647903,354.515564 244.026489,343.502106 234.789734,333.446594 
	C220.792313,318.208435 207.148376,302.725800 196.287506,284.123627 
M160.611710,454.911743 
	C137.200241,442.547577 112.415970,438.487579 86.042336,444.041534 
	C86.161430,443.187164 86.280518,442.332794 86.399605,441.478424 
	C116.686188,433.777496 145.875900,436.303497 173.697495,452.243195 
	C161.377655,437.272186 145.151550,428.599426 127.487022,422.030548 
	C149.956696,426.335510 169.861023,435.715088 186.686722,451.590149 
	C191.748215,441.170868 191.538193,431.391052 184.390152,423.145508 
	C155.387436,389.689697 119.885452,367.678802 74.906563,363.677185 
	C59.224468,362.282043 43.882198,364.628113 30.251087,373.229706 
	C19.788048,379.832153 12.299537,388.689606 12.357485,401.959534 
	C12.398253,411.295563 18.220556,417.551086 24.322329,423.618988 
	C41.486015,440.687286 42.490494,448.462921 30.278004,469.165985 
	C21.910864,483.350250 22.118198,485.085388 33.558746,496.624512 
	C34.262779,497.334595 34.940498,498.073273 35.675213,498.750061 
	C41.020241,503.673401 43.617870,509.766663 43.316074,517.020386 
	C43.079964,522.695374 45.068058,527.463562 48.946266,531.480774 
	C53.158825,535.844421 56.319550,540.815491 58.828831,546.364563 
	C64.677200,559.297729 73.737793,563.541809 87.944160,561.164551 
	C97.187119,559.617859 105.866249,556.057373 115.015259,554.305237 
	C120.965500,553.165710 126.974663,552.746094 132.515564,555.960632 
	C136.211761,558.104980 138.392456,561.304565 138.317917,565.754333 
	C138.247253,569.974609 135.693542,572.370850 132.210800,574.130676 
	C129.090973,575.707153 125.880394,577.158630 122.943977,579.032166 
	C116.813759,582.943420 111.479660,587.695435 108.949821,594.811951 
	C106.238327,602.439453 108.385025,607.241638 116.084282,608.625610 
	C126.517395,610.501038 134.988327,615.347229 142.587738,622.549011 
	C148.669617,628.312561 156.008316,630.526672 164.663864,629.114136 
	C180.201431,626.578369 192.665619,618.816589 203.174225,607.608765 
	C213.059509,597.065674 222.977463,586.780640 239.275467,585.648804 
	C233.625946,577.735657 227.931870,570.746094 223.749573,562.825134 
	C220.973969,557.568420 216.485901,554.612183 211.211044,553.909912 
	C196.408325,551.938965 181.445557,549.561584 167.034546,556.219299 
	C166.190964,556.609070 165.213089,557.280151 164.007004,555.288513 
	C179.062531,545.592712 196.079391,546.647278 213.358124,546.172852 
	C211.610718,539.397095 207.946716,533.989136 205.177597,528.212585 
	C204.261169,526.300842 203.774139,523.918091 201.737061,522.818848 
	C189.902512,516.432251 178.796753,508.596619 165.421875,505.311920 
	C146.711914,500.716949 127.843094,498.360687 108.556854,499.961853 
	C106.162308,500.160614 103.382774,501.303101 100.981033,498.758759 
	C101.765175,498.249207 102.255196,497.801331 102.832123,497.577942 
	C105.537315,496.530609 108.428619,496.889404 111.227539,496.537140 
	C138.015778,493.165833 164.402496,493.433350 189.565674,505.033966 
	C190.789688,505.598267 192.135483,506.189575 193.348419,505.250336 
	C194.679413,504.219635 194.009247,502.796509 193.610855,501.557037 
	C191.168503,493.958344 188.600021,486.399445 187.491608,478.440918 
	C187.365494,477.535400 186.710358,476.602112 186.072083,475.884979 
	C178.844269,467.763428 171.276138,460.038055 160.611710,454.911743 
M228.395401,554.178833 
	C236.911240,569.201965 245.437683,584.217224 259.439972,596.470032 
	C247.501022,576.370178 237.906296,547.017334 240.604553,537.892822 
	C242.650253,544.032288 244.342087,549.517639 246.297394,554.907471 
	C254.902924,578.628601 268.821045,596.779175 293.837891,605.922729 
	C307.928802,611.072876 319.616760,609.870483 331.393188,601.678223 
	C332.608063,600.833130 333.760773,599.050171 335.928192,600.652100 
	C333.466492,606.439941 328.035095,609.282166 322.524445,613.658813 
	C334.389282,613.732056 345.164673,614.751038 355.690796,611.643677 
	C362.812286,609.541382 365.673767,605.374817 365.683411,598.026306 
	C365.690277,592.812683 364.444275,587.808044 363.193359,582.810974 
	C358.997406,566.048950 351.404083,550.652039 343.916534,535.223267 
	C336.774445,520.506226 331.708344,505.010834 326.414429,489.586487 
	C324.348053,483.565948 320.626434,481.803772 314.296112,483.180267 
	C308.152069,484.516266 302.768829,487.424011 298.166992,491.688965 
	C289.029755,500.157227 278.536560,505.718414 266.149658,507.966705 
	C238.963394,512.901123 211.370239,491.141602 210.735474,463.707336 
	C210.307251,445.199219 213.138443,426.903290 215.279617,408.584381 
	C216.572296,397.524811 220.667725,387.310028 225.916992,377.502838 
	C222.675491,381.156219 219.308716,384.578491 216.619522,388.624054 
	C206.934647,403.193787 202.435440,419.728516 198.282852,436.390717 
	C192.542633,459.423218 194.106796,481.798553 203.719666,503.717499 
	C211.154373,520.669922 219.628326,537.077454 228.395401,554.178833 
M406.896301,624.505066 
	C421.936157,626.938965 435.676178,632.533752 448.188202,641.247192 
	C458.578064,648.482849 469.003174,655.672974 479.549225,662.677734 
	C487.609558,668.031372 495.967041,672.900208 505.529449,675.176147 
	C518.677429,678.305603 525.478455,675.411255 532.261108,663.755920 
	C533.682983,661.312561 534.900513,658.748413 536.171631,656.219543 
	C539.582397,649.433838 543.620789,643.151855 550.402344,639.225647 
	C553.176208,637.619568 552.901917,635.731812 551.516479,633.401367 
	C546.806885,625.479431 541.406982,618.130554 534.377502,612.067017 
	C533.118591,610.981140 531.031128,610.416565 531.328918,607.196533 
	C543.209717,613.629578 552.022278,622.661072 559.261597,633.414368 
	C561.339722,631.548096 560.524536,630.143311 559.800964,628.876221 
	C540.977783,595.912964 509.534302,583.833008 473.119293,577.886841 
	C479.460602,574.353699 484.654480,576.377808 489.483063,576.895142 
	C523.138428,580.500549 545.822510,601.549011 566.190369,626.089722 
	C567.906738,624.827454 568.289917,623.005676 568.813904,621.273071 
	C572.670166,608.522339 568.059265,597.855225 559.750671,588.749207 
	C543.411072,570.841431 522.527283,562.464111 498.550995,561.329834 
	C485.416840,560.708435 472.710754,563.570740 460.138397,566.742188 
	C443.110931,571.037354 426.282074,571.024353 409.347931,566.404297 
	C401.496124,564.262024 393.569305,562.227295 385.550110,560.917664 
	C378.819122,559.818420 371.885132,557.911072 364.579926,560.813660 
	C367.227386,566.455811 367.577301,572.883728 375.902283,573.735413 
	C385.634979,574.731140 395.242310,576.956787 404.900818,578.666870 
	C406.254761,578.906616 408.015991,578.576782 408.290253,581.226135 
	C396.394073,581.179077 384.762054,577.856812 372.878021,578.591553 
	C372.932922,583.599854 375.219238,585.717590 379.338470,586.785522 
	C388.588440,589.183533 398.085449,589.596069 407.495392,590.537659 
	C439.935883,593.783325 469.711304,604.412170 496.984894,622.160217 
	C498.476837,623.131104 500.828461,623.745850 500.246643,628.069885 
	C462.465973,603.800415 421.116974,594.394287 377.123901,595.019470 
	C377.123901,597.364258 377.840668,600.564941 376.973358,603.255005 
	C375.217072,608.702148 377.811615,611.737366 381.671692,614.585693 
	C388.968384,619.969910 397.500244,622.193848 406.896301,624.505066 
M243.073441,660.559326 
	C261.138367,653.226379 273.041168,640.081116 279.352722,621.792847 
	C279.908539,620.182373 281.406830,617.949890 279.022339,616.383057 
	C277.085297,615.110291 275.153076,615.267700 272.891815,616.124146 
	C260.713226,620.736572 251.429779,629.258118 242.417694,638.190857 
	C238.015976,642.553894 234.432800,647.639160 230.097015,652.077148 
	C237.856232,634.533020 249.214233,620.024109 266.002197,610.487671 
	C262.421936,605.222351 258.287018,605.122742 253.345688,606.843872 
	C238.497772,612.015564 228.298462,622.257141 221.176682,635.864441 
	C214.934982,647.790283 212.484299,660.939819 209.426788,673.873779 
	C209.236038,674.680786 208.819946,675.865967 210.229691,676.644165 
	C213.671692,673.364197 217.298950,670.210388 221.618500,668.008423 
	C228.189697,664.658508 235.348785,662.982544 243.073441,660.559326 
M345.952057,645.553650 
	C338.507019,635.023682 328.160522,628.250000 316.757080,622.755188 
	C313.137787,621.011169 309.522858,621.108826 304.595215,621.331116 
	C320.832306,634.968079 332.615356,650.693176 340.351166,669.408936 
	C334.060394,663.599304 328.739777,657.005676 323.185303,650.615356 
	C317.550995,644.133179 311.690308,637.846802 303.971985,632.534302 
	C306.742279,642.923584 310.295715,652.160706 316.885712,659.952332 
	C327.773071,672.825073 342.290131,681.652161 354.637726,694.635986 
	C354.637726,686.575378 355.022339,679.762451 354.545227,673.010315 
	C353.873169,663.499268 352.018372,654.200562 345.952057,645.553650 
M494.843475,329.368530 
	C505.161011,315.247162 500.864471,299.117676 501.653503,283.459015 
	C487.673187,287.630341 481.837860,295.389496 482.283142,309.081696 
	C482.663544,320.778473 485.648193,332.367279 484.177399,344.485474 
	C487.608673,339.653839 491.039917,334.822205 494.843475,329.368530 
M197.698700,254.676971 
	C190.718613,231.135269 178.877823,209.606934 169.843475,186.916138 
	C178.863174,229.959152 192.189377,267.173615 202.591782,278.556366 
	C201.587433,270.548706 200.332352,262.888855 197.698700,254.676971 
M394.680908,470.164185 
	C392.082916,472.509491 388.769409,474.246735 390.960968,478.996490 
	C391.968842,481.180847 389.967865,483.866943 387.553406,484.293610 
	C382.556488,485.176727 380.201538,489.016724 377.170746,492.238739 
	C373.059143,496.609863 368.465729,500.425720 363.362610,503.617218 
	C361.288300,504.914490 359.287292,506.329010 357.252960,507.690216 
	C361.791229,507.430054 366.289520,508.586212 370.048157,505.581818 
	C375.107117,501.537964 380.331329,497.701508 385.449860,493.731262 
	C386.886200,492.617126 388.382233,491.469940 388.648560,489.461304 
	C389.138855,485.763184 391.374329,484.274536 394.932983,483.532227 
	C398.178314,482.855316 402.027679,480.700104 400.783234,477.069122 
	C399.132507,472.252686 399.857819,468.600677 402.458252,464.560181 
	C400.040497,466.273621 397.622711,467.987030 394.680908,470.164185 
M370.303040,469.853516 
	C369.905182,473.969330 374.888031,475.071198 374.801361,479.579712 
	C378.872986,476.671753 382.178558,474.185608 385.617249,471.899750 
	C387.856354,470.411255 388.907227,468.923767 387.447235,466.191223 
	C386.061737,463.598114 387.177917,461.253632 389.291718,459.584839 
	C391.334198,457.972382 393.586212,458.374023 395.866577,459.460602 
	C396.898224,459.952179 397.444244,461.835327 399.239594,460.774567 
	C398.884155,458.831848 398.533905,456.917511 398.199036,455.087067 
	C396.345581,454.500977 395.044250,455.322388 393.765411,456.049438 
	C389.657227,458.384949 385.222809,459.905914 380.570892,460.291901 
	C374.823486,460.768799 370.200439,462.031311 370.303040,469.853516 
M334.908325,442.405548 
	C331.919220,447.489349 328.930115,452.573181 325.941040,457.657013 
	C337.650635,450.112427 346.351318,439.855377 353.379181,428.102051 
	C354.516418,426.200165 351.878876,422.652039 349.523254,422.538727 
	C346.194641,422.378540 340.612122,426.054657 340.854706,429.214050 
	C341.275085,434.688385 338.504028,438.213104 334.908325,442.405548 
M281.562256,441.206329 
	C275.174805,436.101868 279.918213,428.565582 278.200287,422.150665 
	C274.626953,423.269043 270.639587,422.666260 271.529907,427.700165 
	C274.279968,443.249359 278.994049,458.250916 284.076660,473.156067 
	C283.584167,462.720917 283.559875,452.286530 281.562256,441.206329 
M236.254303,480.275452 
	C239.457092,482.009796 241.876617,485.337677 245.980988,485.441772 
	C246.502579,483.540985 245.436920,482.615417 244.574600,481.648499 
	C240.001282,476.520477 235.834991,470.975555 233.290268,464.666718 
	C230.776840,458.435364 226.363846,457.655090 220.736679,458.036682 
	C220.563828,460.101257 220.960449,461.764587 222.275177,463.084106 
	C232.006104,462.680573 234.243088,465.217072 232.737030,475.099457 
	C232.335968,477.731232 234.413925,478.447815 236.254303,480.275452 
M263.372559,475.139679 
	C268.836975,480.690887 269.967133,481.284607 273.284149,480.269684 
	C273.096283,479.819824 273.033356,479.239990 272.710388,478.958588 
	C264.649048,471.934204 258.944031,463.188751 254.299698,453.690613 
	C252.945587,450.921295 250.952194,449.412079 247.340317,449.172699 
	C252.364868,458.124298 256.437012,467.079865 263.372559,475.139679 
M381.274048,511.990021 
	C375.976593,514.632996 369.091187,513.716248 364.426910,519.293579 
	C368.277985,520.979919 371.493256,522.181335 375.151184,520.303040 
	C381.661926,516.959839 387.934540,513.221741 394.002289,509.143341 
	C395.074524,508.422699 396.909668,507.942749 395.999084,505.446503 
	C391.268280,507.556030 386.633240,509.622803 381.274048,511.990021 
M404.079224,491.560547 
	C405.401245,490.309479 406.696014,489.027985 408.050873,487.813507 
	C410.970032,485.196930 409.091553,482.776550 407.314728,480.987793 
	C405.237457,478.896637 403.868866,481.374939 402.448029,482.600647 
	C400.382019,484.382965 399.932312,486.563904 400.207642,489.274780 
	C400.598999,493.128662 398.417236,495.531403 394.613190,495.113312 
	C389.054871,494.502411 387.593933,498.702820 385.170624,501.968567 
	C392.527893,500.848053 397.826080,496.060852 404.079224,491.560547 
M399.876953,522.361511 
	C391.567230,526.383972 382.245453,527.067383 373.552948,529.846375 
	C381.433624,531.390747 389.197296,530.744751 396.952271,530.622803 
	C398.485229,530.598694 400.602966,530.234680 400.319275,528.560608 
	C399.944244,526.347412 403.341919,524.294861 399.876953,522.361511 
M354.719086,453.518494 
	C354.586609,453.220703 354.526581,452.803986 354.297668,452.664490 
	C354.128632,452.561493 353.609467,452.728516 353.467041,452.930725 
	C349.327179,458.807678 343.951691,463.592010 339.312714,469.022858 
	C338.196716,470.329315 336.765717,471.631744 336.953705,474.651520 
	C344.529816,469.677582 350.475403,463.904083 355.233765,456.893646 
	C355.627991,456.312866 354.985260,455.028290 354.719086,453.518494 
M355.474030,484.110626 
	C352.523193,487.258026 348.493347,489.375275 345.488647,494.340057 
	C353.001434,492.754486 358.790131,490.397339 364.176422,486.347443 
	C362.611877,484.463013 361.183746,482.742889 359.576691,480.807251 
	C358.257141,481.851959 357.114044,482.756958 355.474030,484.110626 
M424.333405,530.835571 
	C421.703766,531.563843 418.601562,532.406250 419.761261,535.908508 
	C420.849365,539.194580 423.929932,539.053345 426.918396,538.319153 
	C431.429169,537.210815 431.418365,533.386658 432.494232,530.096863 
	C429.641876,528.375427 427.424866,530.335266 424.333405,530.835571 
M133.931076,373.426514 
	C143.316360,378.211731 152.133255,383.946167 160.953506,389.646484 
	C146.396072,376.186890 128.544861,369.156647 109.924355,363.639801 
	C117.697739,366.799133 125.471123,369.958435 133.931076,373.426514 
M245.839325,431.862579 
	C245.468765,430.651642 245.419189,429.278137 244.180328,428.495453 
	C238.702225,433.225555 238.702362,433.257080 244.374817,442.455780 
	C244.974197,438.998932 247.812073,436.209808 245.839325,431.862579 
M378.148102,537.454529 
	C375.159363,537.764099 372.170654,538.073730 368.706268,538.432617 
	C377.247223,541.596130 382.904816,541.466919 385.121613,538.149231 
	C383.142303,536.962891 380.924500,538.106812 378.148102,537.454529 
M408.888489,498.440674 
	C411.115814,496.590607 414.552490,495.072113 411.310455,491.800690 
	C407.964050,495.024658 404.777985,498.094177 401.311920,501.433441 
	C404.036194,501.067322 406.458466,500.832520 408.888489,498.440674 
M346.083984,452.545013 
	C348.543579,449.755096 352.379242,447.743713 351.809143,443.201599 
	C347.143280,447.742981 343.780884,453.211487 339.705597,458.188263 
	C341.657654,456.468567 343.609680,454.748840 346.083984,452.545013 
M392.576874,517.290100 
	C392.419220,519.965698 394.358124,518.676025 395.195190,518.425903 
	C398.506378,517.436462 401.739685,516.186462 405.007324,515.031189 
	C400.258545,511.668121 396.438629,513.287292 392.576874,517.290100 
M402.844208,540.981628 
	C405.082275,540.873413 407.380402,541.126587 410.397095,539.849060 
	C406.103668,538.415100 403.360870,534.636108 398.933533,536.997742 
	C399.049622,539.280884 399.751129,540.776855 402.844208,540.981628 
M357.176941,473.087952 
	C354.823669,475.654602 352.470398,478.221252 350.117096,480.787903 
	C354.368134,479.242737 358.522430,477.872131 361.097229,474.112274 
	C359.989532,473.112854 358.891266,472.875641 357.176941,473.087952 
z"/>
<path fill="#000000" opacity="1.000000" stroke="none" 
	d="
M421.865295,314.645691 
	C416.537689,340.283752 411.412476,365.542694 401.193115,389.382751 
	C399.291931,393.817841 396.994507,398.079071 394.151794,402.005157 
	C393.120911,403.428864 392.333984,405.309631 389.952606,404.942444 
	C388.096985,403.636169 388.955811,401.973541 389.488617,400.481750 
	C404.210876,359.260956 412.307159,316.137695 425.662048,274.531036 
	C430.548737,259.306610 436.504700,244.478531 444.548920,230.585800 
	C445.501434,228.940811 445.985504,226.780823 450.084351,225.820633 
	C434.894684,254.227478 427.882080,284.066406 421.865295,314.645691 
z"/>
<path fill="#000000" opacity="1.000000" stroke="none" 
	d="
M403.497070,406.212219 
	C402.696289,407.049469 402.139618,407.699219 399.859772,407.051514 
	C405.987488,395.582611 412.274414,384.451141 416.437317,372.309509 
	C417.201782,372.652100 417.966248,372.994690 418.730713,373.337280 
	C415.134827,384.800507 410.470917,395.815247 403.497070,406.212219 
z"/>
<path fill="#000000" opacity="1.000000" stroke="none" 
	d="
M284.687866,267.160706 
	C281.082306,256.163422 277.208282,245.651398 275.677307,234.418930 
	C280.980988,245.730927 285.537750,257.288055 288.454498,269.546051 
	C285.730408,270.147461 285.410217,268.660217 284.687866,267.160706 
z"/>
<path fill="#000000" opacity="1.000000" stroke="none" 
	d="
M326.117950,379.299530 
	C327.277679,374.831787 326.665131,370.264526 329.988831,366.863678 
	C330.925751,374.656860 328.710083,381.837708 326.210541,389.005341 
	C324.315765,385.859131 326.065887,382.789398 326.117950,379.299530 
z"/>
<path fill="#000000" opacity="1.000000" stroke="none" 
	d="
M276.372650,371.197998 
	C275.996399,367.091492 274.222748,363.377319 276.262848,359.593384 
	C279.600006,364.568665 279.485443,370.044769 279.056305,376.005676 
	C276.425476,375.182281 276.895081,373.137787 276.372650,371.197998 
z"/>
<path fill="#000000" opacity="1.000000" stroke="none" 
	d="
M492.873779,409.886963 
	C485.632843,416.048676 478.714966,422.048401 471.630829,427.844910 
	C467.760803,431.011475 463.503265,433.679932 458.871216,435.630981 
	C457.023804,436.409119 454.737335,438.369873 453.175354,435.656372 
	C451.840912,433.338226 454.287659,432.070526 455.736450,430.896790 
	C466.083496,422.514496 477.212341,415.160034 487.205444,406.284088 
	C506.834717,388.849152 523.792969,368.971558 540.672974,348.994934 
	C541.975037,347.454010 542.795715,345.111084 547.263977,345.239716 
	C530.240662,368.533691 512.916809,390.089569 492.873779,409.886963 
z"/>
<path fill="#000000" opacity="1.000000" stroke="none" 
	d="
M677.543579,549.475281 
	C668.341614,543.845337 658.764832,539.810974 648.512146,536.287842 
	C656.603516,528.975098 698.828430,551.259583 702.001648,563.503906 
	C699.885620,565.485229 698.409973,563.595947 696.870117,562.558655 
	C690.518921,558.280090 684.197937,553.956421 677.543579,549.475281 
z"/>
<path fill="#000000" opacity="1.000000" stroke="none" 
	d="
M528.512146,530.182861 
	C510.290283,529.789124 492.514221,529.318604 475.343719,535.251282 
	C474.643280,535.493347 473.786285,535.282288 472.752502,535.282288 
	C478.187531,526.902100 524.761292,518.873962 532.625854,528.278381 
	C531.997375,530.039917 530.391418,529.937378 528.512146,530.182861 
z"/>
<path fill="#000000" opacity="1.000000" stroke="none" 
	d="
M476.047180,442.128784 
	C470.073151,445.884644 464.361328,449.331421 457.518433,450.177032 
	C456.601379,446.729065 458.578156,446.047852 460.154663,445.323364 
	C471.563019,440.080505 482.375000,433.975006 491.035889,424.631592 
	C491.703156,423.911743 492.578247,423.285034 494.564484,424.651611 
	C490.145782,432.182037 483.027283,436.844757 476.047180,442.128784 
z"/>
<path fill="#000000" opacity="1.000000" stroke="none" 
	d="
M471.109772,460.294983 
	C466.837677,462.367615 462.622192,463.309845 458.372437,464.086823 
	C457.114349,464.316803 455.506165,464.611084 454.942261,462.960785 
	C454.268646,460.989563 455.854614,460.267242 457.294983,459.843201 
	C465.604462,457.396942 473.807739,454.737061 481.012115,449.700378 
	C482.023132,448.993622 483.274811,448.731873 484.092072,449.988464 
	C485.018524,451.412994 484.229858,452.528076 483.062378,453.377411 
	C479.425446,456.023254 475.635773,458.415436 471.109772,460.294983 
z"/>
</svg>