<svg width="650" height="650" viewBox="0 0 650 650" fill="none" xmlns="http://www.w3.org/2000/svg">
<circle cx="325" cy="325" r="325" fill="#FFFBF7"/>
<path d="M302.44 537.509C301.791 535.522 300.25 534.344 298.987 532.998C294.065 527.754 288.286 523.488 282.79 518.904C275.928 513.182 270.724 506.366 268.129 497.705C267.922 497.013 267.549 496.372 267.32 495.684C266.444 493.05 265.172 493.531 262.856 494.348C255.623 496.901 251.559 503.146 246.155 507.81C242.286 511.149 237.83 513.277 232.949 514.478C224.559 516.542 217.018 519.832 212.299 527.641C211.796 528.473 211.041 529.106 209.964 528.682C208.968 528.29 208.536 527.488 208.795 526.429C210.812 518.166 210.266 509.501 212.919 501.316C215.632 492.942 219.596 485.464 226.448 479.725C230.67 476.189 235.607 474.198 240.94 472.915C236.398 466.695 231.272 466.983 225.494 469.582C220.175 471.975 216.154 476.038 212.173 480.165C205.63 486.946 198.587 492.966 189.16 495.47C180.588 497.747 172.919 496.496 166.445 490.13C162.797 486.542 158.588 484.326 153.533 483.163C145.83 481.392 143.035 475.847 145.562 468.28C147.75 461.726 152.378 457.254 158.228 453.902C158.767 453.593 159.38 453.402 159.889 453.055C161.324 452.078 164.213 451.827 163.413 449.512C162.636 447.262 159.932 447.088 157.719 447.435C153.402 448.113 149.392 449.908 145.234 451.171C139.849 452.807 134.512 454.133 128.766 453C122.622 451.788 117.972 448.753 115.426 442.987C113.556 438.752 111.161 434.942 108.043 431.532C105.952 429.245 104.792 426.456 104.657 423.344C104.457 418.731 102.795 414.895 99.1071 412.01C98.2102 411.309 97.3664 410.527 96.5662 409.715C90.4958 403.556 90.0536 397.082 95.2397 390.166C96.672 388.256 98.2508 386.453 99.6362 384.511C103.264 379.426 103.238 374.966 99.614 369.846C97.5594 366.943 94.8729 364.62 92.345 362.168C82.4019 352.525 85.3797 340.507 92.8151 332.443C100.234 324.398 110.039 321.65 120.547 320.947C129.806 320.327 138.884 321.777 147.944 323.752C142.101 321.093 136.238 318.524 131.382 314.237C121.809 305.787 112.253 297.291 103.613 287.883C97.2434 280.947 94.4921 272.748 97.07 263.184C98.8855 256.448 100.006 249.6 98.4127 242.598C97.2901 237.665 94.9176 233.306 92.4631 228.954C89.6636 223.99 86.6554 219.098 87.1512 212.971C87.3221 210.859 87.794 208.885 88.4717 206.924C90.8302 200.098 94.04 193.733 98.6134 188.102C102.119 183.786 106.445 180.726 111.849 179.27C113.149 178.919 114.435 178.518 115.723 178.122C121.292 176.411 123.144 173.983 123.297 168.196C123.316 167.469 123.302 166.741 123.305 166.014C123.334 158.938 127.737 154.922 134.87 155.529C137.135 155.721 139.393 156.017 141.644 156.338C147.864 157.224 153.764 155.26 159.783 154.355C169.912 152.831 176.717 156.127 181.838 165.011C182.197 165.633 182.59 166.236 183.248 167.304C184.764 161.634 186.037 156.351 188.045 151.301C189.428 147.824 190.919 144.418 192.837 141.184C196.751 134.582 202.605 131.259 210.107 131.504C216.974 131.729 222.625 129.318 227.843 125.212C230.939 122.776 233.923 120.192 237.311 118.133C246.372 112.626 256.238 111.897 266.145 114.305C274.909 116.435 283.477 116.226 292.31 115.377C306.854 113.98 320.594 116.033 332.204 126.225C340.72 133.701 351.244 136.407 362.243 137.621C372.821 138.79 383.587 138.315 393.961 141.296C398.769 142.679 403.407 144.444 407.616 147.184C418.071 153.99 422.118 163.557 419.778 175.794C417.768 186.305 418.901 195.334 423.711 205.927C424.784 204.337 425.674 202.902 426.677 201.552C431.773 194.696 438.449 190.593 447.075 189.985C450.621 189.736 453.807 190.95 455.973 193.625C460.933 199.75 467.254 203.912 474.13 207.476C484.237 212.713 491.294 221.35 498.692 229.665C506.476 238.413 513.129 247.753 517.954 258.529C522.44 268.55 530.735 275.514 539.156 282.197C545.729 287.412 552.832 292.05 557.89 298.95C564.964 308.601 565.971 317.912 558.837 327.286C555.171 332.103 553.739 337.073 555.396 343.271C557.375 350.673 554.283 356.602 548.197 361.121C542.968 365.004 537.213 367.798 531.09 369.86C521.466 373.1 511.807 376.236 502.168 379.429C501.199 379.75 500.258 380.157 499.289 380.817C503.468 381.681 507.681 382.193 511.767 383.295C526.783 387.344 539.241 394.952 546.712 409.149C549.558 414.555 551.024 420.391 549.685 426.592C548.917 430.149 547.021 433.075 544.478 435.64C541.122 439.027 539.38 442.915 539.619 447.921C540.033 456.6 537.537 464.076 529.607 468.981C526.638 470.818 524.697 473.828 523.387 477.014C514.182 499.392 489.305 506.508 472.948 505.191C465.229 504.569 458.835 500.658 452.962 495.853C448.854 492.493 445.312 488.559 441.872 484.6C441.539 484.737 441.23 484.776 441.199 484.89C439.397 491.571 435.036 495.927 428.982 498.986C424.938 501.029 422.512 504.706 420.595 508.73C418.85 512.395 416.961 515.96 413.788 518.671C408.036 523.586 401.43 523.955 394.759 521.625C381.983 517.164 370.007 510.962 358.726 503.479C351.715 498.828 344.131 495.755 335.926 493.959C327.972 492.219 320.199 489.928 314.672 483.258C314.106 482.574 313.493 482.167 312.524 482.639C305.549 486.037 297.937 485.128 290.566 485.85C290.056 485.9 289.541 485.903 288.196 485.968C289.703 487.046 290.64 487.755 291.614 488.409C301.876 495.301 306.876 505.115 307.292 517.305C307.514 523.843 307.306 530.395 307.217 537.225C305.667 537.509 304.192 537.509 302.44 537.509ZM325.451 363.735C324.863 363.926 324.288 364.21 323.686 364.292C319.332 364.881 319.343 364.866 319.755 369.443C319.96 371.729 319.102 373.42 316.685 373.664C315.096 373.825 314.391 374.764 313.571 375.884C312.188 377.771 312.339 379.925 312.063 382.062C313.977 382.339 315.42 381.443 316.89 380.731C337.378 370.815 354.074 356.287 367.94 338.375C376.824 326.9 380.562 314.099 378.038 299.532C375.764 286.404 379.407 275.89 392.336 269.985C393.833 269.301 395.159 268.244 396.577 267.381C403.471 263.185 409.519 258.013 414.448 251.6C420.095 244.253 423.904 236.181 423.281 226.635C422.864 220.264 421.056 214.173 418.582 208.324C413.721 196.835 412.005 185.212 414.957 172.798C416.747 165.271 414.072 158.372 408.428 152.969C400.089 144.986 389.511 143.494 378.284 142.654C378.908 147.061 378.63 151.089 378.725 155.114C378.818 159.059 378.712 163.028 379.117 166.943C380.827 183.489 377.733 199.165 370.939 214.211C370.585 214.995 370.413 216.075 369.162 216.041C368.798 214.228 368.78 214.222 369.414 212.576C374.865 198.412 375.816 183.795 374.388 168.794C373.606 160.58 371.458 152.416 372.793 144.052C372.953 143.05 372.487 142.455 371.451 142.382C370.516 142.315 369.841 142.612 369.644 143.649C369.237 145.791 368.996 147.942 368.832 150.121C368.684 152.078 369.408 154.15 368.534 156.027C367.339 155.955 367.383 155.233 367.292 154.653C366.861 151.891 366.324 149.137 366.072 146.358C365.81 143.46 364.922 141.972 361.518 142.047C356.992 142.147 352.439 141.639 347.941 140.811C340.079 139.364 333.808 135.064 328.025 129.882C321.974 124.461 315.031 121.062 306.918 120.154C305.449 119.989 303.976 119.538 303.596 121.734C302.412 128.568 300.874 135.337 300.469 142.302C299.638 156.562 301.886 170.413 305.698 184.077C309.839 198.917 311.723 213.932 309.239 229.292C309.083 230.253 309.329 231.486 307.727 231.501C306.574 230.596 307.083 229.424 307.209 228.349C307.877 222.653 307.758 216.946 307.33 211.252C306.533 200.65 303.843 190.412 301.039 180.219C296.498 163.717 295.214 146.97 296.998 129.98C297.338 126.744 298.095 123.552 298.657 120.36C293.626 119.201 292.243 119.735 291.862 123.085C291.147 129.368 290.396 135.64 290.302 141.991C290.02 160.982 293.618 179.524 296.48 198.157C298.401 210.661 300.128 223.189 300.44 235.862C300.742 248.138 299.644 260.326 297.988 272.47C296.026 286.863 293.059 301.068 289.888 315.233C289.695 316.095 289.64 317.156 288.339 317.087C287.476 316.39 287.804 315.575 287.972 314.771C291.911 296.005 295.418 277.182 296.604 257.985C297.432 244.578 297.296 231.213 295.541 217.903C293.576 203.003 289.949 188.403 287.283 173.629C285.014 161.058 283.605 148.414 284.432 135.571C284.752 130.609 285.814 125.793 286.697 120.48C282.153 120.77 277.923 121.518 273.748 120.511C269.526 119.492 265.358 118.106 261.079 117.494C250.725 116.014 241.656 119.245 233.651 125.816C228.842 129.763 224.153 133.922 217.936 135.614C216.697 135.952 216.301 136.851 216.583 138.019C218.094 144.278 217.426 150.567 217.179 156.902C216.575 172.388 217.141 187.813 221.306 202.897C221.547 203.771 222.094 204.898 220.906 205.801C219.454 205.351 219.386 204.017 219.053 202.884C214.995 189.063 213.189 174.934 212.868 160.543C212.713 153.622 212.944 146.625 211.253 139.805C210.942 138.55 211.143 136.853 209.279 136.727C206.606 136.546 204.047 137.185 202.09 139.065C200.764 140.338 202.362 141.517 202.76 142.702C203.122 143.78 203.651 144.8 204.053 145.866C206.31 151.861 207.231 158.076 207.145 164.47C206.977 177.035 207.13 189.581 209.287 202.017C212.25 219.1 218.144 235.265 224.722 251.197C231.495 267.602 238.605 283.872 244.204 300.738C244.677 302.164 245.656 303.627 244.971 305.362C243.77 304.992 243.634 304.107 243.364 303.367C237.126 286.272 229.071 269.972 221.607 253.413C215.204 239.207 209.758 224.666 205.634 209.603C201.691 195.198 201.787 180.47 201.342 165.768C201.124 158.59 200.01 151.621 197.525 144.135C196.451 146.117 195.596 147.493 194.931 148.956C191.834 155.771 189.891 163.027 187.117 169.946C184.565 176.311 186.441 182.666 185.983 189C185.847 190.887 186.32 192.661 186.812 194.489C190.74 209.09 197.218 222.7 202.91 236.62C207.034 246.705 211.074 256.881 211.587 267.948C212.018 277.256 215.65 284.927 222.217 291.4C225.836 294.968 229.122 298.879 232.793 302.39C243.208 312.35 247.44 324.404 245.868 338.719C245.412 342.872 245.798 347.117 245.798 351.539C246.47 351.237 246.773 351.16 247.006 350.987C249.593 349.075 252.357 348.596 255.095 350.449C257.751 352.245 257.931 354.944 257.538 357.938C257.235 360.239 257.799 362.197 260.952 362.173C263.416 362.154 265.372 363.441 266.039 365.981C266.703 368.503 266.038 370.691 263.924 372.366C263.21 372.931 262.1 372.913 261.662 373.936C262.637 380.048 263.614 386.175 264.692 392.94C267.602 387.758 268.509 382.765 268.924 377.698C269.2 374.326 270.186 370.857 267.217 367.804C265.797 366.344 266.384 364.109 267.573 362.286C269.866 358.773 269.736 358.413 265.972 356.732C263.046 355.425 261.202 352.359 261.63 349.513C262.085 346.475 264.377 343.949 267.134 343.446C270.467 342.836 273.463 344.326 274.879 347.295C276.227 350.122 275.573 353.277 273.173 355.533C270.716 357.841 270.807 358.904 273.825 360.012C276.246 360.901 277.708 362.482 277.903 364.974C278.097 367.453 276.976 369.438 274.705 370.564C273.499 371.162 273.076 372.029 273.124 373.3C273.292 377.845 272.919 382.359 272.311 386.904C274.637 383.983 276.593 380.919 277.536 377.285C275.618 376.188 274.017 375.089 274.684 372.793C275.249 370.849 276.772 370.369 278.623 370.641C279.168 370.722 279.631 370.614 280.031 370.202C281.953 368.222 281.399 362.997 279.08 361.321C276.534 359.481 275.934 356.492 277.596 353.924C279.178 351.479 282.531 350.805 285.013 352.433C287.476 354.049 288.075 357.148 286.395 359.842C285.8 360.796 284.858 361.549 284.903 362.833C285.099 368.339 283.834 373.635 282.521 378.95C283.945 377.123 285.216 375.244 286.492 373.369C286.957 372.685 287.375 372.115 286.973 371.122C284.562 365.159 285.208 364.101 291.556 363.237C291.828 363.2 292.073 362.967 292.332 362.824C288.516 356.272 288.36 353.676 291.602 351.248C294.657 348.961 297.813 349.623 301.644 353.356C301.745 353.344 301.857 353.356 301.945 353.315C306.491 351.221 309.959 352.009 311.524 355.495C313.233 359.3 311.606 362.416 306.87 364.241C305.913 364.61 305.117 364.891 305.535 366.239C308.629 366.669 311.386 367.622 312.161 371.444C311.703 368.568 313.169 367.249 315.427 366.116C317.346 365.153 318.731 363.602 317.076 361.104C316.132 359.679 316.028 357.984 316.698 356.312C317.73 353.738 319.624 352.225 322.364 352.179C325.081 352.133 327.294 353.413 328.164 356.062C329.11 358.942 328.615 361.624 325.451 363.735ZM484.781 449.605C497.15 456.277 508.712 464.047 518.545 474.633C521.321 469.279 525.747 465.731 530.426 462.403C534.268 459.67 535.184 455.556 535.362 451.152C535.409 450.011 534.94 449.242 534.1 448.482C521.811 437.363 507.968 428.683 492.65 422.469C466.897 412.023 440.101 407.766 412.364 409.511C411.667 409.555 410.864 409.779 410.526 408.169C432.758 405.143 454.64 406.191 476.319 411.822C498.181 417.501 517.824 427.604 535.627 441.968C536.849 437.781 539.06 434.664 541.703 431.861C546.306 426.979 546.809 421.432 544.536 415.407C540.2 403.912 531.882 396.38 520.768 391.731C510.546 387.454 499.69 386.315 488.806 386.315C473.891 386.316 459.041 387.713 444.258 389.819C417.66 393.609 391.59 399.688 365.913 407.537C365.169 407.764 364.386 408.34 363.69 407.282C363.797 406.433 364.53 406.178 365.17 405.921C378.348 400.613 391.626 395.572 405.408 392.041C419.153 388.519 433.107 386.105 447.195 384.412C461.483 382.695 475.736 380.612 490.179 380.8C491.686 380.82 493.009 380.349 494.357 379.769C501.881 376.528 509.46 373.411 516.946 370.086C525.565 366.258 534.489 363.117 542.709 358.383C550.914 353.658 552.612 350.42 551.027 341.162C550.267 336.72 550.466 332.48 552.869 328.533C553.841 326.937 554.75 325.296 555.817 323.766C562.902 313.611 556.633 302.477 549.29 297.341C544.497 302.305 539.447 307.05 533.677 310.975C525.283 316.684 517.911 320.429 515.57 319.968C516.04 318.589 517.402 318.361 518.422 317.783C528.286 312.189 536.65 304.801 544.118 296.334C545.011 295.321 546.043 294.252 544.472 292.912C543.024 291.678 542.105 292.484 541.101 293.593C539.709 295.131 538.242 296.606 536.742 298.04C527.684 306.695 517.097 313.308 506.86 320.377C484.169 336.046 459.531 347.807 433.515 356.755C432.631 357.059 431.654 357.839 429.985 356.422C470.759 341.146 506.739 318.841 537.639 288.478C537.248 287.391 536.15 286.923 535.243 286.267C525.352 279.114 517.592 270.345 513.45 258.583C509.558 247.536 502.25 238.789 493.946 230.783C492.733 229.613 491.847 229.493 490.559 230.71C487.234 233.853 483.474 236.457 479.782 239.146C465.535 249.523 452.009 260.62 443.083 276.281C442.791 276.794 442.483 277.407 440.787 277.162C452.58 256.03 471.564 241.967 487.514 225.178C484.269 221.278 484.062 221.253 479.965 224.17C474.452 228.093 469.319 232.445 464.759 237.464C464.134 238.152 463.597 239.355 461.904 238.192C467.062 230.882 473.617 224.905 479.781 218.778C479.145 217.303 478.071 216.781 477.204 216.075C469.261 209.594 460.182 204.549 453.263 196.753C451.466 194.728 448.808 194.317 446.054 195.121C438.003 197.47 431.996 202.414 427.493 209.401C426.058 211.629 425.659 213.757 426.383 216.407C428.843 225.408 428.205 234.272 424.539 242.879C420.051 253.417 412.538 261.45 403.55 268.257C402.407 269.122 401.167 269.828 400.567 271.319C398.875 275.523 397.709 279.851 398.333 284.374C399.346 291.722 397.551 298.356 393.906 304.641C390.876 309.864 387.168 314.618 383.708 319.543C379.107 326.092 375.811 333.449 371.08 339.916C362.327 351.881 351.653 362.055 341.039 372.287C339.867 373.416 338.29 374.147 337.503 375.892C339.158 376.927 341.074 377.713 341.62 379.834C341.913 380.976 342.849 381.392 343.74 381.948C347.525 384.306 347.475 388.94 343.654 391.314C342.745 391.879 341.758 392.318 340.597 392.924C341.931 393.803 343.139 394.438 343.349 395.776C343.541 396.996 344.177 397.472 345.277 397.861C347.98 398.817 349.286 400.874 348.768 403.69C348.25 406.501 346.295 408.005 343.439 407.931C341.72 407.885 340.649 408.748 339.319 409.625C336.239 411.656 338.697 414.622 337.612 416.915C339.889 412.283 341.833 410.77 345.047 411.43C347.868 412.01 349.191 414.003 349.526 416.722C349.672 417.91 349.12 418.946 348.479 419.912C347.168 421.887 345.02 422.268 342.711 422.606C343.417 423.93 343.985 424.997 344.632 426.211C346.723 425.328 349.317 426.248 350.572 423.502C352.064 420.237 354.548 419.604 357.63 421.465C360.463 423.176 365.233 420.885 365.439 417.651C365.62 414.831 366.918 412.821 369.632 412.144C372.227 411.496 374.613 412.107 376.119 414.606C377.587 417.041 377.355 419.417 375.476 421.497C373.491 423.694 371.075 423.972 368.402 422.743C365.262 421.299 360.257 423.618 358.831 426.677C357.951 428.562 357.747 430.115 358.319 432.111C358.882 434.074 358.376 436.075 356.457 437.325C355.11 438.203 353.718 438.159 352.373 437.265C349.552 435.389 347.218 435.486 344.58 437.805C343.386 438.854 342.184 439.301 340.617 438.994C335.437 437.978 330.694 440.372 325.678 440.735C331.049 441.746 336.424 441.885 341.792 442.172C343.916 442.286 345.671 442.459 347.337 440.575C348.618 439.127 350.615 439.426 352.118 440.766C353.636 442.121 353.8 443.8 352.836 445.562C351.795 447.465 349.591 448.07 348.318 447.063C345.333 444.701 342.26 445.764 339.112 446.029C341.221 446.069 343.013 447.144 345 447.621C354.374 449.868 363.508 448.449 372.606 446.048C388.776 441.783 404.487 442.985 419.447 450.6C428.95 455.436 436.815 462.222 440.08 472.796C441.274 476.662 443.162 479.718 445.812 482.519C448.668 485.539 451.625 488.459 454.889 491.036C459.62 494.77 464.379 498.498 470.449 499.862C482.72 502.619 505.123 496.712 514.473 481.879C514.902 481.199 515.563 480.577 515.126 479.849C495.844 454.811 467.551 444.866 439.605 434.223C454.959 438.099 470.1 442.448 484.781 449.605ZM204.618 275.059C202.576 271.208 200.417 267.414 198.511 263.496C188.268 242.44 182.594 220.208 181.091 196.82C180.646 189.884 181.15 182.901 179.953 176.008C177.374 161.15 167.773 155.578 152.659 160.989C155.744 167.539 156.848 174.626 157.852 181.671C160.161 197.86 164.032 213.612 169.903 228.874C170.323 229.965 171.24 231.029 170.597 232.379C169.188 232.317 169.028 231.111 168.615 230.242C164.058 220.663 160.332 210.774 157.533 200.533C154.204 188.352 152.679 175.696 147.716 163.932C146.642 161.385 145.473 160.454 142.804 161.495C142.887 164.931 145.275 167.842 145.104 171.409C142.62 168.427 140.414 165.336 138.475 162.086C137.498 160.449 136.398 159.761 134.498 159.814C129.845 159.942 127.513 162.275 127.502 167.407C127.494 171.3 127.59 175.149 124.523 178.15C122.386 180.241 119.686 181.292 116.938 182.281C114.548 183.141 111.935 183.51 109.862 185.186C113.299 192.101 110.909 200.395 116.408 206.78C114.209 207.037 113.926 205.855 113.353 205.076C110.573 201.299 109.422 196.887 108.469 192.4C108.084 190.587 107.605 188.83 106.043 187.705C103.996 188.591 103.955 189.844 104.632 191.582C105.912 194.864 107.158 198.179 108.11 201.567C113.087 219.277 119.738 236.202 130.756 251.14C131.305 251.885 132.302 252.621 131.671 253.852C130.102 254.097 129.785 252.734 129.135 251.92C118.441 238.516 111.178 223.332 105.925 207.09C104.478 202.615 102.952 198.147 100.64 193.427C97.3732 197.819 95.5556 202.34 93.5243 206.729C90.8924 212.417 90.9875 217.971 94.5761 223.298C95.6776 224.933 96.7257 226.609 97.7153 228.315C103.742 238.701 107.006 249.89 104.199 261.727C101.727 272.155 105.257 279.953 112.111 287.095C116.575 291.747 121.696 295.69 126.261 300.217C137.202 311.07 149.742 319.093 164.458 323.977C176.995 328.138 187.02 336.095 194.817 346.825C198.349 351.685 200.753 357.135 203.202 363.033C204.368 359.513 205.128 356.363 206.447 353.469C207.829 350.437 207.148 348.485 204.839 346.18C197.314 338.671 188.67 332.522 180.625 325.651C162.436 310.116 147.071 292.329 136.697 270.551C136.114 269.327 135.039 268.157 135.553 266.551C137.084 266.517 137.287 267.759 137.7 268.581C149.324 291.717 166.77 309.569 187.787 324.224C195.917 329.894 204.748 334.813 209.696 344.462C211.969 341.098 213.856 338.01 216.053 335.163C217.351 333.481 217.36 332.121 216.382 330.367C214.627 327.219 212.13 324.74 209.505 322.381C198.087 312.121 188.207 300.552 179.931 287.618C179.349 286.708 178.203 285.865 178.79 284.363C180.41 284.862 180.946 286.179 181.679 287.249C184.975 292.058 188.864 296.374 192.631 300.802C201.321 311.017 214.215 316.723 221.593 328.417C224.302 326.836 226.483 324.781 229.38 324.142C230.341 323.93 231.482 323.444 232.252 324.522C232.904 325.433 232.341 326.316 231.901 327.138C231.018 328.784 230.252 330.518 229.184 332.036C223.686 339.856 220.346 348.426 219.839 358.037C219.59 362.763 219.295 367.487 219.009 372.414C219.781 372.292 220.203 372.305 220.557 372.156C223.525 370.908 226.315 371.081 228.532 373.556C230.603 375.869 230.415 378.477 228.863 381.049C228.404 381.811 228.246 382.58 228.767 383.386C231.973 388.345 235.614 392.911 240.414 396.456C235.762 387.963 231.566 379.335 229.503 369.826C229.178 368.325 228.233 367.741 226.828 367.211C223.017 365.774 221.611 361.766 223.458 358.249C225.054 355.209 229.256 354.115 232.354 356.125C233.673 356.981 234.762 357.266 236.352 356.906C238.511 356.417 240.228 357.558 241.028 359.615C241.786 361.563 241.246 363.275 239.491 364.543C238.939 364.942 238.015 364.91 237.908 365.89C238.242 367.32 238.711 368.496 240.472 368.966C244.274 369.98 245.276 371.849 244.25 375.655C243.999 376.584 243.624 377.458 244.18 378.336C246.07 381.315 247.771 384.436 250.379 387.266C250.386 384.039 249.616 381.413 248.398 378.825C246.766 375.358 245.176 371.87 244.026 368.18C241.119 358.855 240.137 349.322 240.381 339.597C240.479 335.66 240.54 331.714 240.088 327.775C239.077 318.954 234.333 312.086 228.583 305.816C219.871 296.314 211.378 286.659 204.618 275.059ZM182.411 381.559C167.839 373.849 152.412 371.317 135.996 374.781C136.07 374.248 136.144 373.715 136.218 373.182C155.07 368.38 173.239 369.956 190.556 379.895C182.888 370.56 172.788 365.151 161.793 361.055C175.779 363.74 188.168 369.589 198.642 379.488C201.792 372.991 201.661 366.892 197.212 361.75C179.159 340.888 157.061 327.163 129.064 324.667C119.303 323.797 109.753 325.26 101.268 330.624C94.7556 334.741 90.0944 340.264 90.1305 348.539C90.1559 354.361 93.78 358.262 97.578 362.046C108.262 372.689 108.887 377.538 101.285 390.448C96.077 399.293 96.206 400.375 103.327 407.57C103.765 408.013 104.187 408.474 104.645 408.896C107.972 411.966 109.588 415.766 109.401 420.289C109.254 423.828 110.491 426.801 112.905 429.306C115.527 432.027 117.495 435.127 119.057 438.587C122.697 446.652 128.337 449.299 137.179 447.816C142.933 446.852 148.335 444.632 154.03 443.539C157.733 442.828 161.474 442.567 164.923 444.571C167.223 445.908 168.581 447.904 168.534 450.678C168.49 453.31 166.901 454.804 164.733 455.902C162.791 456.885 160.793 457.79 158.965 458.958C155.149 461.397 151.829 464.36 150.254 468.798C148.567 473.554 149.903 476.549 154.695 477.412C161.189 478.582 166.462 481.604 171.192 486.094C174.978 489.688 179.546 491.069 184.933 490.188C194.605 488.607 202.363 483.767 208.904 476.778C215.057 470.203 221.231 463.79 231.375 463.084C227.859 458.15 224.315 453.791 221.711 448.852C219.984 445.574 217.19 443.73 213.907 443.292C204.693 442.063 195.379 440.581 186.409 444.733C185.884 444.976 185.275 445.394 184.525 444.152C193.896 438.106 204.488 438.764 215.243 438.468C214.155 434.243 211.875 430.87 210.151 427.268C209.581 426.076 209.278 424.59 208.01 423.905C200.643 419.922 193.73 415.036 185.405 412.988C173.759 410.122 162.014 408.653 150.01 409.652C148.519 409.775 146.789 410.488 145.294 408.901C145.782 408.584 146.087 408.304 146.446 408.165C148.13 407.512 149.93 407.736 151.672 407.516C168.346 405.414 184.771 405.581 200.434 412.814C201.195 413.166 202.033 413.535 202.788 412.949C203.617 412.307 203.199 411.419 202.951 410.646C201.431 405.908 199.832 401.194 199.143 396.232C199.064 395.667 198.656 395.085 198.259 394.638C193.76 389.573 189.049 384.756 182.411 381.559ZM224.603 443.46C229.904 452.828 235.211 462.191 243.927 469.832C236.495 457.298 230.523 438.994 232.203 433.305C233.476 437.133 234.529 440.554 235.746 443.915C241.103 458.707 249.766 470.025 265.338 475.727C274.109 478.938 281.384 478.188 288.714 473.08C289.47 472.553 290.188 471.441 291.537 472.44C290.004 476.049 286.624 477.821 283.194 480.551C290.579 480.596 297.286 481.232 303.838 479.294C308.271 477.983 310.052 475.385 310.058 470.803C310.062 467.551 309.287 464.431 308.508 461.315C305.896 450.862 301.17 441.261 296.509 431.64C292.063 422.463 288.91 412.8 285.615 403.182C284.329 399.427 282.012 398.329 278.072 399.187C274.248 400.02 270.897 401.833 268.032 404.493C262.345 409.773 255.813 413.241 248.103 414.643C231.181 417.72 214.006 404.151 213.611 387.044C213.344 375.503 215.106 364.094 216.439 352.67C217.244 345.774 219.793 339.404 223.06 333.289C221.043 335.567 218.947 337.701 217.273 340.224C211.245 349.309 208.444 359.62 205.86 370.01C202.287 384.372 203.26 398.325 209.244 411.993C213.871 422.565 219.146 432.796 224.603 443.46ZM335.711 487.314C345.072 488.832 353.625 492.321 361.413 497.754C367.88 502.266 374.369 506.75 380.934 511.118C385.951 514.456 391.153 517.492 397.105 518.912C405.289 520.863 409.522 519.058 413.744 511.79C414.629 510.267 415.387 508.668 416.178 507.091C418.301 502.859 420.815 498.942 425.036 496.494C426.763 495.492 426.592 494.315 425.729 492.862C422.798 487.922 419.437 483.339 415.061 479.558C414.278 478.881 412.978 478.529 413.164 476.521C420.559 480.532 426.044 486.164 430.55 492.87C431.844 491.706 431.336 490.83 430.886 490.04C419.17 469.485 399.598 461.952 376.931 458.244C380.878 456.041 384.111 457.303 387.117 457.626C408.066 459.874 422.185 472.999 434.863 488.302C435.932 487.515 436.17 486.379 436.496 485.299C438.897 477.348 436.026 470.696 430.855 465.018C420.684 453.851 407.685 448.627 392.761 447.919C384.586 447.532 376.677 449.317 368.851 451.294C358.253 453.973 347.777 453.965 337.237 451.084C332.349 449.748 327.415 448.479 322.424 447.662C318.234 446.977 313.918 445.787 309.371 447.597C311.019 451.116 311.237 455.124 316.419 455.655C322.477 456.276 328.457 457.664 334.469 458.73C335.311 458.88 336.408 458.674 336.578 460.326C329.174 460.297 321.933 458.225 314.536 458.683C314.57 461.806 315.993 463.127 318.557 463.793C324.315 465.288 330.226 465.546 336.084 466.133C356.276 468.157 374.81 474.785 391.786 485.852C392.715 486.457 394.179 486.841 393.817 489.537C370.3 474.403 344.562 468.538 317.179 468.928C317.179 470.39 317.625 472.386 317.085 474.063C315.992 477.46 317.607 479.352 320.01 481.129C324.552 484.486 329.862 485.873 335.711 487.314ZM233.739 509.797C244.984 505.224 252.393 497.027 256.321 485.623C256.667 484.619 257.6 483.226 256.116 482.249C254.91 481.456 253.707 481.554 252.3 482.088C244.719 484.964 238.941 490.278 233.331 495.848C230.591 498.569 228.361 501.74 225.662 504.508C230.492 493.567 237.562 484.52 248.011 478.573C245.783 475.29 243.209 475.228 240.133 476.301C230.891 479.526 224.543 485.912 220.11 494.398C216.225 501.834 214.699 510.034 212.796 518.099C212.677 518.603 212.418 519.342 213.296 519.827C215.438 517.782 217.696 515.815 220.385 514.442C224.475 512.353 228.931 511.308 233.739 509.797ZM297.776 500.44C293.142 493.873 286.702 489.649 279.604 486.223C277.351 485.135 275.101 485.196 272.034 485.335C282.14 493.839 289.475 503.645 294.29 515.315C290.374 511.693 287.062 507.581 283.605 503.596C280.098 499.554 276.45 495.634 271.646 492.321C273.37 498.8 275.582 504.56 279.684 509.418C286.461 517.446 295.497 522.95 303.182 531.046C303.182 526.02 303.422 521.771 303.125 517.561C302.707 511.63 301.552 505.832 297.776 500.44ZM390.453 303.273C396.876 294.467 394.201 284.409 394.692 274.645C385.99 277.246 382.358 282.084 382.635 290.623C382.872 297.916 384.73 305.143 383.814 312.7C385.95 309.687 388.086 306.674 390.453 303.273ZM205.496 256.697C201.151 242.017 193.781 228.592 188.157 214.443C193.772 241.283 202.067 264.49 208.542 271.588C207.916 266.594 207.135 261.818 205.496 256.697ZM328.107 391.07C326.49 392.533 324.428 393.616 325.792 396.578C326.419 397.94 325.174 399.615 323.671 399.881C320.56 400.432 319.095 402.826 317.208 404.836C314.649 407.561 311.79 409.941 308.613 411.931C307.322 412.74 306.077 413.622 304.81 414.471C307.635 414.309 310.435 415.03 312.775 413.156C315.924 410.634 319.175 408.242 322.361 405.766C323.255 405.072 324.187 404.356 324.352 403.104C324.658 400.798 326.049 399.869 328.264 399.406C330.284 398.984 332.68 397.64 331.906 395.376C330.878 392.373 331.33 390.095 332.948 387.576C331.443 388.644 329.938 389.713 328.107 391.07ZM312.933 390.877C312.686 393.443 315.787 394.13 315.733 396.942C318.268 395.128 320.325 393.578 322.466 392.153C323.859 391.224 324.513 390.297 323.605 388.593C322.742 386.976 323.437 385.514 324.753 384.473C326.024 383.468 327.426 383.718 328.845 384.396C329.487 384.702 329.827 385.877 330.945 385.215C330.724 384.004 330.506 382.81 330.297 381.669C329.143 381.303 328.333 381.815 327.537 382.269C324.98 383.725 322.22 384.673 319.325 384.914C315.747 385.212 312.869 385.999 312.933 390.877ZM290.902 373.761C289.041 376.931 287.181 380.101 285.32 383.271C292.609 378.566 298.025 372.17 302.399 364.841C303.107 363.655 301.465 361.443 299.999 361.372C297.927 361.272 294.452 363.565 294.603 365.535C294.865 368.948 293.14 371.146 290.902 373.761ZM257.697 373.013C253.721 369.83 256.673 365.13 255.604 361.13C253.38 361.827 250.898 361.452 251.452 364.591C253.164 374.287 256.098 383.641 259.262 392.936C258.955 386.429 258.94 379.922 257.697 373.013ZM229.495 397.376C231.488 398.457 232.994 400.532 235.549 400.597C235.874 399.412 235.211 398.835 234.674 398.232C231.827 395.034 229.234 391.576 227.65 387.642C226.085 383.756 223.339 383.27 219.836 383.508C219.728 384.795 219.975 385.833 220.794 386.655C226.851 386.404 228.243 387.985 227.306 394.148C227.056 395.789 228.349 396.236 229.495 397.376ZM246.375 394.173C249.776 397.635 250.479 398.005 252.544 397.372C252.427 397.091 252.388 396.73 252.187 396.554C247.169 392.174 243.618 386.721 240.727 380.798C239.884 379.071 238.644 378.13 236.395 377.98C239.523 383.563 242.058 389.147 246.375 394.173ZM319.762 417.152C316.465 418.8 312.179 418.229 309.276 421.706C311.673 422.758 313.674 423.507 315.951 422.336C320.004 420.251 323.908 417.92 327.685 415.377C328.352 414.928 329.495 414.628 328.928 413.072C325.983 414.387 323.098 415.676 319.762 417.152ZM333.957 404.413C334.78 403.633 335.586 402.833 336.429 402.076C338.246 400.444 337.077 398.935 335.971 397.82C334.678 396.516 333.826 398.061 332.942 398.825C331.656 399.937 331.376 401.297 331.547 402.987C331.791 405.391 330.433 406.889 328.065 406.628C324.605 406.247 323.696 408.866 322.188 410.903C326.767 410.204 330.065 407.219 333.957 404.413ZM331.342 423.62C326.169 426.128 320.367 426.554 314.956 428.287C319.862 429.25 324.694 428.847 329.521 428.771C330.475 428.756 331.793 428.529 331.617 427.485C331.383 426.105 333.498 424.825 331.342 423.62ZM303.233 380.69C303.151 380.505 303.113 380.245 302.971 380.158C302.866 380.094 302.542 380.198 302.454 380.324C299.877 383.989 296.531 386.972 293.643 390.359C292.949 391.173 292.058 391.985 292.175 393.869C296.891 390.767 300.592 387.167 303.553 382.795C303.799 382.433 303.399 381.632 303.233 380.69ZM303.703 399.767C301.866 401.73 299.358 403.05 297.488 406.146C302.164 405.157 305.767 403.687 309.12 401.162C308.146 399.987 307.257 398.914 306.257 397.707C305.435 398.359 304.724 398.923 303.703 399.767ZM346.564 428.904C344.928 429.358 342.997 429.883 343.719 432.067C344.396 434.116 346.313 434.028 348.173 433.57C350.981 432.879 350.974 430.495 351.644 428.443C349.869 427.37 348.489 428.592 346.564 428.904ZM165.804 330.747C171.646 333.731 177.134 337.307 182.624 340.861C173.563 332.468 162.451 328.084 150.861 324.644C155.699 326.614 160.538 328.584 165.804 330.747ZM235.461 367.186C235.23 366.431 235.2 365.575 234.428 365.087C231.019 368.036 231.019 368.056 234.549 373.792C234.923 371.636 236.689 369.897 235.461 367.186ZM317.816 433.031C315.956 433.224 314.096 433.417 311.939 433.641C317.256 435.614 320.777 435.533 322.157 433.464C320.925 432.725 319.545 433.438 317.816 433.031ZM336.951 408.703C338.337 407.549 340.476 406.602 338.458 404.562C336.375 406.573 334.392 408.487 332.235 410.569C333.93 410.341 335.438 410.194 336.951 408.703ZM297.858 380.083C299.389 378.344 301.777 377.089 301.422 374.257C298.518 377.089 296.425 380.499 293.888 383.602C295.103 382.53 296.318 381.458 297.858 380.083ZM326.798 420.457C326.7 422.126 327.906 421.321 328.427 421.165C330.488 420.548 332.501 419.769 334.535 419.048C331.579 416.951 329.201 417.961 326.798 420.457ZM333.189 435.231C334.582 435.163 336.012 435.321 337.89 434.524C335.217 433.63 333.51 431.274 330.754 432.746C330.827 434.17 331.263 435.103 333.189 435.231ZM304.763 392.894C303.298 394.494 301.833 396.095 300.369 397.695C303.015 396.732 305.601 395.877 307.203 393.532C306.514 392.909 305.83 392.761 304.763 392.894Z" fill="#A9002D"/>
<path d="M345.028 294.092C341.712 310.08 338.522 325.83 332.161 340.697C330.977 343.462 329.547 346.119 327.778 348.568C327.136 349.456 326.646 350.628 325.164 350.399C324.009 349.585 324.544 348.548 324.875 347.618C334.039 321.913 339.079 295.023 347.392 269.077C350.433 259.584 354.141 250.337 359.148 241.674C359.741 240.648 360.042 239.301 362.593 238.703C353.138 256.417 348.773 275.024 345.028 294.092Z" fill="#A9002D"/>
<path d="M333.595 351.191C333.097 351.713 332.75 352.119 331.331 351.715C335.145 344.563 339.058 337.622 341.65 330.05C342.125 330.264 342.601 330.478 343.077 330.691C340.839 337.839 337.936 344.708 333.595 351.191Z" fill="#A9002D"/>
<path d="M259.642 264.482C257.398 257.624 254.987 251.069 254.034 244.064C257.335 251.118 260.171 258.325 261.987 265.969C260.291 266.344 260.092 265.417 259.642 264.482Z" fill="#A9002D"/>
<path d="M285.43 334.409C286.152 331.623 285.771 328.775 287.84 326.654C288.423 331.514 287.044 335.992 285.488 340.461C284.309 338.499 285.398 336.585 285.43 334.409Z" fill="#A9002D"/>
<path d="M254.466 329.357C254.232 326.796 253.128 324.48 254.398 322.121C256.475 325.223 256.404 328.638 256.137 332.355C254.499 331.842 254.792 330.567 254.466 329.357Z" fill="#A9002D"/>
<path d="M389.227 353.483C384.72 357.325 380.414 361.066 376.005 364.681C373.596 366.656 370.946 368.32 368.062 369.536C366.913 370.022 365.489 371.244 364.517 369.552C363.686 368.107 365.209 367.316 366.111 366.584C372.552 361.357 379.479 356.771 385.699 351.236C397.917 340.364 408.473 327.969 418.98 315.512C419.79 314.551 420.301 313.09 423.082 313.17C412.486 327.696 401.703 341.138 389.227 353.483Z" fill="#A9002D"/>
<path d="M504.175 440.527C498.447 437.017 492.486 434.501 486.104 432.304C491.141 427.744 517.424 441.64 519.399 449.275C518.082 450.511 517.163 449.333 516.205 448.686C512.251 446.018 508.317 443.322 504.175 440.527Z" fill="#A9002D"/>
<path d="M411.41 428.497C400.068 428.251 389.004 427.958 378.316 431.657C377.88 431.808 377.346 431.677 376.703 431.677C380.086 426.451 409.076 421.445 413.971 427.309C413.58 428.408 412.58 428.344 411.41 428.497Z" fill="#A9002D"/>
<path d="M378.754 373.588C375.035 375.93 371.48 378.079 367.221 378.607C366.65 376.457 367.88 376.032 368.861 375.58C375.963 372.311 382.692 368.503 388.083 362.677C388.499 362.228 389.043 361.837 390.28 362.69C387.529 367.385 383.098 370.293 378.754 373.588Z" fill="#A9002D"/>
<path d="M375.68 384.916C373.021 386.209 370.397 386.796 367.752 387.281C366.969 387.424 365.968 387.608 365.617 386.579C365.198 385.349 366.185 384.899 367.081 384.635C372.254 383.109 377.36 381.451 381.844 378.31C382.473 377.869 383.253 377.706 383.761 378.489C384.338 379.378 383.847 380.073 383.12 380.603C380.857 382.253 378.498 383.744 375.68 384.916Z" fill="#A9002D"/>
</svg>
