<svg width="650" height="650" viewBox="0 0 650 650" fill="none" xmlns="http://www.w3.org/2000/svg">
<circle cx="325" cy="325" r="325" fill="#FFDCDC"/>
<g clip-path="url(#clip0_515_2554)">
<path d="M301.001 545.623C300.352 543.636 298.812 542.459 297.548 541.113C292.626 535.869 286.847 531.602 281.351 527.018C274.49 521.296 269.285 514.48 266.691 505.82C266.483 505.127 266.11 504.486 265.882 503.798C265.005 501.164 263.733 501.645 261.417 502.463C254.184 505.015 250.121 511.26 244.717 515.924C240.848 519.263 236.391 521.392 231.51 522.592C223.12 524.656 215.58 527.946 210.861 535.755C210.358 536.587 209.603 537.221 208.525 536.796C207.529 536.404 207.098 535.602 207.356 534.543C209.373 526.281 208.827 517.616 211.48 509.43C214.194 501.056 218.157 493.579 225.01 487.84C229.232 484.304 234.168 482.313 239.501 481.029C234.959 474.809 229.833 475.097 224.055 477.696C218.736 480.089 214.715 484.152 210.734 488.279C204.191 495.061 197.149 501.081 187.721 503.585C179.15 505.861 171.48 504.61 165.007 498.244C161.358 494.656 157.15 492.441 152.094 491.278C144.392 489.506 141.597 483.962 144.123 476.394C146.311 469.84 150.939 465.368 156.789 462.016C157.328 461.707 157.941 461.516 158.451 461.169C159.885 460.192 162.774 459.942 161.975 457.627C161.197 455.376 158.493 455.202 156.28 455.549C151.964 456.227 147.953 458.022 143.796 459.285C138.411 460.922 133.073 462.247 127.327 461.114C121.183 459.903 116.533 456.867 113.987 451.101C112.117 446.866 109.722 443.056 106.605 439.646C104.514 437.359 103.354 434.571 103.218 431.458C103.018 426.845 101.357 423.01 97.6685 420.125C96.7716 419.423 95.9278 418.642 95.1276 417.83C89.0572 411.67 88.615 405.196 93.8011 398.28C95.2334 396.37 96.8122 394.567 98.1976 392.625C101.825 387.54 101.799 383.08 98.1754 377.96C96.1208 375.057 93.4343 372.734 90.9064 370.283C80.9633 360.64 83.9411 348.621 91.3765 340.558C98.795 332.512 108.601 329.764 119.109 329.061C128.367 328.441 137.446 329.891 146.505 331.866C140.663 329.207 134.799 326.638 129.943 322.351C120.37 313.901 110.814 305.405 102.175 295.998C95.8048 289.061 93.0535 280.863 95.6314 271.298C97.4469 264.562 98.5676 257.714 96.9741 250.712C95.8515 245.779 93.479 241.42 91.0245 237.068C88.225 232.105 85.2168 227.212 85.7126 221.085C85.8835 218.973 86.3554 216.999 87.0331 215.038C89.3916 208.212 92.6014 201.848 97.1748 196.216C100.68 191.9 105.006 188.841 110.41 187.384C111.71 187.034 112.997 186.632 114.284 186.237C119.854 184.526 121.706 182.098 121.858 176.311C121.877 175.584 121.863 174.856 121.866 174.128C121.895 167.052 126.299 163.036 133.431 163.643C135.696 163.836 137.955 164.131 140.206 164.452C146.425 165.338 152.325 163.374 158.345 162.469C168.473 160.946 175.278 164.242 180.399 173.125C180.758 173.748 181.151 174.35 181.81 175.419C183.326 169.749 184.599 164.465 186.607 159.416C187.989 155.939 189.481 152.533 191.398 149.298C195.312 142.696 201.167 139.373 208.668 139.619C215.536 139.843 221.187 137.432 226.404 133.326C229.5 130.89 232.484 128.306 235.872 126.247C244.933 120.741 254.799 120.012 264.706 122.419C273.47 124.549 282.039 124.34 290.872 123.492C305.415 122.095 319.156 124.148 330.765 134.339C339.281 141.815 349.805 144.521 360.804 145.736C371.383 146.904 382.148 146.429 392.522 149.411C397.331 150.793 401.968 152.559 406.177 155.299C416.632 162.104 420.679 171.671 418.339 183.908C416.329 194.419 417.463 203.448 422.272 214.042C423.346 212.451 424.235 211.016 425.239 209.666C430.335 202.81 437.011 198.707 445.637 198.1C449.182 197.85 452.368 199.065 454.534 201.739C459.495 207.865 465.815 212.026 472.692 215.59C482.799 220.828 489.855 229.464 497.254 237.779C505.038 246.528 511.691 255.867 516.515 266.644C521.001 276.665 529.296 283.629 537.718 290.311C544.29 295.527 551.394 300.165 556.451 307.064C563.525 316.715 564.532 326.026 557.398 335.4C553.732 340.218 552.3 345.188 553.957 351.385C555.937 358.788 552.844 364.717 546.759 369.235C541.529 373.118 535.774 375.912 529.652 377.974C520.028 381.215 510.369 384.351 500.729 387.543C499.76 387.864 498.82 388.271 497.85 388.931C502.029 389.796 506.242 390.307 510.329 391.409C525.344 395.459 537.802 403.067 545.274 417.263C548.119 422.67 549.585 428.505 548.246 434.706C547.478 438.264 545.582 441.189 543.04 443.755C539.684 447.141 537.942 451.03 538.18 456.035C538.594 464.715 536.098 472.191 528.169 477.095C525.2 478.932 523.259 481.942 521.948 485.128C512.743 507.506 487.866 514.622 471.51 513.305C463.79 512.683 457.397 508.772 451.523 503.967C447.415 500.608 443.873 496.673 440.433 492.714C440.1 492.852 439.791 492.89 439.76 493.005C437.959 499.685 433.598 504.041 427.543 507.1C423.499 509.143 421.073 512.821 419.157 516.844C417.411 520.509 415.523 524.074 412.35 526.785C406.598 531.7 399.991 532.069 393.32 529.74C380.544 525.278 368.569 519.077 357.288 511.593C350.277 506.943 342.692 503.869 334.487 502.073C326.534 500.333 318.76 498.043 313.234 491.373C312.667 490.688 312.055 490.282 311.085 490.753C304.11 494.151 296.498 493.242 289.127 493.964C288.617 494.014 288.103 494.017 286.758 494.082C288.264 495.161 289.202 495.869 290.175 496.523C300.438 503.415 305.437 513.229 305.853 525.42C306.076 531.957 305.867 538.509 305.779 545.339C304.229 545.623 302.753 545.623 301.001 545.623ZM324.012 371.849C323.425 372.04 322.85 372.325 322.247 372.406C317.894 372.995 317.904 372.981 318.316 377.557C318.522 379.843 317.664 381.534 315.247 381.778C313.658 381.939 312.953 382.878 312.132 383.998C310.75 385.885 310.9 388.039 310.624 390.177C312.538 390.454 313.981 389.557 315.452 388.845C335.94 378.929 352.635 364.401 366.501 346.489C375.385 335.014 379.123 322.213 376.6 307.647C374.326 294.518 377.968 284.005 390.897 278.1C392.394 277.416 393.72 276.359 395.138 275.496C402.033 271.3 408.08 266.127 413.009 259.714C418.656 252.367 422.465 244.295 421.842 234.75C421.426 228.378 419.618 222.287 417.143 216.438C412.282 204.949 410.567 193.326 413.519 180.912C415.309 173.385 412.634 166.486 406.99 161.083C398.65 153.1 388.072 151.608 376.846 150.768C377.47 155.176 377.191 159.203 377.286 163.228C377.379 167.173 377.273 171.143 377.678 175.058C379.389 191.604 376.295 207.279 369.5 222.325C369.146 223.109 368.974 224.189 367.723 224.155C367.359 222.343 367.342 222.336 367.975 220.69C373.426 206.527 374.378 191.909 372.95 176.909C372.167 168.694 370.02 160.53 371.354 152.166C371.514 151.164 371.048 150.569 370.013 150.496C369.077 150.43 368.403 150.726 368.206 151.764C367.798 153.905 367.557 156.056 367.393 158.235C367.246 160.192 367.969 162.264 367.095 164.142C365.901 164.069 365.944 163.347 365.853 162.767C365.422 160.005 364.886 157.251 364.634 154.472C364.371 151.574 363.483 150.086 360.079 150.161C355.553 150.262 351.001 149.753 346.503 148.925C338.64 147.478 332.37 143.178 326.586 137.997C320.535 132.576 313.592 129.176 305.48 128.268C304.01 128.103 302.538 127.653 302.157 129.848C300.973 136.682 299.436 143.451 299.03 150.416C298.199 164.677 300.447 178.528 304.26 192.191C308.4 207.032 310.284 222.046 307.8 237.406C307.645 238.367 307.89 239.6 306.289 239.615C305.136 238.71 305.644 237.538 305.77 236.463C306.438 230.767 306.319 225.06 305.891 219.366C305.094 208.765 302.404 198.526 299.6 188.333C295.06 171.831 293.776 155.084 295.56 138.094C295.899 134.858 296.657 131.667 297.218 128.474C292.187 127.315 290.805 127.849 290.423 131.199C289.709 137.483 288.958 143.754 288.863 150.106C288.581 169.097 292.179 187.638 295.041 206.271C296.962 218.775 298.69 231.304 299.001 243.977C299.303 256.252 298.206 268.44 296.55 280.584C294.587 294.977 291.621 309.183 288.45 323.347C288.257 324.209 288.201 325.27 286.9 325.201C286.038 324.505 286.365 323.689 286.534 322.885C290.473 304.119 293.98 285.297 295.166 266.099C295.994 252.692 295.857 239.327 294.102 226.017C292.138 211.117 288.51 196.517 285.844 181.744C283.576 169.172 282.166 156.528 282.993 143.685C283.313 138.723 284.376 133.907 285.259 128.594C280.715 128.884 276.484 129.632 272.309 128.625C268.087 127.606 263.919 126.22 259.64 125.608C249.287 124.129 240.218 127.36 232.213 133.93C227.403 137.877 222.715 142.036 216.497 143.729C215.258 144.066 214.862 144.966 215.144 146.133C216.655 152.392 215.987 158.682 215.741 165.017C215.137 180.502 215.702 195.927 219.867 211.011C220.109 211.885 220.655 213.013 219.468 213.915C218.015 213.465 217.947 212.131 217.615 210.999C213.556 197.178 211.751 183.049 211.429 168.657C211.274 161.736 211.505 154.739 209.815 147.919C209.503 146.664 209.705 144.967 207.84 144.841C205.167 144.66 202.609 145.299 200.652 147.179C199.326 148.453 200.924 149.631 201.322 150.817C201.684 151.894 202.213 152.915 202.614 153.981C204.871 159.976 205.792 166.191 205.707 172.584C205.539 185.149 205.691 197.695 207.848 210.131C210.811 227.214 216.706 243.379 223.283 259.311C230.057 275.717 237.167 291.986 242.765 308.852C243.238 310.278 244.217 311.741 243.533 313.476C242.331 313.107 242.196 312.222 241.926 311.482C235.687 294.386 227.632 278.086 220.168 261.527C213.765 247.321 208.319 232.78 204.196 217.717C200.252 203.312 200.349 188.584 199.903 173.883C199.686 166.705 198.571 159.735 196.086 152.25C195.013 154.231 194.158 155.608 193.493 157.07C190.395 163.885 188.452 171.141 185.678 178.061C183.126 184.425 185.002 190.78 184.545 197.114C184.408 199.001 184.882 200.776 185.373 202.603C189.301 217.205 195.779 230.814 201.471 244.734C205.595 254.819 209.635 264.996 210.148 276.062C210.579 285.371 214.211 293.041 220.778 299.515C224.397 303.083 227.683 306.993 231.354 310.504C241.77 320.465 246.001 332.518 244.429 346.833C243.974 350.986 244.359 355.232 244.359 359.653C245.031 359.352 245.334 359.274 245.567 359.102C248.154 357.189 250.919 356.711 253.656 358.563C256.312 360.36 256.493 363.059 256.099 366.052C255.797 368.353 256.361 370.312 259.513 370.287C261.978 370.268 263.933 371.556 264.601 374.095C265.264 376.617 264.599 378.805 262.486 380.48C261.772 381.046 260.662 381.028 260.223 382.051C261.198 388.162 262.175 394.29 263.254 401.054C266.163 395.872 267.07 390.879 267.485 385.812C267.762 382.441 268.747 378.972 265.778 375.918C264.359 374.459 264.945 372.223 266.135 370.4C268.427 366.887 268.297 366.527 264.533 364.846C261.608 363.539 259.764 360.473 260.191 357.627C260.647 354.589 262.938 352.064 265.695 351.56C269.029 350.951 272.024 352.44 273.44 355.409C274.788 358.236 274.135 361.391 271.734 363.647C269.278 365.955 269.368 367.018 272.386 368.126C274.807 369.015 276.27 370.596 276.465 373.088C276.659 375.568 275.537 377.552 273.266 378.678C272.06 379.276 271.638 380.143 271.685 381.415C271.854 385.959 271.48 390.473 270.873 395.019C273.199 392.098 275.155 389.033 276.097 385.4C274.18 384.302 272.579 383.203 273.246 380.908C273.811 378.963 275.334 378.483 277.185 378.756C277.73 378.836 278.192 378.728 278.592 378.316C280.515 376.336 279.96 371.111 277.641 369.435C275.095 367.595 274.495 364.606 276.157 362.038C277.739 359.594 281.092 358.92 283.574 360.547C286.038 362.163 286.636 365.263 284.956 367.956C284.361 368.911 283.419 369.663 283.465 370.947C283.66 376.453 282.395 381.75 281.083 387.064C282.506 385.237 283.777 383.358 285.053 381.483C285.519 380.8 285.936 380.229 285.535 379.237C283.123 373.273 283.77 372.215 290.117 371.352C290.389 371.315 290.634 371.081 290.894 370.938C287.077 364.386 286.921 361.79 290.164 359.362C293.218 357.075 296.375 357.738 300.205 361.47C300.306 361.458 300.418 361.47 300.506 361.43C305.052 359.336 308.521 360.123 310.086 363.609C311.794 367.414 310.167 370.531 305.432 372.355C304.474 372.724 303.678 373.005 304.096 374.353C307.19 374.783 309.948 375.737 310.722 379.558C310.264 376.682 311.73 375.363 313.988 374.231C315.908 373.268 317.292 371.716 315.637 369.218C314.693 367.794 314.589 366.098 315.26 364.426C316.292 361.853 318.186 360.339 320.925 360.293C323.643 360.247 325.855 361.528 326.725 364.176C327.672 367.056 327.177 369.738 324.012 371.849ZM483.343 457.719C495.711 464.391 507.273 472.162 517.107 482.747C519.882 477.393 524.308 473.845 528.987 470.517C532.83 467.784 533.745 463.671 533.924 459.267C533.97 458.125 533.502 457.356 532.662 456.596C520.372 445.477 506.53 436.797 491.211 430.584C465.458 420.137 438.663 415.881 410.925 417.625C410.229 417.669 409.425 417.893 409.087 416.284C431.319 413.257 453.201 414.305 474.88 419.936C496.742 425.615 516.385 435.719 534.188 450.083C535.41 445.895 537.622 442.778 540.264 439.975C544.867 435.094 545.37 429.546 543.098 423.522C538.762 412.026 530.443 404.495 519.33 399.845C509.108 395.568 498.252 394.429 487.367 394.429C472.453 394.43 457.603 395.827 442.819 397.933C416.221 401.723 390.151 407.802 364.474 415.651C363.73 415.878 362.948 416.454 362.251 415.396C362.358 414.547 363.091 414.293 363.731 414.035C376.91 408.728 390.188 403.687 403.969 400.155C417.714 396.633 431.668 394.22 445.756 392.526C460.045 390.809 474.297 388.726 488.741 388.914C490.247 388.934 491.571 388.463 492.918 387.883C500.443 384.642 508.021 381.525 515.508 378.2C524.127 374.372 533.05 371.231 541.271 366.497C549.475 361.773 551.173 358.534 549.589 349.276C548.828 344.834 549.028 340.595 551.431 336.648C552.402 335.051 553.311 333.41 554.378 331.88C561.463 321.725 555.195 310.591 547.852 305.456C543.059 310.419 538.009 315.164 532.239 319.089C523.844 324.798 516.473 328.543 514.132 328.083C514.601 326.703 515.963 326.475 516.983 325.897C526.847 320.303 535.212 312.915 542.679 304.448C543.572 303.436 544.605 302.366 543.033 301.027C541.585 299.792 540.666 300.598 539.663 301.707C538.271 303.245 536.804 304.72 535.303 306.154C526.246 314.809 515.658 321.422 505.421 328.491C482.731 344.16 458.093 355.921 432.076 364.869C431.192 365.173 430.216 365.954 428.546 364.536C469.321 349.26 505.301 326.955 536.2 296.592C535.809 295.506 534.712 295.037 533.805 294.381C523.913 287.228 516.154 278.459 512.011 266.698C508.12 255.65 500.811 246.904 492.508 238.898C491.294 237.728 490.408 237.607 489.12 238.824C485.796 241.967 482.035 244.572 478.344 247.26C464.097 257.637 450.57 268.735 441.645 284.395C441.352 284.909 441.044 285.521 439.349 285.276C451.141 264.145 470.125 250.081 486.076 233.293C482.831 229.392 482.623 229.368 478.526 232.284C473.014 236.207 467.88 240.56 463.321 245.578C462.695 246.266 462.159 247.469 460.465 246.307C465.623 238.996 472.178 233.019 478.342 226.892C477.707 225.417 476.632 224.896 475.766 224.189C467.823 217.708 458.743 212.664 451.824 204.867C450.027 202.842 447.369 202.431 444.615 203.235C436.564 205.584 430.557 210.529 426.055 217.515C424.619 219.743 424.22 221.871 424.945 224.521C427.405 233.522 426.766 242.386 423.1 250.993C418.612 261.532 411.1 269.564 402.111 276.371C400.968 277.236 399.729 277.942 399.129 279.433C397.437 283.637 396.271 287.965 396.895 292.489C397.908 299.837 396.113 306.47 392.467 312.755C389.437 317.978 385.729 322.733 382.269 327.658C377.668 334.207 374.372 341.563 369.642 348.03C360.889 359.996 350.214 370.17 339.6 380.401C338.429 381.53 336.851 382.261 336.065 384.006C337.72 385.042 339.636 385.827 340.181 387.948C340.475 389.09 341.41 389.506 342.302 390.062C346.086 392.421 346.036 397.054 342.216 399.428C341.307 399.993 340.32 400.432 339.159 401.039C340.492 401.917 341.7 402.552 341.91 403.89C342.102 405.111 342.738 405.586 343.839 405.975C346.541 406.931 347.848 408.988 347.329 411.804C346.811 414.616 344.856 416.12 342 416.045C340.281 416 339.21 416.862 337.88 417.739C334.8 419.77 337.258 422.737 336.173 425.029C338.451 420.397 340.395 418.884 343.608 419.544C346.43 420.124 347.752 422.117 348.087 424.837C348.234 426.024 347.681 427.061 347.04 428.026C345.729 430.002 343.582 430.383 341.273 430.721C341.978 432.044 342.547 433.111 343.193 434.325C345.285 433.443 347.878 434.362 349.133 431.617C350.625 428.351 353.11 427.718 356.192 429.58C359.024 431.29 363.794 429 364.001 425.766C364.181 422.946 365.479 420.935 368.194 420.258C370.788 419.611 373.174 420.221 374.68 422.72C376.148 425.156 375.916 427.531 374.037 429.611C372.052 431.808 369.636 432.086 366.964 430.858C363.824 429.414 358.818 431.732 357.392 434.791C356.513 436.676 356.308 438.229 356.881 440.225C357.444 442.189 356.938 444.189 355.019 445.439C353.672 446.317 352.279 446.274 350.935 445.379C348.114 443.503 345.779 443.601 343.141 445.919C341.947 446.969 340.746 447.415 339.179 447.108C333.999 446.093 329.255 448.487 324.24 448.85C329.61 449.86 334.985 449.999 340.354 450.286C342.478 450.4 344.232 450.573 345.899 448.689C347.18 447.241 349.177 447.54 350.679 448.881C352.198 450.235 352.361 451.915 351.397 453.677C350.356 455.579 348.152 456.184 346.879 455.177C343.894 452.815 340.822 453.879 337.673 454.143C339.782 454.183 341.575 455.259 343.562 455.735C352.935 457.982 362.069 456.563 371.168 454.163C387.338 449.897 403.048 451.1 418.009 458.714C427.511 463.551 435.377 470.336 438.642 480.91C439.836 484.777 441.724 487.832 444.373 490.634C447.23 493.653 450.187 496.574 453.45 499.15C458.181 502.884 462.94 506.613 469.01 507.976C481.281 510.733 503.684 504.826 513.035 489.994C513.463 489.314 514.124 488.691 513.688 487.963C494.406 462.925 466.112 452.98 438.166 442.337C453.52 446.213 468.662 450.562 483.343 457.719ZM203.179 283.174C201.137 279.322 198.978 275.528 197.073 271.61C186.83 250.554 181.155 228.322 179.653 204.934C179.207 197.998 179.712 191.015 178.515 184.122C175.935 169.264 166.334 163.693 151.221 169.103C154.305 175.653 155.409 182.741 156.414 189.786C158.722 205.974 162.593 221.726 168.465 236.988C168.885 238.079 169.801 239.144 169.159 240.494C167.75 240.432 167.59 239.226 167.176 238.356C162.619 228.777 158.893 218.888 156.094 208.647C152.765 196.466 151.24 183.81 146.278 172.047C145.203 169.499 144.034 168.568 141.366 169.609C141.448 173.046 143.837 175.956 143.665 179.523C141.181 176.541 138.976 173.45 137.036 170.201C136.059 168.564 134.96 167.875 133.059 167.928C128.407 168.057 126.074 170.389 126.063 175.521C126.055 179.414 126.151 183.263 123.084 186.264C120.948 188.355 118.248 189.406 115.5 190.395C113.109 191.256 110.496 191.625 108.423 193.3C111.86 200.215 109.471 208.509 114.969 214.894C112.77 215.152 112.487 213.97 111.914 213.191C109.134 209.413 107.983 205.001 107.03 200.515C106.645 198.701 106.166 196.944 104.604 195.819C102.557 196.706 102.516 197.958 103.194 199.696C104.474 202.978 105.719 206.293 106.671 209.681C111.649 227.391 118.3 244.316 129.317 259.255C129.866 259.999 130.863 260.735 130.232 261.966C128.664 262.211 128.346 260.848 127.696 260.034C117.003 246.63 109.739 231.447 104.487 215.204C103.039 210.729 101.514 206.261 99.2017 201.541C95.9346 205.933 94.117 210.454 92.0857 214.844C89.4538 220.531 89.5489 226.086 93.1375 231.413C94.239 233.048 95.2871 234.723 96.2767 236.429C102.303 246.815 105.567 258.004 102.761 269.842C100.288 280.269 103.818 288.067 110.672 295.21C115.136 299.862 120.258 303.805 124.822 308.331C135.764 319.184 148.304 327.207 163.02 332.092C175.556 336.253 185.582 344.209 193.379 354.939C196.91 359.799 199.315 365.249 201.763 371.147C202.929 367.628 203.689 364.478 205.009 361.583C206.391 358.551 205.709 356.599 203.4 354.294C195.875 346.785 187.232 340.636 179.187 333.766C160.998 318.231 145.633 300.443 135.259 278.665C134.675 277.441 133.6 276.271 134.115 274.665C135.645 274.631 135.848 275.873 136.261 276.695C147.885 299.831 165.332 317.683 186.348 332.338C194.479 338.008 203.309 342.927 208.258 352.576C210.53 349.212 212.417 346.125 214.615 343.277C215.913 341.595 215.922 340.235 214.944 338.481C213.188 335.333 210.692 332.854 208.066 330.495C196.649 320.235 186.769 308.666 178.492 295.732C177.91 294.823 176.764 293.979 177.351 292.477C178.972 292.977 179.508 294.294 180.24 295.363C183.536 300.172 187.426 304.489 191.193 308.917C199.882 319.131 212.776 324.837 220.155 336.532C222.864 334.951 225.044 332.895 227.941 332.256C228.902 332.044 230.043 331.559 230.814 332.636C231.466 333.548 230.903 334.43 230.462 335.252C229.579 336.898 228.813 338.632 227.745 340.15C222.247 347.97 218.907 356.54 218.401 366.152C218.151 370.877 217.857 375.601 217.571 380.529C218.343 380.406 218.765 380.419 219.119 380.27C222.086 379.022 224.877 379.195 227.093 381.671C229.165 383.984 228.976 386.591 227.425 389.163C226.965 389.926 226.807 390.694 227.328 391.5C230.534 396.459 234.176 401.025 238.975 404.57C234.323 396.078 230.128 387.449 228.065 377.94C227.739 376.439 226.795 375.855 225.39 375.325C221.579 373.889 220.172 369.881 222.019 366.363C223.615 363.324 227.817 362.229 230.915 364.239C232.234 365.095 233.324 365.38 234.914 365.02C237.073 364.532 238.789 365.672 239.589 367.73C240.347 369.677 239.808 371.389 238.052 372.658C237.501 373.056 236.576 373.024 236.469 374.005C236.803 375.434 237.273 376.611 239.033 377.08C242.835 378.094 243.837 379.964 242.811 383.769C242.561 384.698 242.185 385.573 242.742 386.45C244.632 389.429 246.333 392.55 248.94 395.38C248.947 392.153 248.177 389.527 246.959 386.939C245.327 383.472 243.737 379.984 242.587 376.295C239.68 366.97 238.699 357.436 238.942 347.711C239.041 343.775 239.101 339.828 238.649 335.889C237.638 327.068 232.894 320.201 227.145 313.93C218.432 304.428 209.939 294.773 203.179 283.174ZM180.973 389.673C166.4 381.963 150.973 379.432 134.557 382.895C134.631 382.362 134.705 381.83 134.779 381.297C153.631 376.495 171.8 378.07 189.118 388.009C181.449 378.674 171.349 373.266 160.354 369.169C174.34 371.854 186.73 377.703 197.203 387.602C200.353 381.105 200.223 375.006 195.773 369.865C177.721 349.002 155.623 335.277 127.626 332.781C117.864 331.911 108.314 333.374 99.8298 338.738C93.317 342.855 88.6558 348.379 88.6919 356.654C88.7173 362.475 92.3414 366.376 96.1394 370.16C106.823 380.803 107.448 385.652 99.8465 398.562C94.6384 407.407 94.7674 408.489 101.889 415.685C102.327 416.127 102.749 416.588 103.206 417.01C106.533 420.08 108.15 423.88 107.962 428.403C107.815 431.942 109.053 434.915 111.467 437.42C114.089 440.141 116.056 443.241 117.618 446.702C121.258 454.766 126.898 457.413 135.741 455.931C141.494 454.966 146.896 452.746 152.591 451.653C156.295 450.943 160.035 450.681 163.484 452.685C165.785 454.023 167.142 456.018 167.096 458.793C167.052 461.424 165.462 462.919 163.294 464.016C161.353 464.999 159.354 465.904 157.526 467.072C153.711 469.511 150.39 472.475 148.816 476.912C147.128 481.669 148.464 484.663 153.257 485.526C159.751 486.696 165.023 489.718 169.754 494.209C173.539 497.803 178.107 499.183 183.495 498.303C193.166 496.721 200.925 491.881 207.466 484.892C213.619 478.318 219.792 471.904 229.937 471.198C226.42 466.264 222.876 461.905 220.273 456.966C218.545 453.688 215.751 451.845 212.468 451.407C203.254 450.178 193.941 448.695 184.97 452.847C184.445 453.09 183.837 453.508 183.086 452.266C192.457 446.22 203.049 446.878 213.805 446.582C212.717 442.357 210.436 438.985 208.713 435.382C208.142 434.19 207.839 432.704 206.571 432.019C199.205 428.036 192.292 423.15 183.967 421.102C172.321 418.237 160.576 416.767 148.571 417.766C147.081 417.89 145.35 418.602 143.856 417.016C144.344 416.698 144.649 416.419 145.008 416.279C146.692 415.626 148.491 415.85 150.233 415.63C166.908 413.528 183.332 413.695 198.995 420.929C199.757 421.281 200.595 421.649 201.35 421.064C202.178 420.421 201.761 419.533 201.513 418.761C199.993 414.022 198.394 409.309 197.704 404.346C197.625 403.781 197.218 403.199 196.82 402.752C192.321 397.688 187.611 392.87 180.973 389.673ZM223.164 451.574C228.465 460.943 233.772 470.306 242.488 477.946C235.057 465.412 229.085 447.109 230.764 441.419C232.037 445.247 233.09 448.668 234.308 452.029C239.664 466.821 248.327 478.139 263.899 483.841C272.67 487.052 279.945 486.303 287.275 481.194C288.032 480.667 288.749 479.555 290.098 480.554C288.566 484.163 285.185 485.936 281.755 488.665C289.14 488.711 295.847 489.346 302.399 487.408C306.832 486.097 308.613 483.499 308.619 478.917C308.624 475.666 307.848 472.545 307.069 469.429C304.458 458.976 299.731 449.375 295.07 439.754C290.625 430.577 287.472 420.914 284.176 411.296C282.89 407.542 280.574 406.443 276.633 407.301C272.809 408.134 269.458 409.947 266.594 412.607C260.906 417.888 254.375 421.355 246.665 422.757C229.743 425.834 212.567 412.266 212.172 395.158C211.906 383.617 213.668 372.208 215.001 360.785C215.805 353.888 218.354 347.518 221.622 341.403C219.604 343.681 217.508 345.815 215.835 348.338C209.806 357.423 207.006 367.734 204.421 378.124C200.848 392.487 201.822 406.44 207.805 420.108C212.433 430.679 217.707 440.91 223.164 451.574ZM334.272 495.428C343.634 496.946 352.186 500.435 359.974 505.868C366.441 510.38 372.931 514.864 379.495 519.232C384.512 522.571 389.714 525.607 395.666 527.026C403.85 528.977 408.083 527.172 412.305 519.904C413.19 518.381 413.948 516.782 414.739 515.205C416.862 510.973 419.376 507.056 423.597 504.608C425.324 503.606 425.153 502.429 424.291 500.976C421.359 496.036 417.998 491.453 413.623 487.672C412.839 486.995 411.54 486.643 411.725 484.635C419.12 488.647 424.606 494.279 429.112 500.984C430.405 499.82 429.898 498.944 429.447 498.154C417.731 477.599 398.159 470.066 375.493 466.358C379.44 464.155 382.673 465.417 385.678 465.74C406.627 467.988 420.747 481.113 433.425 496.417C434.493 495.629 434.731 494.493 435.058 493.413C437.458 485.462 434.588 478.81 429.416 473.132C419.246 461.965 406.247 456.741 391.323 456.034C383.147 455.646 375.238 457.431 367.413 459.409C356.814 462.087 346.339 462.079 335.798 459.198C330.911 457.862 325.977 456.593 320.985 455.777C316.796 455.091 312.48 453.902 307.932 455.712C309.58 459.23 309.798 463.238 314.98 463.769C321.038 464.39 327.018 465.778 333.03 466.845C333.873 466.994 334.969 466.788 335.14 468.441C327.735 468.411 320.495 466.34 313.098 466.798C313.132 469.921 314.555 471.241 317.119 471.907C322.876 473.403 328.788 473.66 334.645 474.247C354.838 476.271 373.371 482.899 390.348 493.966C391.276 494.572 392.74 494.955 392.378 497.651C368.861 482.517 343.124 476.652 315.74 477.042C315.74 478.504 316.187 480.5 315.647 482.177C314.553 485.574 316.168 487.467 318.571 489.243C323.113 492.6 328.424 493.987 334.272 495.428ZM232.301 517.911C243.545 513.338 250.954 505.141 254.883 493.737C255.229 492.733 256.161 491.341 254.677 490.364C253.471 489.57 252.269 489.668 250.861 490.202C243.281 493.078 237.502 498.392 231.893 503.963C229.153 506.683 226.922 509.854 224.224 512.622C229.053 501.682 236.123 492.634 246.573 486.687C244.344 483.404 241.77 483.342 238.695 484.415C229.453 487.64 223.104 494.027 218.671 502.512C214.786 509.949 213.261 518.148 211.357 526.214C211.239 526.717 210.98 527.456 211.857 527.941C214 525.896 216.257 523.929 218.946 522.556C223.036 520.467 227.493 519.422 232.301 517.911ZM296.337 508.554C291.703 501.988 285.263 497.764 278.165 494.337C275.912 493.25 273.662 493.311 270.595 493.449C280.702 501.953 288.036 511.759 292.851 523.43C288.936 519.807 285.624 515.695 282.166 511.71C278.659 507.668 275.011 503.748 270.207 500.435C271.931 506.914 274.143 512.674 278.245 517.533C285.022 525.56 294.058 531.064 301.744 539.161C301.744 534.134 301.983 529.886 301.686 525.675C301.268 519.744 300.113 513.946 296.337 508.554ZM389.015 311.387C395.437 302.582 392.763 292.523 393.254 282.759C384.552 285.36 380.919 290.199 381.197 298.737C381.433 306.031 383.291 313.257 382.376 320.814C384.511 317.801 386.647 314.788 389.015 311.387ZM204.057 264.811C199.713 250.131 192.342 236.706 186.719 222.557C192.333 249.398 200.628 272.604 207.103 279.702C206.478 274.708 205.697 269.932 204.057 264.811ZM326.669 399.185C325.052 400.647 322.989 401.73 324.353 404.692C324.981 406.054 323.735 407.729 322.232 407.995C319.122 408.546 317.656 410.941 315.77 412.95C313.21 415.676 310.351 418.055 307.175 420.045C305.884 420.854 304.638 421.736 303.372 422.585C306.197 422.423 308.997 423.144 311.336 421.27C314.485 418.749 317.737 416.356 320.923 413.881C321.817 413.186 322.748 412.47 322.914 411.218C323.219 408.912 324.611 407.984 326.826 407.521C328.846 407.099 331.242 405.755 330.467 403.49C329.44 400.487 329.891 398.21 331.51 395.69C330.005 396.759 328.5 397.827 326.669 399.185ZM311.495 398.991C311.247 401.557 314.349 402.244 314.295 405.056C316.829 403.243 318.887 401.692 321.027 400.267C322.421 399.339 323.075 398.411 322.166 396.707C321.304 395.09 321.998 393.628 323.314 392.588C324.586 391.582 325.987 391.832 327.407 392.51C328.049 392.817 328.389 393.991 329.506 393.329C329.285 392.118 329.067 390.924 328.859 389.783C327.705 389.417 326.895 389.93 326.099 390.383C323.542 391.839 320.782 392.788 317.886 393.028C314.308 393.326 311.431 394.113 311.495 398.991ZM289.463 381.875C287.603 385.045 285.742 388.215 283.882 391.385C291.17 386.681 296.586 380.285 300.96 372.956C301.668 371.77 300.027 369.557 298.56 369.486C296.488 369.386 293.014 371.679 293.165 373.649C293.426 377.063 291.701 379.261 289.463 381.875ZM256.258 381.127C252.282 377.944 255.235 373.245 254.165 369.244C251.941 369.942 249.459 369.566 250.014 372.705C251.725 382.401 254.66 391.756 257.823 401.05C257.517 394.543 257.502 388.036 256.258 381.127ZM228.056 405.49C230.05 406.571 231.556 408.646 234.111 408.711C234.435 407.526 233.772 406.949 233.235 406.346C230.389 403.148 227.795 399.691 226.211 395.756C224.647 391.871 221.9 391.384 218.397 391.622C218.29 392.91 218.537 393.947 219.355 394.77C225.412 394.518 226.804 396.1 225.867 402.262C225.617 403.903 226.911 404.35 228.056 405.49ZM244.936 402.287C248.337 405.749 249.041 406.119 251.105 405.486C250.988 405.206 250.949 404.844 250.748 404.669C245.731 400.288 242.179 394.835 239.289 388.912C238.446 387.185 237.205 386.244 234.957 386.095C238.084 391.677 240.619 397.261 244.936 402.287ZM318.324 425.266C315.026 426.914 310.74 426.343 307.837 429.821C310.234 430.872 312.236 431.621 314.512 430.45C318.565 428.365 322.469 426.034 326.246 423.491C326.914 423.042 328.056 422.743 327.489 421.186C324.545 422.501 321.659 423.79 318.324 425.266ZM332.519 412.527C333.342 411.747 334.148 410.948 334.991 410.19C336.808 408.559 335.639 407.049 334.533 405.934C333.24 404.63 332.388 406.175 331.503 406.94C330.217 408.051 329.937 409.411 330.109 411.102C330.352 413.505 328.994 415.003 326.627 414.742C323.167 414.361 322.257 416.981 320.749 419.017C325.329 418.318 328.626 415.333 332.519 412.527ZM329.903 431.734C324.731 434.242 318.928 434.668 313.518 436.401C318.423 437.364 323.255 436.961 328.083 436.885C329.037 436.87 330.355 436.643 330.178 435.599C329.945 434.219 332.06 432.939 329.903 431.734ZM301.795 388.805C301.712 388.619 301.675 388.359 301.532 388.272C301.427 388.208 301.104 388.312 301.015 388.438C298.438 392.103 295.092 395.086 292.205 398.473C291.51 399.288 290.619 400.1 290.736 401.983C295.452 398.881 299.153 395.281 302.115 390.909C302.36 390.547 301.96 389.746 301.795 388.805ZM302.264 407.881C300.428 409.844 297.919 411.164 296.049 414.26C300.725 413.271 304.329 411.802 307.681 409.276C306.707 408.101 305.818 407.028 304.818 405.821C303.997 406.473 303.285 407.037 302.264 407.881ZM345.126 437.018C343.489 437.472 341.558 437.997 342.28 440.181C342.957 442.231 344.875 442.142 346.735 441.685C349.543 440.993 349.536 438.609 350.206 436.557C348.43 435.484 347.05 436.706 345.126 437.018ZM164.365 338.861C170.207 341.845 175.695 345.421 181.185 348.975C172.124 340.582 161.013 336.198 149.422 332.758C154.261 334.728 159.099 336.698 164.365 338.861ZM234.022 375.3C233.792 374.545 233.761 373.689 232.99 373.201C229.58 376.15 229.58 376.17 233.111 381.906C233.484 379.751 235.25 378.011 234.022 375.3ZM316.378 441.145C314.518 441.339 312.657 441.532 310.501 441.755C315.817 443.728 319.339 443.648 320.719 441.579C319.487 440.839 318.106 441.552 316.378 441.145ZM335.512 416.817C336.899 415.664 339.038 414.717 337.02 412.677C334.937 414.687 332.954 416.601 330.796 418.683C332.492 418.455 334 418.309 335.512 416.817ZM296.42 388.198C297.951 386.458 300.338 385.204 299.983 382.371C297.079 385.203 294.986 388.613 292.449 391.717C293.664 390.644 294.879 389.572 296.42 388.198ZM325.359 428.571C325.261 430.24 326.468 429.436 326.989 429.28C329.05 428.663 331.062 427.883 333.096 427.163C330.141 425.066 327.763 426.075 325.359 428.571ZM331.75 443.345C333.143 443.277 334.573 443.435 336.451 442.639C333.779 441.744 332.072 439.388 329.316 440.861C329.388 442.284 329.825 443.217 331.75 443.345ZM303.324 401.008C301.86 402.608 300.395 404.209 298.93 405.809C301.576 404.846 304.162 403.991 305.765 401.647C305.075 401.023 304.391 400.875 303.324 401.008Z" fill="#A9002D"/>
<path d="M343.59 302.206C340.273 318.194 337.083 333.945 330.722 348.811C329.539 351.577 328.109 354.234 326.339 356.682C325.698 357.57 325.208 358.743 323.726 358.514C322.571 357.699 323.105 356.662 323.437 355.732C332.601 330.028 337.64 303.137 345.953 277.192C348.995 267.698 352.702 258.452 357.709 249.788C358.302 248.763 358.603 247.416 361.155 246.817C351.7 264.531 347.335 283.138 343.59 302.206Z" fill="#A9002D"/>
<path d="M332.156 359.306C331.658 359.828 331.311 360.233 329.892 359.829C333.706 352.677 337.62 345.736 340.211 338.165C340.687 338.378 341.163 338.592 341.639 338.805C339.4 345.954 336.497 352.822 332.156 359.306Z" fill="#A9002D"/>
<path d="M258.204 272.596C255.959 265.738 253.548 259.183 252.595 252.179C255.896 259.233 258.733 266.439 260.548 274.083C258.853 274.458 258.653 273.531 258.204 272.596Z" fill="#A9002D"/>
<path d="M283.992 342.523C284.714 339.737 284.332 336.889 286.401 334.769C286.984 339.628 285.605 344.106 284.049 348.576C282.87 346.614 283.959 344.7 283.992 342.523Z" fill="#A9002D"/>
<path d="M253.028 337.471C252.794 334.911 251.69 332.594 252.96 330.235C255.037 333.337 254.965 336.752 254.698 340.469C253.061 339.956 253.353 338.681 253.028 337.471Z" fill="#A9002D"/>
<path d="M387.789 361.597C383.282 365.439 378.976 369.181 374.566 372.795C372.157 374.77 369.507 376.434 366.624 377.651C365.474 378.136 364.051 379.358 363.079 377.666C362.248 376.221 363.771 375.43 364.673 374.698C371.113 369.471 378.04 364.885 384.261 359.35C396.479 348.478 407.034 336.083 417.541 323.626C418.352 322.665 418.863 321.204 421.644 321.284C411.048 335.81 400.265 349.252 387.789 361.597Z" fill="#A9002D"/>
<path d="M502.736 448.642C497.009 445.131 491.047 442.615 484.666 440.418C489.702 435.858 515.985 449.754 517.96 457.39C516.643 458.625 515.725 457.447 514.766 456.8C510.813 454.132 506.878 451.436 502.736 448.642Z" fill="#A9002D"/>
<path d="M409.972 436.611C398.63 436.366 387.565 436.072 376.877 439.772C376.441 439.923 375.908 439.791 375.264 439.791C378.647 434.565 407.637 429.559 412.532 435.424C412.141 436.522 411.142 436.458 409.972 436.611Z" fill="#A9002D"/>
<path d="M377.315 381.702C373.597 384.044 370.041 386.194 365.782 386.721C365.211 384.571 366.441 384.146 367.423 383.694C374.524 380.425 381.254 376.618 386.645 370.791C387.06 370.342 387.605 369.952 388.841 370.804C386.091 375.5 381.66 378.407 377.315 381.702Z" fill="#A9002D"/>
<path d="M374.242 393.031C371.583 394.323 368.959 394.911 366.313 395.395C365.53 395.539 364.529 395.722 364.178 394.693C363.759 393.464 364.746 393.013 365.643 392.749C370.815 391.223 375.921 389.565 380.405 386.424C381.035 385.983 381.814 385.82 382.323 386.604C382.899 387.492 382.408 388.187 381.682 388.717C379.418 390.367 377.059 391.859 374.242 393.031Z" fill="#A9002D"/>
</g>
<defs>
<clipPath id="clip0_515_2554">
<rect width="488" height="439" fill="white" transform="translate(81 106)"/>
</clipPath>
</defs>
</svg>
