<svg width="650" height="673" viewBox="0 0 650 673" fill="none" xmlns="http://www.w3.org/2000/svg">
<circle cx="325" cy="348" r="325" fill="#FFDCDC"/>
<g clip-path="url(#clip0_514_2532)">
<path d="M311.427 472.352C311.06 471.23 310.189 470.565 309.474 469.804C306.69 466.842 303.422 464.431 300.313 461.842C296.433 458.609 293.489 454.759 292.022 449.866C291.905 449.475 291.694 449.113 291.564 448.725C291.068 447.236 290.349 447.508 289.039 447.97C284.948 449.412 282.65 452.94 279.594 455.575C277.406 457.461 274.885 458.663 272.125 459.342C267.379 460.508 263.115 462.366 260.446 466.778C260.161 467.248 259.734 467.605 259.125 467.366C258.561 467.144 258.318 466.691 258.464 466.093C259.605 461.425 259.296 456.53 260.796 451.906C262.331 447.175 264.573 442.951 268.448 439.709C270.836 437.712 273.628 436.587 276.644 435.862C274.075 432.348 271.176 432.511 267.908 433.979C264.9 435.331 262.626 437.626 260.374 439.957C256.674 443.789 252.691 447.189 247.359 448.604C242.511 449.89 238.173 449.183 234.512 445.587C232.448 443.56 230.068 442.308 227.209 441.651C222.853 440.651 221.272 437.518 222.701 433.243C223.938 429.541 226.556 427.015 229.865 425.121C230.169 424.946 230.516 424.839 230.804 424.643C231.616 424.091 233.249 423.949 232.797 422.641C232.357 421.37 230.828 421.271 229.576 421.468C227.135 421.851 224.867 422.865 222.516 423.578C219.47 424.503 216.451 425.251 213.201 424.611C209.727 423.927 207.097 422.212 205.657 418.955C204.599 416.563 203.245 414.41 201.481 412.484C200.299 411.192 199.643 409.617 199.566 407.858C199.453 405.252 198.513 403.085 196.427 401.456C195.92 401.059 195.443 400.618 194.99 400.159C191.557 396.679 191.307 393.022 194.24 389.115C195.05 388.036 195.943 387.018 196.727 385.921C198.778 383.048 198.764 380.528 196.714 377.636C195.552 375.996 194.033 374.684 192.603 373.299C186.979 367.851 188.663 361.062 192.869 356.507C197.064 351.962 202.61 350.409 208.553 350.012C213.79 349.662 218.924 350.481 224.048 351.596C220.744 350.094 217.427 348.643 214.681 346.222C209.267 341.448 203.862 336.648 198.976 331.334C195.373 327.415 193.817 322.784 195.275 317.38C196.302 313.575 196.936 309.707 196.035 305.751C195.4 302.964 194.058 300.502 192.67 298.043C191.086 295.239 189.385 292.475 189.665 289.014C189.762 287.821 190.029 286.706 190.412 285.598C191.746 281.742 193.561 278.147 196.148 274.965C198.13 272.527 200.577 270.799 203.634 269.976C204.369 269.778 205.097 269.551 205.825 269.328C208.975 268.361 210.022 266.989 210.108 263.72C210.119 263.309 210.111 262.898 210.113 262.487C210.129 258.49 212.62 256.221 216.654 256.564C217.935 256.673 219.212 256.84 220.485 257.021C224.003 257.521 227.34 256.412 230.744 255.901C236.472 255.04 240.321 256.902 243.218 261.921C243.421 262.272 243.643 262.613 244.015 263.216C244.873 260.013 245.593 257.029 246.728 254.176C247.51 252.212 248.354 250.287 249.438 248.46C251.652 244.731 254.963 242.854 259.206 242.992C263.09 243.119 266.286 241.757 269.237 239.437C270.988 238.061 272.676 236.601 274.592 235.438C279.716 232.328 285.296 231.916 290.899 233.276C295.856 234.479 300.702 234.361 305.698 233.882C313.923 233.092 321.695 234.252 328.261 240.01C333.077 244.233 339.029 245.761 345.25 246.448C351.233 247.108 357.322 246.839 363.189 248.524C365.908 249.305 368.531 250.302 370.912 251.85C376.825 255.695 379.114 261.099 377.79 268.012C376.654 273.95 377.295 279.05 380.015 285.035C380.622 284.137 381.125 283.326 381.692 282.563C384.575 278.69 388.35 276.372 393.229 276.029C395.234 275.888 397.036 276.574 398.261 278.085C401.067 281.546 404.641 283.897 408.531 285.91C414.247 288.869 418.238 293.748 422.422 298.445C426.825 303.387 430.587 308.663 433.316 314.751C435.853 320.412 440.545 324.346 445.308 328.121C449.025 331.068 453.042 333.688 455.903 337.586C459.904 343.038 460.473 348.297 456.438 353.593C454.365 356.314 453.555 359.122 454.492 362.623C455.612 366.805 453.863 370.154 450.421 372.707C447.463 374.901 444.208 376.479 440.746 377.644C435.303 379.475 429.84 381.246 424.388 383.05C423.84 383.231 423.308 383.461 422.759 383.834C425.123 384.322 427.506 384.611 429.817 385.234C438.309 387.521 445.355 391.819 449.581 399.839C451.19 402.893 452.019 406.19 451.262 409.693C450.828 411.703 449.756 413.355 448.318 414.805C446.42 416.718 445.434 418.914 445.569 421.742C445.803 426.645 444.392 430.869 439.907 433.639C438.228 434.677 437.13 436.378 436.389 438.177C431.183 450.819 417.113 454.839 407.862 454.095C403.496 453.744 399.88 451.534 396.558 448.82C394.235 446.922 392.232 444.699 390.286 442.463C390.098 442.541 389.923 442.562 389.905 442.627C388.886 446.401 386.42 448.862 382.996 450.59C380.708 451.744 379.336 453.821 378.253 456.094C377.265 458.165 376.197 460.179 374.403 461.71C371.15 464.487 367.413 464.695 363.64 463.379C356.414 460.859 349.641 457.356 343.261 453.128C339.296 450.501 335.006 448.764 330.366 447.75C325.867 446.767 321.471 445.473 318.345 441.705C318.025 441.319 317.678 441.089 317.13 441.355C313.185 443.275 308.88 442.761 304.711 443.169C304.423 443.197 304.132 443.199 303.371 443.236C304.223 443.845 304.753 444.245 305.304 444.615C311.108 448.508 313.936 454.052 314.171 460.939C314.297 464.632 314.179 468.333 314.129 472.192C313.252 472.352 312.418 472.352 311.427 472.352ZM324.441 374.184C324.109 374.292 323.784 374.452 323.443 374.498C320.981 374.831 320.987 374.823 321.22 377.408C321.336 378.7 320.851 379.655 319.484 379.793C318.585 379.884 318.186 380.414 317.722 381.047C316.941 382.113 317.026 383.33 316.87 384.537C317.952 384.694 318.768 384.187 319.6 383.785C331.187 378.183 340.63 369.976 348.472 359.858C353.496 353.375 355.611 346.143 354.184 337.915C352.897 330.498 354.958 324.559 362.27 321.223C363.116 320.836 363.866 320.239 364.668 319.752C368.568 317.381 371.988 314.459 374.776 310.836C377.969 306.686 380.124 302.126 379.771 296.734C379.536 293.134 378.513 289.693 377.114 286.389C374.364 279.899 373.394 273.333 375.064 266.32C376.076 262.067 374.563 258.17 371.371 255.118C366.655 250.608 360.672 249.765 354.323 249.29C354.676 251.78 354.518 254.056 354.572 256.329C354.624 258.558 354.564 260.801 354.793 263.012C355.761 272.359 354.011 281.215 350.168 289.715C349.968 290.157 349.871 290.768 349.163 290.748C348.957 289.725 348.947 289.721 349.306 288.791C352.389 280.79 352.927 272.532 352.119 264.058C351.677 259.417 350.462 254.805 351.217 250.081C351.307 249.515 351.044 249.178 350.458 249.137C349.929 249.099 349.547 249.267 349.436 249.853C349.206 251.063 349.069 252.278 348.977 253.509C348.893 254.615 349.302 255.785 348.808 256.846C348.132 256.805 348.157 256.397 348.106 256.069C347.862 254.509 347.558 252.953 347.416 251.383C347.267 249.746 346.765 248.905 344.84 248.948C342.28 249.004 339.705 248.717 337.161 248.249C332.714 247.432 329.168 245.003 325.897 242.076C322.475 239.013 318.548 237.093 313.96 236.58C313.129 236.487 312.296 236.232 312.081 237.472C311.411 241.333 310.542 245.157 310.312 249.092C309.842 257.148 311.114 264.973 313.27 272.691C315.612 281.075 316.677 289.557 315.272 298.234C315.184 298.777 315.323 299.474 314.418 299.482C313.765 298.971 314.053 298.309 314.124 297.702C314.502 294.484 314.435 291.26 314.193 288.043C313.742 282.054 312.22 276.27 310.634 270.512C308.067 261.189 307.34 251.729 308.349 242.131C308.542 240.303 308.97 238.5 309.287 236.696C306.442 236.041 305.66 236.343 305.444 238.236C305.04 241.785 304.616 245.328 304.562 248.916C304.403 259.645 306.437 270.119 308.056 280.645C309.143 287.709 310.12 294.787 310.296 301.946C310.467 308.881 309.846 315.766 308.909 322.626C307.799 330.757 306.122 338.782 304.328 346.784C304.219 347.271 304.188 347.87 303.452 347.831C302.964 347.438 303.149 346.977 303.245 346.523C305.472 335.922 307.456 325.288 308.126 314.443C308.595 306.87 308.518 299.319 307.525 291.8C306.414 283.383 304.362 275.135 302.855 266.789C301.571 259.687 300.774 252.545 301.242 245.289C301.423 242.486 302.024 239.765 302.523 236.764C299.953 236.928 297.561 237.35 295.2 236.782C292.812 236.206 290.454 235.423 288.034 235.077C282.179 234.241 277.049 236.067 272.522 239.778C269.802 242.008 267.15 244.358 263.634 245.314C262.933 245.504 262.709 246.013 262.868 246.672C263.723 250.208 263.345 253.761 263.206 257.34C262.864 266.088 263.184 274.802 265.54 283.323C265.676 283.817 265.985 284.454 265.314 284.964C264.492 284.71 264.454 283.956 264.266 283.316C261.97 275.508 260.949 267.527 260.767 259.397C260.68 255.486 260.81 251.534 259.854 247.681C259.678 246.972 259.792 246.014 258.738 245.942C257.226 245.84 255.779 246.201 254.672 247.263C253.922 247.983 254.826 248.648 255.051 249.318C255.256 249.927 255.555 250.503 255.782 251.105C257.058 254.492 257.579 258.003 257.531 261.615C257.436 268.713 257.522 275.8 258.742 282.826C260.418 292.477 263.751 301.609 267.472 310.609C271.303 319.877 275.324 329.068 278.49 338.595C278.758 339.401 279.311 340.228 278.924 341.208C278.245 340.999 278.168 340.499 278.015 340.081C274.487 330.423 269.932 321.215 265.71 311.861C262.088 303.835 259.008 295.621 256.676 287.112C254.446 278.974 254.501 270.653 254.249 262.349C254.125 258.294 253.495 254.356 252.09 250.128C251.483 251.247 250.999 252.025 250.623 252.851C248.871 256.701 247.772 260.8 246.203 264.709C244.76 268.304 245.821 271.894 245.562 275.472C245.485 276.538 245.753 277.541 246.031 278.573C248.252 286.822 251.916 294.51 255.135 302.374C257.468 308.071 259.753 313.82 260.043 320.072C260.287 325.33 262.341 329.664 266.055 333.321C268.102 335.336 269.96 337.546 272.036 339.529C277.927 345.156 280.32 351.965 279.431 360.052C279.174 362.398 279.392 364.796 279.392 367.294C279.772 367.124 279.943 367.08 280.075 366.983C281.538 365.902 283.102 365.632 284.65 366.678C286.152 367.693 286.254 369.218 286.032 370.909C285.861 372.209 286.179 373.315 287.962 373.301C289.356 373.291 290.462 374.018 290.84 375.453C291.215 376.877 290.839 378.113 289.643 379.06C289.24 379.379 288.612 379.369 288.364 379.947C288.915 383.399 289.468 386.861 290.078 390.682C291.724 387.755 292.236 384.934 292.471 382.072C292.628 380.167 293.185 378.207 291.506 376.483C290.703 375.658 291.035 374.395 291.707 373.365C293.004 371.381 292.93 371.177 290.802 370.228C289.147 369.489 288.104 367.757 288.346 366.15C288.604 364.433 289.899 363.007 291.459 362.722C293.344 362.378 295.038 363.219 295.839 364.897C296.602 366.494 296.232 368.276 294.874 369.55C293.485 370.854 293.536 371.455 295.243 372.081C296.612 372.583 297.439 373.476 297.55 374.884C297.659 376.285 297.025 377.405 295.741 378.042C295.059 378.38 294.82 378.869 294.847 379.588C294.942 382.155 294.731 384.705 294.387 387.273C295.702 385.623 296.809 383.891 297.342 381.839C296.257 381.219 295.352 380.598 295.729 379.301C296.049 378.202 296.91 377.931 297.957 378.085C298.265 378.131 298.527 378.07 298.753 377.837C299.84 376.719 299.527 373.767 298.215 372.82C296.775 371.781 296.436 370.092 297.376 368.641C298.271 367.26 300.167 366.88 301.571 367.799C302.964 368.712 303.302 370.463 302.352 371.985C302.016 372.524 301.483 372.949 301.509 373.674C301.619 376.785 300.904 379.777 300.162 382.779C300.967 381.747 301.685 380.686 302.407 379.626C302.67 379.24 302.907 378.918 302.68 378.357C301.316 374.988 301.681 374.391 305.271 373.903C305.425 373.882 305.564 373.75 305.71 373.669C303.552 369.968 303.463 368.501 305.298 367.13C307.025 365.838 308.81 366.212 310.977 368.321C311.034 368.314 311.097 368.321 311.147 368.298C313.718 367.115 315.68 367.56 316.565 369.529C317.531 371.679 316.611 373.439 313.933 374.47C313.391 374.678 312.941 374.837 313.177 375.598C314.927 375.841 316.487 376.38 316.925 378.539C316.666 376.914 317.495 376.169 318.772 375.529C319.858 374.985 320.641 374.109 319.705 372.697C319.171 371.893 319.112 370.935 319.491 369.99C320.075 368.537 321.146 367.682 322.696 367.655C324.232 367.629 325.484 368.353 325.976 369.849C326.511 371.476 326.231 372.991 324.441 374.184ZM414.555 422.693C421.55 426.463 428.089 430.852 433.651 436.832C435.22 433.808 437.723 431.804 440.37 429.924C442.543 428.38 443.061 426.056 443.162 423.568C443.188 422.923 442.923 422.488 442.448 422.059C435.497 415.778 427.668 410.874 419.005 407.364C404.439 401.463 389.285 399.058 373.597 400.044C373.203 400.068 372.749 400.195 372.557 399.286C385.131 397.576 397.507 398.168 409.769 401.349C422.133 404.557 433.243 410.265 443.311 418.379C444.003 416.014 445.253 414.253 446.748 412.669C449.351 409.912 449.636 406.778 448.35 403.375C445.898 396.881 441.193 392.626 434.908 389.999C429.126 387.583 422.987 386.94 416.831 386.94C408.396 386.94 399.997 387.729 391.636 388.919C376.593 391.06 361.848 394.495 347.325 398.928C346.905 399.057 346.462 399.382 346.068 398.785C346.129 398.305 346.544 398.161 346.905 398.015C354.359 395.017 361.868 392.169 369.663 390.175C377.437 388.185 385.329 386.821 393.297 385.865C401.378 384.895 409.439 383.718 417.608 383.824C418.459 383.835 419.208 383.57 419.97 383.242C424.226 381.411 428.512 379.65 432.746 377.771C437.621 375.609 442.668 373.835 447.317 371.16C451.957 368.491 452.918 366.662 452.022 361.432C451.592 358.923 451.704 356.527 453.063 354.298C453.613 353.396 454.127 352.469 454.73 351.604C458.737 345.868 455.192 339.578 451.039 336.677C448.328 339.481 445.472 342.161 442.209 344.378C437.461 347.604 433.292 349.72 431.968 349.459C432.233 348.68 433.004 348.551 433.581 348.225C439.16 345.064 443.89 340.891 448.114 336.108C448.619 335.536 449.203 334.932 448.314 334.175C447.495 333.478 446.975 333.932 446.408 334.559C445.62 335.428 444.791 336.261 443.942 337.071C438.819 341.961 432.831 345.696 427.042 349.69C414.209 358.542 400.274 365.186 385.559 370.241C385.06 370.412 384.507 370.853 383.563 370.052C406.624 361.423 426.973 348.822 444.449 331.67C444.228 331.056 443.607 330.791 443.095 330.421C437.5 326.38 433.112 321.426 430.769 314.782C428.568 308.541 424.434 303.6 419.738 299.077C419.052 298.416 418.55 298.348 417.822 299.035C415.942 300.811 413.815 302.282 411.727 303.801C403.669 309.663 396.019 315.932 390.971 324.779C390.806 325.069 390.632 325.415 389.673 325.277C396.342 313.339 407.079 305.395 416.1 295.91C414.265 293.707 414.148 293.693 411.83 295.341C408.713 297.557 405.809 300.016 403.231 302.851C402.877 303.24 402.573 303.919 401.616 303.262C404.533 299.132 408.24 295.756 411.726 292.295C411.367 291.461 410.759 291.167 410.269 290.768C405.777 287.106 400.642 284.257 396.728 279.852C395.712 278.708 394.209 278.476 392.651 278.93C388.098 280.257 384.7 283.051 382.154 286.998C381.342 288.256 381.116 289.458 381.526 290.955C382.917 296.04 382.556 301.048 380.483 305.91C377.945 311.863 373.696 316.401 368.612 320.246C367.966 320.735 367.265 321.134 366.925 321.976C365.968 324.351 365.309 326.796 365.662 329.351C366.235 333.502 365.219 337.25 363.158 340.8C361.444 343.751 359.347 346.437 357.39 349.219C354.788 352.919 352.924 357.075 350.248 360.728C345.298 367.488 339.261 373.235 333.258 379.015C332.595 379.653 331.703 380.066 331.258 381.051C332.194 381.637 333.278 382.08 333.586 383.278C333.752 383.923 334.281 384.159 334.785 384.473C336.926 385.805 336.897 388.423 334.737 389.764C334.223 390.083 333.664 390.331 333.008 390.673C333.762 391.17 334.445 391.529 334.564 392.284C334.673 392.974 335.032 393.242 335.655 393.462C337.183 394.002 337.922 395.165 337.629 396.755C337.336 398.344 336.23 399.193 334.615 399.151C333.643 399.125 333.037 399.613 332.285 400.108C330.543 401.256 331.933 402.931 331.319 404.226C332.607 401.609 333.707 400.755 335.524 401.128C337.12 401.455 337.868 402.581 338.058 404.117C338.14 404.788 337.828 405.374 337.465 405.919C336.724 407.035 335.509 407.251 334.204 407.441C334.602 408.189 334.924 408.792 335.29 409.478C336.473 408.979 337.939 409.499 338.649 407.948C339.493 406.103 340.898 405.746 342.641 406.797C344.243 407.763 346.941 406.469 347.058 404.642C347.16 403.049 347.894 401.914 349.429 401.531C350.897 401.165 352.246 401.51 353.098 402.922C353.928 404.298 353.797 405.64 352.734 406.815C351.612 408.056 350.245 408.213 348.734 407.519C346.958 406.703 344.127 408.013 343.32 409.741C342.823 410.806 342.707 411.683 343.031 412.811C343.349 413.92 343.063 415.05 341.978 415.756C341.216 416.252 340.429 416.228 339.668 415.723C338.072 414.663 336.752 414.718 335.26 416.027C334.585 416.62 333.905 416.873 333.019 416.699C330.089 416.125 327.407 417.478 324.57 417.683C327.608 418.254 330.647 418.333 333.684 418.495C334.885 418.559 335.877 418.656 336.82 417.592C337.544 416.774 338.674 416.943 339.523 417.7C340.382 418.466 340.475 419.414 339.93 420.41C339.341 421.485 338.094 421.826 337.374 421.257C335.686 419.923 333.948 420.524 332.168 420.673C333.36 420.696 334.374 421.304 335.498 421.573C340.799 422.842 345.965 422.04 351.111 420.684C360.257 418.275 369.142 418.954 377.603 423.256C382.978 425.988 387.426 429.821 389.273 435.795C389.948 437.979 391.016 439.705 392.514 441.288C394.13 442.993 395.802 444.643 397.648 446.099C400.324 448.208 403.016 450.314 406.448 451.085C413.389 452.642 426.059 449.305 431.347 440.926C431.59 440.542 431.964 440.19 431.717 439.779C420.812 425.634 404.809 420.016 389.004 414.004C397.688 416.193 406.251 418.65 414.555 422.693ZM256.101 324.089C254.946 321.914 253.726 319.77 252.648 317.557C246.854 305.662 243.645 293.103 242.795 279.89C242.543 275.972 242.829 272.027 242.152 268.133C240.693 259.739 235.263 256.592 226.715 259.648C228.459 263.349 229.084 267.353 229.652 271.332C230.958 280.478 233.147 289.376 236.468 297.998C236.705 298.615 237.224 299.216 236.86 299.978C236.063 299.943 235.973 299.262 235.739 298.771C233.162 293.36 231.054 287.773 229.471 281.988C227.589 275.106 226.726 267.957 223.919 261.311C223.312 259.872 222.651 259.346 221.141 259.934C221.188 261.876 222.539 263.52 222.442 265.535C221.037 263.85 219.79 262.104 218.693 260.268C218.14 259.344 217.518 258.955 216.443 258.985C213.812 259.057 212.493 260.375 212.487 263.274C212.482 265.473 212.536 267.648 210.802 269.343C209.593 270.524 208.066 271.118 206.512 271.677C205.16 272.163 203.682 272.371 202.51 273.318C204.454 277.224 203.102 281.91 206.212 285.517C204.968 285.662 204.808 284.995 204.484 284.554C202.912 282.421 202.261 279.928 201.722 277.394C201.504 276.369 201.233 275.377 200.35 274.741C199.192 275.242 199.169 275.949 199.552 276.931C200.276 278.785 200.98 280.658 201.519 282.572C204.334 292.577 208.096 302.138 214.327 310.577C214.638 310.998 215.201 311.413 214.844 312.109C213.957 312.247 213.778 311.477 213.41 311.017C207.362 303.445 203.254 294.868 200.283 285.692C199.465 283.164 198.602 280.64 197.294 277.973C195.447 280.455 194.419 283.008 193.27 285.488C191.781 288.701 191.835 291.839 193.865 294.848C194.488 295.772 195.08 296.719 195.64 297.682C199.049 303.55 200.894 309.87 199.307 316.558C197.909 322.449 199.905 326.854 203.782 330.889C206.307 333.517 209.203 335.744 211.785 338.301C217.973 344.432 225.065 348.965 233.388 351.724C240.478 354.075 246.149 358.569 250.559 364.631C252.556 367.377 253.916 370.455 255.301 373.787C255.96 371.799 256.39 370.019 257.136 368.384C257.918 366.671 257.532 365.569 256.226 364.267C251.97 360.025 247.082 356.551 242.532 352.67C232.245 343.894 223.555 333.845 217.687 321.542C217.357 320.851 216.749 320.19 217.04 319.283C217.906 319.263 218.021 319.965 218.254 320.429C224.828 333.499 234.696 343.584 246.582 351.863C251.18 355.066 256.175 357.845 258.974 363.296C260.259 361.396 261.326 359.651 262.569 358.043C263.303 357.093 263.308 356.324 262.755 355.334C261.762 353.555 260.35 352.155 258.865 350.822C252.408 345.026 246.82 338.49 242.139 331.184C241.81 330.67 241.162 330.193 241.494 329.345C242.41 329.627 242.713 330.371 243.128 330.975C244.992 333.692 247.192 336.131 249.322 338.632C254.237 344.402 261.529 347.626 265.702 354.232C267.235 353.339 268.468 352.178 270.106 351.817C270.65 351.697 271.295 351.423 271.731 352.032C272.099 352.547 271.781 353.045 271.532 353.51C271.032 354.439 270.599 355.419 269.995 356.277C266.886 360.694 264.997 365.535 264.71 370.965C264.569 373.635 264.403 376.303 264.241 379.087C264.677 379.018 264.916 379.025 265.116 378.941C266.795 378.236 268.373 378.333 269.627 379.732C270.798 381.039 270.691 382.512 269.814 383.965C269.554 384.396 269.465 384.83 269.76 385.285C271.573 388.087 273.632 390.666 276.347 392.669C273.716 387.871 271.343 382.996 270.176 377.625C269.992 376.777 269.458 376.447 268.663 376.148C266.508 375.336 265.712 373.072 266.757 371.085C267.659 369.368 270.036 368.749 271.788 369.885C272.534 370.368 273.15 370.529 274.05 370.326C275.271 370.05 276.241 370.694 276.694 371.857C277.123 372.957 276.818 373.924 275.825 374.641C275.513 374.866 274.99 374.848 274.929 375.401C275.118 376.209 275.384 376.874 276.379 377.139C278.53 377.712 279.097 378.768 278.516 380.918C278.375 381.442 278.162 381.936 278.477 382.432C279.546 384.115 280.508 385.878 281.982 387.477C281.987 385.654 281.551 384.171 280.862 382.708C279.939 380.75 279.04 378.78 278.389 376.695C276.745 371.427 276.19 366.042 276.328 360.548C276.384 358.324 276.418 356.094 276.162 353.869C275.59 348.886 272.907 345.007 269.656 341.464C264.728 336.096 259.925 330.642 256.101 324.089ZM243.542 384.253C235.3 379.898 226.575 378.467 217.29 380.424C217.332 380.123 217.374 379.822 217.416 379.521C228.078 376.808 238.354 377.698 248.149 383.313C243.812 378.039 238.099 374.984 231.881 372.67C239.791 374.187 246.798 377.491 252.721 383.083C254.503 379.413 254.429 375.967 251.913 373.063C241.703 361.277 229.205 353.523 213.37 352.114C207.849 351.622 202.448 352.449 197.65 355.479C193.966 357.805 191.33 360.925 191.35 365.6C191.365 368.888 193.414 371.092 195.562 373.23C201.605 379.242 201.958 381.981 197.659 389.275C194.714 394.271 194.787 394.882 198.814 398.947C199.062 399.198 199.3 399.458 199.559 399.696C201.441 401.431 202.355 403.577 202.249 406.132C202.166 408.131 202.866 409.811 204.231 411.226C205.714 412.764 206.827 414.515 207.71 416.469C209.769 421.025 212.959 422.521 217.96 421.683C221.214 421.138 224.269 419.884 227.49 419.267C229.585 418.865 231.7 418.718 233.651 419.85C234.952 420.605 235.72 421.732 235.694 423.3C235.669 424.787 234.77 425.631 233.544 426.251C232.445 426.806 231.315 427.317 230.281 427.977C228.123 429.355 226.245 431.029 225.355 433.536C224.4 436.223 225.156 437.915 227.866 438.402C231.539 439.063 234.521 440.77 237.197 443.307C239.338 445.338 241.921 446.117 244.968 445.62C250.438 444.727 254.826 441.992 258.526 438.044C262.006 434.33 265.497 430.707 271.235 430.308C269.246 427.521 267.241 425.058 265.769 422.268C264.792 420.416 263.212 419.375 261.355 419.127C256.144 418.433 250.876 417.596 245.803 419.941C245.506 420.078 245.162 420.315 244.737 419.613C250.037 416.198 256.028 416.569 262.111 416.402C261.496 414.015 260.206 412.11 259.231 410.075C258.908 409.402 258.737 408.562 258.02 408.175C253.853 405.925 249.944 403.165 245.235 402.008C238.649 400.389 232.006 399.559 225.216 400.123C224.373 400.193 223.395 400.596 222.549 399.699C222.826 399.52 222.998 399.362 223.201 399.283C224.153 398.914 225.171 399.041 226.157 398.917C235.587 397.729 244.876 397.823 253.735 401.91C254.166 402.109 254.64 402.317 255.067 401.986C255.535 401.623 255.299 401.122 255.159 400.685C254.299 398.008 253.395 395.345 253.005 392.542C252.96 392.223 252.73 391.894 252.505 391.641C249.96 388.78 247.296 386.059 243.542 384.253ZM267.405 419.222C270.402 424.514 273.404 429.804 278.333 434.12C274.13 427.04 270.753 416.699 271.703 413.485C272.423 415.648 273.018 417.58 273.707 419.479C276.736 427.835 281.636 434.229 290.443 437.45C295.404 439.264 299.518 438.841 303.664 435.955C304.092 435.657 304.497 435.029 305.26 435.593C304.394 437.632 302.482 438.634 300.542 440.175C304.719 440.201 308.512 440.56 312.218 439.466C314.725 438.725 315.732 437.257 315.736 434.668C315.738 432.832 315.299 431.069 314.859 429.309C313.382 423.404 310.709 417.98 308.073 412.545C305.558 407.36 303.775 401.902 301.911 396.468C301.184 394.347 299.874 393.726 297.645 394.211C295.482 394.682 293.587 395.706 291.967 397.209C288.75 400.192 285.056 402.151 280.696 402.943C271.125 404.681 261.411 397.016 261.187 387.352C261.037 380.832 262.033 374.387 262.787 367.933C263.242 364.037 264.684 360.439 266.532 356.984C265.391 358.271 264.206 359.477 263.259 360.902C259.849 366.034 258.266 371.859 256.804 377.729C254.783 385.842 255.334 393.725 258.718 401.446C261.335 407.418 264.318 413.198 267.405 419.222ZM330.244 443.996C335.539 444.854 340.376 446.825 344.781 449.894C348.438 452.443 352.108 454.976 355.821 457.443C358.658 459.329 361.601 461.045 364.967 461.846C369.596 462.949 371.99 461.929 374.378 457.823C374.878 456.963 375.307 456.059 375.754 455.168C376.955 452.778 378.377 450.565 380.764 449.182C381.741 448.616 381.644 447.951 381.156 447.13C379.498 444.339 377.597 441.751 375.123 439.615C374.68 439.232 373.945 439.033 374.049 437.899C378.232 440.165 381.334 443.347 383.883 447.135C384.615 446.477 384.328 445.982 384.073 445.536C377.446 433.924 366.377 429.669 353.557 427.574C355.79 426.329 357.618 427.042 359.318 427.225C371.166 428.495 379.152 435.909 386.322 444.554C386.926 444.11 387.061 443.468 387.246 442.858C388.603 438.366 386.98 434.608 384.055 431.4C378.303 425.092 370.951 422.141 362.51 421.741C357.887 421.522 353.414 422.531 348.988 423.648C342.993 425.161 337.069 425.156 331.107 423.529C328.343 422.774 325.552 422.057 322.729 421.596C320.36 421.209 317.919 420.537 315.347 421.559C316.279 423.547 316.402 425.811 319.333 426.111C322.759 426.462 326.141 427.246 329.542 427.849C330.018 427.933 330.638 427.817 330.735 428.75C326.547 428.734 322.452 427.563 318.268 427.822C318.288 429.586 319.093 430.332 320.543 430.709C323.799 431.553 327.142 431.699 330.455 432.03C341.875 433.174 352.358 436.918 361.959 443.17C362.484 443.512 363.312 443.729 363.107 445.252C349.807 436.703 335.25 433.389 319.763 433.609C319.763 434.435 320.015 435.563 319.71 436.51C319.092 438.429 320.005 439.499 321.364 440.502C323.933 442.399 326.936 443.182 330.244 443.996ZM272.572 456.697C278.931 454.114 283.122 449.483 285.344 443.041C285.539 442.473 286.067 441.687 285.227 441.135C284.545 440.687 283.865 440.742 283.069 441.044C278.782 442.669 275.514 445.671 272.341 448.817C270.791 450.354 269.53 452.146 268.004 453.709C270.735 447.529 274.734 442.418 280.644 439.058C279.383 437.203 277.928 437.168 276.188 437.775C270.961 439.597 267.37 443.204 264.863 447.998C262.666 452.199 261.803 456.831 260.727 461.387C260.66 461.672 260.513 462.089 261.009 462.363C262.221 461.208 263.498 460.097 265.019 459.321C267.332 458.141 269.852 457.551 272.572 456.697ZM308.789 451.411C306.168 447.702 302.526 445.315 298.511 443.38C297.237 442.765 295.965 442.8 294.23 442.878C299.946 447.682 304.094 453.222 306.818 459.815C304.603 457.768 302.73 455.445 300.774 453.194C298.791 450.911 296.728 448.696 294.011 446.825C294.986 450.485 296.237 453.739 298.557 456.483C302.39 461.018 307.5 464.128 311.847 468.701C311.847 465.862 311.982 463.462 311.814 461.083C311.578 457.733 310.925 454.457 308.789 451.411ZM361.205 340.028C364.837 335.053 363.325 329.371 363.603 323.855C358.681 325.324 356.627 328.058 356.783 332.881C356.917 337.002 357.968 341.084 357.45 345.353C358.658 343.651 359.866 341.949 361.205 340.028ZM256.598 313.716C254.141 305.423 249.972 297.839 246.792 289.846C249.967 305.008 254.659 318.118 258.321 322.128C257.967 319.307 257.525 316.609 256.598 313.716ZM325.944 389.626C325.029 390.452 323.863 391.064 324.634 392.738C324.989 393.507 324.285 394.453 323.435 394.604C321.676 394.915 320.846 396.267 319.78 397.402C318.332 398.942 316.715 400.286 314.918 401.411C314.188 401.868 313.484 402.366 312.768 402.846C314.365 402.754 315.949 403.161 317.272 402.103C319.053 400.678 320.892 399.327 322.694 397.928C323.2 397.536 323.726 397.132 323.82 396.424C323.993 395.121 324.78 394.597 326.033 394.335C327.175 394.097 328.53 393.338 328.092 392.059C327.511 390.362 327.766 389.075 328.682 387.652C327.831 388.256 326.979 388.859 325.944 389.626ZM317.362 389.517C317.222 390.967 318.976 391.355 318.945 392.943C320.379 391.919 321.542 391.043 322.753 390.238C323.541 389.713 323.911 389.189 323.397 388.227C322.91 387.313 323.302 386.487 324.047 385.899C324.766 385.331 325.558 385.473 326.361 385.856C326.724 386.029 326.917 386.692 327.549 386.318C327.424 385.634 327.3 384.96 327.182 384.315C326.53 384.108 326.072 384.398 325.622 384.654C324.175 385.477 322.614 386.012 320.977 386.148C318.953 386.316 317.326 386.761 317.362 389.517ZM304.901 379.848C303.849 381.638 302.797 383.429 301.745 385.22C305.867 382.562 308.93 378.949 311.404 374.809C311.804 374.139 310.876 372.889 310.046 372.849C308.875 372.793 306.909 374.088 306.995 375.201C307.143 377.129 306.167 378.371 304.901 379.848ZM286.121 379.425C283.873 377.627 285.543 374.972 284.938 372.712C283.68 373.106 282.276 372.894 282.59 374.667C283.558 380.145 285.217 385.429 287.007 390.68C286.833 387.004 286.825 383.328 286.121 379.425ZM270.171 393.188C271.299 393.799 272.15 394.971 273.595 395.008C273.779 394.338 273.404 394.012 273.1 393.672C271.49 391.865 270.024 389.912 269.128 387.69C268.243 385.494 266.689 385.22 264.708 385.354C264.647 386.081 264.787 386.667 265.25 387.132C268.676 386.99 269.463 387.883 268.933 391.365C268.792 392.292 269.523 392.544 270.171 393.188ZM279.718 391.379C281.642 393.334 282.039 393.544 283.207 393.186C283.141 393.028 283.119 392.823 283.005 392.724C280.167 390.25 278.159 387.169 276.524 383.823C276.047 382.847 275.345 382.316 274.074 382.231C275.843 385.385 277.276 388.54 279.718 391.379ZM321.224 404.36C319.359 405.291 316.935 404.968 315.293 406.933C316.649 407.527 317.781 407.95 319.069 407.289C321.361 406.111 323.569 404.794 325.705 403.357C326.082 403.104 326.728 402.935 326.408 402.055C324.742 402.798 323.111 403.526 321.224 404.36ZM329.252 397.164C329.718 396.723 330.174 396.271 330.651 395.844C331.678 394.922 331.017 394.069 330.391 393.439C329.66 392.702 329.178 393.575 328.678 394.007C327.951 394.635 327.793 395.403 327.889 396.358C328.027 397.716 327.259 398.562 325.92 398.415C323.963 398.2 323.449 399.68 322.596 400.83C325.186 400.435 327.051 398.749 329.252 397.164ZM327.773 408.014C324.848 409.431 321.566 409.672 318.506 410.651C321.28 411.195 324.013 410.967 326.743 410.924C327.283 410.916 328.029 410.787 327.929 410.198C327.797 409.418 328.993 408.695 327.773 408.014ZM311.876 383.762C311.829 383.657 311.808 383.511 311.727 383.461C311.668 383.425 311.485 383.484 311.435 383.555C309.977 385.626 308.085 387.311 306.452 389.224C306.059 389.684 305.555 390.143 305.621 391.207C308.289 389.455 310.382 387.421 312.057 384.951C312.196 384.747 311.969 384.294 311.876 383.762ZM312.141 394.539C311.103 395.648 309.684 396.394 308.626 398.143C311.271 397.584 313.309 396.754 315.205 395.327C314.654 394.663 314.151 394.057 313.586 393.375C313.121 393.743 312.719 394.062 312.141 394.539ZM336.383 410.999C335.457 411.256 334.365 411.552 334.773 412.786C335.156 413.944 336.241 413.894 337.293 413.635C338.881 413.245 338.877 411.898 339.256 410.739C338.251 410.132 337.471 410.823 336.383 410.999ZM234.149 355.548C237.453 357.234 240.557 359.254 243.662 361.262C238.537 356.521 232.253 354.044 225.698 352.101C228.434 353.213 231.171 354.326 234.149 355.548ZM273.545 376.134C273.415 375.707 273.398 375.223 272.961 374.947C271.033 376.614 271.033 376.625 273.03 379.865C273.241 378.647 274.24 377.665 273.545 376.134ZM320.124 413.331C319.071 413.44 318.019 413.549 316.8 413.675C319.806 414.79 321.798 414.744 322.579 413.575C321.882 413.158 321.101 413.56 320.124 413.331ZM330.945 399.587C331.73 398.935 332.939 398.401 331.798 397.248C330.62 398.384 329.498 399.465 328.278 400.641C329.237 400.512 330.09 400.43 330.945 399.587ZM308.836 383.419C309.702 382.437 311.052 381.728 310.851 380.128C309.209 381.728 308.025 383.654 306.59 385.407C307.277 384.802 307.965 384.196 308.836 383.419ZM325.203 406.227C325.148 407.17 325.83 406.716 326.125 406.627C327.291 406.279 328.429 405.839 329.579 405.432C327.907 404.247 326.563 404.817 325.203 406.227ZM328.818 414.573C329.606 414.535 330.415 414.624 331.477 414.174C329.965 413.669 329 412.338 327.441 413.17C327.482 413.974 327.729 414.501 328.818 414.573ZM312.741 390.656C311.912 391.56 311.084 392.464 310.256 393.369C311.752 392.824 313.215 392.341 314.121 391.017C313.731 390.665 313.344 390.581 312.741 390.656Z" fill="#A9002D"/>
<path d="M335.514 334.841C333.638 343.873 331.834 352.771 328.236 361.169C327.567 362.731 326.758 364.232 325.758 365.615C325.395 366.117 325.118 366.779 324.279 366.65C323.626 366.19 323.928 365.604 324.116 365.079C329.299 350.558 332.149 335.367 336.85 320.71C338.571 315.346 340.667 310.123 343.499 305.229C343.835 304.649 344.005 303.889 345.448 303.55C340.101 313.557 337.632 324.069 335.514 334.841Z" fill="#A9002D"/>
<path d="M329.047 367.097C328.766 367.392 328.57 367.621 327.767 367.393C329.924 363.353 332.137 359.431 333.603 355.154C333.872 355.275 334.141 355.396 334.41 355.516C333.144 359.555 331.503 363.435 329.047 367.097Z" fill="#A9002D"/>
<path d="M287.222 318.114C285.952 314.24 284.589 310.536 284.05 306.58C285.917 310.564 287.521 314.636 288.548 318.954C287.589 319.166 287.476 318.642 287.222 318.114Z" fill="#A9002D"/>
<path d="M301.807 357.617C302.215 356.043 301.999 354.434 303.17 353.236C303.499 355.981 302.719 358.511 301.839 361.036C301.172 359.927 301.789 358.846 301.807 357.617Z" fill="#A9002D"/>
<path d="M284.294 354.763C284.162 353.316 283.538 352.008 284.256 350.675C285.431 352.427 285.39 354.357 285.239 356.456C284.313 356.166 284.478 355.446 284.294 354.763Z" fill="#A9002D"/>
<path d="M360.512 368.392C357.963 370.563 355.527 372.676 353.033 374.718C351.671 375.834 350.172 376.774 348.541 377.461C347.891 377.735 347.086 378.426 346.536 377.47C346.066 376.653 346.928 376.207 347.438 375.793C351.08 372.84 354.998 370.25 358.516 367.123C365.427 360.981 371.397 353.979 377.339 346.941C377.797 346.399 378.086 345.573 379.659 345.618C373.666 353.824 367.568 361.418 360.512 368.392Z" fill="#A9002D"/>
<path d="M425.523 417.565C422.284 415.582 418.912 414.161 415.303 412.92C418.151 410.344 433.016 418.194 434.133 422.507C433.388 423.205 432.869 422.54 432.327 422.174C430.091 420.667 427.866 419.144 425.523 417.565Z" fill="#A9002D"/>
<path d="M373.058 410.769C366.643 410.63 360.385 410.464 354.34 412.554C354.094 412.64 353.792 412.565 353.428 412.565C355.342 409.613 371.737 406.785 374.506 410.098C374.285 410.719 373.719 410.682 373.058 410.769Z" fill="#A9002D"/>
<path d="M354.588 379.75C352.485 381.073 350.474 382.287 348.065 382.585C347.742 381.371 348.438 381.131 348.993 380.875C353.009 379.029 356.816 376.878 359.865 373.586C360.1 373.333 360.408 373.112 361.107 373.593C359.551 376.246 357.045 377.889 354.588 379.75Z" fill="#A9002D"/>
<path d="M352.85 386.149C351.346 386.879 349.862 387.211 348.366 387.485C347.923 387.566 347.357 387.67 347.158 387.088C346.921 386.394 347.479 386.14 347.986 385.99C350.912 385.128 353.8 384.191 356.336 382.417C356.692 382.168 357.132 382.076 357.42 382.519C357.746 383.02 357.469 383.413 357.058 383.712C355.777 384.645 354.443 385.487 352.85 386.149Z" fill="#A9002D"/>
</g>
<path d="M140.176 132.399L190.762 194.988C192.819 197.502 194.725 199.012 196.48 199.518C198.211 199.948 199.695 199.996 200.932 199.663L201.658 201.951C200.093 202.309 198.212 202.859 196.013 203.6C193.791 204.265 191.58 204.968 189.382 205.709C186.425 206.706 183.67 207.676 181.117 208.621C178.539 209.49 176.479 210.269 174.935 210.958L174.209 208.671C178.027 207.215 180.285 205.737 180.983 204.235C181.657 202.657 180.619 200.18 177.868 196.802L138.671 147.087L140.019 144.987L136.644 203.353C136.4 206.812 136.503 209.648 136.953 211.859C137.379 213.995 138.089 215.57 139.083 216.586C140.153 217.576 141.53 218.082 143.216 218.105C144.977 218.102 147.045 217.742 149.419 217.027L150.146 219.314C147.974 219.877 145.714 220.555 143.364 221.347C141.065 222.037 138.931 222.714 136.96 223.379C135.064 224.018 133.446 224.605 132.106 225.141C130.817 225.576 129.629 226.061 128.54 226.597L127.814 224.309C129.209 223.417 130.485 222.016 131.641 220.107C132.773 218.122 133.439 215.196 133.638 211.331L138.357 133.012C138.66 132.91 138.963 132.808 139.267 132.705C139.57 132.603 139.873 132.501 140.176 132.399ZM169.481 176.332L170.208 178.619L136.321 190.041L136.732 187.371L169.481 176.332Z" fill="#A9002D"/>
<path d="M212.253 117.176L215.943 136.873L233.361 133.409L233.803 135.768L216.384 139.232L224.934 184.878C225.627 188.574 226.78 191.036 228.393 192.265C230.007 193.494 231.991 193.874 234.345 193.406C236.699 192.938 238.562 191.589 239.935 189.358C241.293 187.049 242.172 183.489 242.573 178.679L245.038 178.801C245.107 183.517 244.26 187.682 242.495 191.296C240.809 194.894 237.572 197.169 232.786 198.12C230.118 198.651 227.855 198.734 225.996 198.37C224.152 198.084 222.446 197.445 220.876 196.452C218.811 194.986 217.19 193.066 216.012 190.69C214.913 188.299 213.974 185.019 213.193 180.852L205.792 141.339L194.493 143.586L194.051 141.227L205.35 138.98L201.97 120.934C203.917 120.465 205.77 119.933 207.531 119.338C209.291 118.744 210.865 118.023 212.253 117.176Z" fill="#A9002D"/>
<path d="M278.136 126.477C285.152 125.899 290.781 127.603 295.022 131.588C299.336 135.487 301.843 141.943 302.542 150.956L260.325 154.433L260.029 152.17L290.884 149.629C290.741 145.707 290.143 142.144 289.092 138.94C288.035 135.656 286.552 133.089 284.644 131.239C282.814 129.383 280.545 128.567 277.834 128.79C274.166 129.092 271.04 131.196 268.454 135.101C265.948 139 264.725 144.96 264.786 152.982L265.182 153.431C265.115 154.641 265.098 155.967 265.129 157.409C265.161 158.851 265.233 160.29 265.344 161.726C265.765 167.15 267.004 171.743 269.061 175.507C271.118 179.271 273.623 182.075 276.574 183.919C279.599 185.676 282.626 186.43 285.656 186.181C288.048 185.984 290.292 185.438 292.389 184.543C294.48 183.568 296.375 182.127 298.072 180.221C299.77 178.316 301.182 175.831 302.308 172.769L304.775 173.529C304.102 176.233 302.865 178.904 301.063 181.54C299.262 184.177 296.908 186.418 294.002 188.263C291.09 190.028 287.64 191.074 283.654 191.403C277.913 191.876 272.868 190.967 268.518 188.676C264.247 186.379 260.817 183.009 258.225 178.567C255.708 174.038 254.213 168.743 253.743 162.681C253.199 155.663 253.848 149.549 255.69 144.34C257.527 139.051 260.373 134.884 264.229 131.837C268.079 128.71 272.714 126.924 278.136 126.477Z" fill="#A9002D"/>
<path d="M339.603 94.4896L337.724 177.388C337.648 180.747 338.276 183.043 339.609 184.276C341.021 185.51 343.367 186.167 346.646 186.245L346.589 188.765C345.231 188.652 343.153 188.522 340.356 188.375C337.64 188.149 334.883 188.003 332.084 187.936C329.365 187.87 326.604 187.884 323.801 187.976C321 187.989 318.919 188.019 317.557 188.066L317.614 185.547C320.893 185.626 323.226 185.082 324.613 183.915C326.08 182.75 326.851 180.488 326.927 177.129L328.48 108.626C328.561 105.027 327.981 102.372 326.74 100.662C325.5 98.8716 323.121 97.9341 319.602 97.8494L319.659 95.3301C322.213 95.6316 324.689 95.8112 327.088 95.8689C329.408 95.9247 331.61 95.8577 333.695 95.6678C335.861 95.3998 337.831 95.0071 339.603 94.4896Z" fill="#A9002D"/>
<path d="M379.951 99.5662C382.02 99.7846 383.735 100.73 385.096 102.402C386.457 104.074 387.034 105.945 386.829 108.015C386.623 110.085 385.689 111.796 384.027 113.149C382.365 114.502 380.499 115.069 378.431 114.851C376.362 114.632 374.648 113.687 373.286 112.015C371.925 110.343 371.348 108.472 371.554 106.402C371.759 104.332 372.693 102.621 374.355 101.268C376.017 99.9149 377.883 99.3477 379.951 99.5662ZM383.318 128.761L378.175 180.466C377.842 183.809 378.293 186.149 379.526 187.486C380.84 188.832 383.127 189.676 386.389 190.021L386.14 192.529C384.795 192.306 382.734 192.008 379.958 191.634C377.269 191.19 374.532 190.82 371.747 190.526C369.042 190.24 366.29 190.03 363.489 189.895C360.697 189.681 358.621 189.542 357.26 189.479L357.51 186.971C360.772 187.315 363.138 186.962 364.609 185.911C366.16 184.868 367.102 182.675 367.434 179.331L371.152 141.956C371.509 138.373 371.133 135.679 370.027 133.873C368.928 131.987 366.628 130.859 363.128 130.49L363.377 127.982C365.899 128.49 368.354 128.87 370.741 129.122C373.048 129.365 375.247 129.477 377.34 129.457C379.519 129.365 381.512 129.133 383.318 128.761Z" fill="#A9002D"/>
<path d="M437.747 137.582C444.629 139.065 449.556 142.337 452.529 147.396C455.595 152.394 456.229 159.323 454.431 168.182L413.022 159.256L413.358 156.997L443.623 163.52C444.559 159.713 444.963 156.117 444.833 152.734C444.72 149.273 444.002 146.377 442.679 144.046C441.435 141.732 439.483 140.288 436.824 139.715C433.227 138.939 429.655 140.051 426.107 143.051C422.638 146.067 419.833 151.437 417.694 159.159L417.951 159.705C417.555 160.847 417.176 162.116 416.811 163.51C416.446 164.904 416.121 166.307 415.834 167.718C414.752 173.05 414.681 177.821 415.621 182.034C416.562 186.246 418.194 189.667 420.517 192.295C422.934 194.862 425.629 196.466 428.601 197.106C430.947 197.612 433.247 197.74 435.502 197.489C437.773 197.161 439.982 196.328 442.131 194.991C444.28 193.653 446.314 191.678 448.232 189.064L450.387 190.51C449.002 192.912 447.085 195.117 444.636 197.126C442.188 199.135 439.318 200.603 436.028 201.531C432.754 202.38 429.162 202.383 425.252 201.54C419.621 200.326 415.035 197.987 411.494 194.524C408.031 191.077 405.666 186.844 404.399 181.824C403.227 176.744 403.246 171.224 404.455 165.265C405.856 158.366 408.153 152.683 411.345 148.216C414.554 143.67 418.423 140.494 422.952 138.689C427.498 136.804 432.429 136.435 437.747 137.582Z" fill="#A9002D"/>
<path d="M514.398 160.335C516.436 161.049 518.073 162.089 519.307 163.454C520.617 164.845 521.461 166.37 521.84 168.028C522.32 169.637 522.284 171.277 521.732 172.949C521.105 174.848 519.95 176.307 518.265 177.328C516.657 178.374 514.871 178.553 512.908 177.866C511.322 177.31 510.088 176.327 509.206 174.916C508.349 173.429 508.234 171.736 508.861 169.837C509.338 168.393 510.116 167.31 511.197 166.587C512.379 165.814 513.561 165.296 514.743 165.032C514.465 164.088 513.798 163.43 512.741 163.059C510.4 162.239 508.01 162.207 505.571 162.962C503.157 163.642 500.906 164.845 498.82 166.572C496.734 168.299 494.9 170.284 493.317 172.526C491.76 174.692 490.63 176.839 489.928 178.966L481.955 203.125C480.726 206.847 480.956 209.724 482.643 211.757C484.432 213.739 487.176 215.379 490.875 216.675L490.085 219.068C488.374 218.384 485.945 217.448 482.799 216.261C479.678 214.998 476.344 213.745 472.795 212.501C470.228 211.601 467.636 210.778 465.019 210.03C462.503 209.233 460.59 208.648 459.282 208.274L460.072 205.881C463.167 206.966 465.545 207.163 467.204 206.473C468.939 205.81 470.333 203.883 471.386 200.692L483.159 165.025C484.287 161.606 484.51 158.888 483.829 156.869C483.173 154.774 481.184 153.145 477.862 151.981L478.651 149.588C480.992 150.662 483.295 151.597 485.56 152.39C487.749 153.157 489.863 153.771 491.901 154.231C494.04 154.642 496.028 154.872 497.864 154.922L493.163 169.166C494.721 167.254 496.618 165.461 498.855 163.787C501.193 162.064 503.707 160.826 506.398 160.074C509.089 159.322 511.756 159.409 514.398 160.335Z" fill="#A9002D"/>
<path d="M164.684 461.687C166.231 462.33 168.268 463.149 170.793 464.144C173.319 465.139 175.824 466.084 178.307 466.979C181.844 468.254 185.248 469.439 188.517 470.533C191.786 471.626 194.098 472.417 195.453 472.906C204.559 476.188 210.457 480.645 213.147 486.276C215.837 491.907 215.737 497.888 212.849 504.221C211.653 506.841 209.94 509.444 207.709 512.03C205.511 514.543 202.719 516.63 199.332 518.291C196.054 519.906 192.147 520.786 187.612 520.931C183.076 521.076 177.873 520.09 172.003 517.974L161.166 514.068L162.162 511.884L171.87 515.384C177.214 517.31 181.726 517.792 185.407 516.831C189.163 515.897 192.261 514.004 194.7 511.155C197.215 508.332 199.319 505.064 201.012 501.352C204.166 494.438 205.093 488.755 203.794 484.303C202.57 479.878 198.533 476.431 191.685 473.963C188.223 472.715 185.683 472.52 184.065 473.377C182.447 474.235 180.774 476.556 179.048 480.341L154.346 534.493C153.151 537.113 152.518 539.173 152.447 540.673C152.452 542.201 153.182 543.481 154.639 544.515C156.095 545.548 158.371 546.707 161.465 547.992L160.469 550.176C158.579 549.325 156.129 548.357 153.118 547.272C150.141 546.114 147.11 544.979 144.024 543.866C141.089 542.808 138.325 541.855 135.733 541.005C133.174 540.083 131.072 539.409 129.425 538.985L130.421 536.802C133.046 537.578 135.098 537.979 136.576 538.004C138.13 538.055 139.432 537.507 140.481 536.36C141.53 535.213 142.652 533.329 143.848 530.709L168.549 476.556C169.778 473.863 170.448 471.817 170.561 470.416C170.707 468.944 170.202 467.745 169.047 466.82C168 465.849 166.214 464.866 163.688 463.871L164.684 461.687Z" fill="#A9002D"/>
<path d="M253.052 511.21C258.101 512.063 262.402 513.925 265.956 516.796C269.511 519.666 271.969 523.649 273.331 528.742C274.772 533.85 274.69 540.158 273.083 547.668C271.477 555.178 268.949 561.074 265.499 565.354C262.146 569.57 258.223 572.433 253.731 573.943C249.24 575.453 244.47 575.782 239.422 574.928C234.452 574.088 230.151 572.226 226.518 569.343C222.963 566.472 220.457 562.522 218.999 557.493C217.637 552.399 217.759 546.098 219.365 538.587C220.972 531.077 223.46 525.175 226.831 520.882C230.28 516.601 234.251 513.706 238.742 512.195C243.313 510.698 248.083 510.37 253.052 511.21ZM252.55 513.557C248.054 512.797 243.853 514.478 239.947 518.6C236.12 522.736 233.085 530.045 230.843 540.528C228.6 551.01 228.405 558.8 230.257 563.895C232.205 568.926 235.427 571.821 239.924 572.581C244.42 573.342 248.573 571.693 252.383 567.636C256.289 563.513 259.364 556.211 261.606 545.728C263.849 535.245 264.004 527.449 262.073 522.34C260.221 517.245 257.046 514.317 252.55 513.557Z" fill="#A9002D"/>
<path d="M311.915 518.421L312.582 592.098C312.613 595.538 313.634 597.811 315.644 598.917C317.735 600.102 320.58 600.681 324.18 600.655L324.203 603.175C322.442 603.108 320.001 603.005 316.88 602.868C313.759 602.81 310.439 602.794 306.919 602.819C304.439 602.837 301.96 602.895 299.48 602.992C297.082 603.17 295.243 603.303 293.964 603.392L293.941 600.872C296.821 600.851 298.856 600.317 300.047 599.268C301.237 598.22 301.82 596.255 301.793 593.376L301.246 532.898C301.213 529.298 300.549 526.663 299.254 524.992C297.958 523.241 295.55 522.379 292.03 522.404L292.007 519.884C294.569 520.106 297.05 520.208 299.45 520.191C301.77 520.174 303.969 520.038 306.047 519.783C308.204 519.448 310.16 518.994 311.915 518.421ZM331.111 517.924C335.351 517.894 339.161 519.026 342.542 521.322C345.922 523.538 348.592 526.839 350.552 531.225C352.592 535.61 353.641 541.043 353.7 547.523C353.739 551.843 353.258 556.126 352.256 560.373C351.254 564.541 349.649 568.352 347.44 571.808C345.31 575.184 342.495 577.924 338.994 580.029C335.572 582.053 331.421 583.083 326.541 583.118C322.782 583.145 319.494 582.289 316.678 580.549C313.942 578.808 312.083 576.701 311.1 574.228L312.285 572.54C313.425 574.772 315.042 576.64 317.136 578.145C319.31 579.65 321.997 580.391 325.197 580.368C329.676 580.336 333.144 578.911 335.598 576.093C338.053 573.275 339.739 569.543 340.657 564.897C341.654 560.169 342.127 554.966 342.076 549.286C342.018 542.886 341.45 537.65 340.373 533.578C339.296 529.506 337.709 526.477 335.611 524.492C333.513 522.507 330.944 521.525 327.904 521.547C323.984 521.575 320.439 523.24 317.269 526.543C314.098 529.766 312.102 534.66 311.281 541.226L309.826 539.557C310.645 532.751 312.997 527.454 316.883 523.666C320.848 519.877 325.591 517.963 331.111 517.924Z" fill="#A9002D"/>
<path d="M385.88 513.877L403.011 585.538C403.811 588.883 405.324 590.915 407.549 591.633C409.872 592.414 412.802 592.471 416.34 591.803L416.926 594.253C415.178 594.502 412.752 594.839 409.649 595.262C406.565 595.763 403.293 596.341 399.834 596.994C397.398 597.455 394.97 597.954 392.552 598.492C390.231 599.093 388.45 599.551 387.211 599.867L386.625 597.416C389.455 596.881 391.339 595.997 392.276 594.763C393.214 593.528 393.347 591.511 392.678 588.71L378.616 529.887C377.779 526.386 376.536 523.937 374.888 522.541C373.221 521.066 370.658 520.656 367.199 521.309L366.613 518.859C369.185 518.617 371.649 518.273 374.008 517.828C376.287 517.397 378.421 516.872 380.409 516.252C382.457 515.54 384.281 514.748 385.88 513.877ZM404.663 509.963C408.829 509.176 412.833 509.598 416.674 511.231C420.496 512.786 423.862 515.525 426.772 519.448C429.76 523.356 432.008 528.461 433.514 534.764C434.519 538.966 435.003 543.225 434.967 547.542C434.912 551.781 434.184 555.781 432.783 559.542C431.441 563.211 429.283 566.384 426.308 569.06C423.393 571.644 419.538 573.389 414.742 574.295C411.048 574.993 407.62 574.746 404.46 573.554C401.378 572.347 399.077 570.627 397.557 568.393L398.345 566.536C399.967 568.507 401.976 570.038 404.373 571.13C406.849 572.208 409.659 572.45 412.804 571.856C417.206 571.024 420.3 569.016 422.086 565.833C423.872 562.649 424.697 558.712 424.561 554.021C424.486 549.237 423.788 544.083 422.467 538.559C420.979 532.334 419.25 527.334 417.279 523.559C415.309 519.784 413.069 517.117 410.56 515.558C408.051 513.999 405.303 513.501 402.316 514.065C398.464 514.793 395.347 517.049 392.966 520.833C390.565 524.54 389.695 529.664 390.356 536.208L388.55 534.841C387.834 528.064 388.965 522.484 391.942 518.099C394.999 513.699 399.239 510.987 404.663 509.963Z" fill="#A9002D"/>
<path d="M492.612 483.688L493.64 485.857C492.285 486.535 491.265 487.64 490.58 489.174C489.895 490.707 489.679 493.043 489.932 496.183L493.596 549.715L491.686 550.43L448.245 510.133C445.486 507.846 443.257 506.68 441.56 506.635C439.903 506.489 438.625 506.585 437.726 506.921L436.647 504.644C438.398 504.244 440.207 503.779 442.073 503.251C443.906 502.65 445.871 501.956 447.968 501.171C450.291 500.301 452.692 499.317 455.17 498.219C457.724 497.092 460.09 496.036 462.27 495.05L463.349 497.327C461.476 498.029 459.858 498.804 458.497 499.655C457.176 500.404 456.637 501.5 456.879 502.942C457.087 504.311 458.547 506.275 461.259 508.835L490.754 536.734L490.182 537.203L487.681 500.091C487.525 497.34 487.009 495.32 486.133 494.031C485.298 492.641 484.035 491.837 482.344 491.619C480.653 491.401 478.425 491.725 475.659 492.59L474.631 490.421C476.014 489.989 477.21 489.626 478.218 489.334C479.192 488.969 480.146 488.654 481.079 488.39C482.053 488.025 483.102 487.633 484.225 487.212C485.949 486.567 487.467 485.955 488.782 485.378C490.171 484.773 491.448 484.21 492.612 483.688ZM493.596 549.715L494.246 560.58C494.353 562.668 494.286 564.481 494.044 566.018C493.877 567.528 493.532 568.848 493.01 569.98C492.325 571.514 491.244 572.77 489.767 573.748C488.325 574.799 486.929 575.577 485.581 576.082C484.157 576.615 482.726 576.853 481.288 576.796C479.924 576.71 478.665 576.288 477.511 575.528C476.392 574.841 475.507 573.811 474.856 572.437C474.034 570.702 473.89 569.096 474.425 567.619C474.994 566.214 476.216 565.161 478.089 564.459C479.662 563.87 481.216 563.799 482.751 564.246C484.286 564.692 485.447 565.747 486.235 567.41C486.817 568.639 486.997 569.763 486.775 570.783C486.552 571.803 486.132 572.684 485.513 573.426C485.697 573.442 485.827 573.436 485.901 573.408C486.051 573.352 486.164 573.31 486.239 573.282C488.261 572.525 489.734 571.165 490.657 569.202C491.613 567.311 491.989 564.66 491.783 561.247L491.05 549.647L493.596 549.715Z" fill="#A9002D"/>
<defs>
<clipPath id="clip0_514_2532">
<rect width="276" height="248" fill="white" transform="translate(187 224)"/>
</clipPath>
</defs>
</svg>
